<?xml version="1.0" encoding="utf-8"?>
<!-- Generator: Adobe Illustrator 27.3.1, SVG Export Plug-In . SVG Version: 6.00 Build 0)  -->
<svg version="1.1" id="レイヤー_1" xmlns="http://www.w3.org/2000/svg" xmlns:xlink="http://www.w3.org/1999/xlink" x="0px"
	 y="0px" viewBox="0 0 1122.9 2223.4" style="enable-background:new 0 0 1122.9 2223.4;" xml:space="preserve">
<style type="text/css">
	.st0{fill:#FFFFFF;}
	.st1{fill:none;stroke:#E95520;stroke-width:2;stroke-miterlimit:10;}
	.st2{fill:#E95520;}
	.st3{fill:none;stroke:#AE9B33;stroke-width:2;stroke-miterlimit:10;}
	.st4{fill:#AE9B33;}
	.st5{fill:none;stroke:#4D558B;stroke-width:2;stroke-miterlimit:10;}
	.st6{fill:#4D558B;}
	.st7{fill:#FFFFFF;stroke:#4D4D4D;stroke-width:2;stroke-miterlimit:10;}
	.st8{fill:none;stroke:#4D4D4D;stroke-width:2;stroke-miterlimit:10;}
	.st9{fill:none;stroke:#4D4D4D;stroke-width:2;stroke-miterlimit:10;stroke-dasharray:7.1455,7.1455;}
	.st10{fill:none;stroke:#006837;stroke-width:2;stroke-miterlimit:10;}
	.st11{fill:#006837;}
</style>
<g>
	<g>
		<path class="st0" d="M211.5,81.7c0,5.5-4.5,10-10,10h-180c-5.5,0-10-4.5-10-10v-50c0-5.5,4.5-10,10-10h180c5.5,0,10,4.5,10,10
			V81.7z"/>
		<path class="st1" d="M211.5,81.7c0,5.5-4.5,10-10,10h-180c-5.5,0-10-4.5-10-10v-50c0-5.5,4.5-10,10-10h180c5.5,0,10,4.5,10,10
			V81.7z"/>
	</g>
	<g>
		<path class="st2" d="M90.9,68.1h-2.7V60c-1.3,1.2-2.3,1.9-3,2.5c-0.5-1.1-1.1-1.7-1.8-2.2c3-1.8,6.5-5.3,7.8-8.1h-6.9v-2.5h3.9
			v-5.2l2.6,0.1c0.3,0,0.6,0.2,0.6,0.4s-0.3,0.3-0.5,0.4v4.3h2.8l1.2,1.1c-1.5,3.1-2,3.8-2.9,5c1.5,1.6,3.2,2.8,4.2,3.4
			c-0.6,0.5-1.3,1.4-1.7,2.1c-0.6-0.4-2-1.4-3.6-3.1V68.1z M94.8,54.9v-2.7h4.8v-7.9l3,0.2c0.2,0,0.4,0.1,0.4,0.3
			c0,0.2-0.2,0.3-0.6,0.4v7h5v2.7h-5v9.7h5.5v2.5H93.6v-2.5h6v-9.7H94.8z"/>
		<path class="st2" d="M113,65.3c2.1-0.2,3.1-0.3,4-0.5v-6.2h-4.7v-2.3h5.1V44.8h16.3V47h-13.7v1.7h12.2v2.1h-12.2v1.7h12.2v2.1
			h-12.2v1.7h16v2.3h-3.9l1.4,1c0.2,0.2,0.3,0.3,0.3,0.4c0,0.3-0.2,0.3-0.3,0.3c-0.2,0-0.3,0-0.4-0.1c-1.1,1-2,1.6-3.4,2.7
			c0.5,0.4,3.1,2.2,6.1,3c-0.6,0.5-1.3,1.1-2,2.2c-2.2-0.8-5.8-2.9-8-5.2c-0.2,0.6-0.4,1.7-0.4,2.3c-3.9,1-6.9,1.6-11,2.3
			c-0.1,0.3-0.2,0.5-0.4,0.5c-0.2,0-0.4-0.2-0.5-0.6L113,65.3z M119.7,64.3c3.4-0.6,5.9-1.3,6.3-1.4c-1.2-1.3-2.2-2.7-3-4.3h-3.3
			V64.3z M125.9,58.6c0.6,1,1.3,1.9,2.2,2.8c0.8-0.6,2.2-1.7,3.2-2.8H125.9z"/>
	</g>
	<g>
		<g>
			<path class="st0" d="M611.5,231.7c0,5.5-4.5,10-10,10h-280c-5.5,0-10-4.5-10-10v-50c0-5.5,4.5-10,10-10h280c5.5,0,10,4.5,10,10
				V231.7z"/>
			<path class="st3" d="M611.5,231.7c0,5.5-4.5,10-10,10h-280c-5.5,0-10-4.5-10-10v-50c0-5.5,4.5-10,10-10h280c5.5,0,10,4.5,10,10
				V231.7z"/>
		</g>
		<g>
			<path class="st4" d="M422.9,215.1v-5.9h17.6v5.9h3v2.2h-23.7v-2.2H422.9z M430.9,198.7v3.3c1.7-2,3.1-5,3.8-7.8l2.5,0.8
				c0.2,0.1,0.5,0.2,0.5,0.4c0,0.4-0.5,0.4-0.9,0.4c-0.2,0.7-0.4,1.1-0.7,1.9h7.4v2.4H435c-0.9,1.8-1.4,2.5-1.7,3
				c-1-0.7-1.5-0.9-2.4-1.1v2.3h-3v1.6h4.2v2h-11.2v-12.8h11.2v2h-4.2v1.6H430.9z M425.7,198.7v-1.6h-2.5v1.6H425.7z M423.2,200.5
				v2.1h5.4v-2.1H423.2z M423.2,204.3v1.6h2.5v-1.6H423.2z M428,215.1v-3.8h-2.6v3.8H428z M433,215.1v-3.8h-2.7v3.8H433z
				 M442.3,206.8h-8.2v-2.4h8.2V206.8z M438,215.1v-3.8h-2.8v3.8H438z"/>
			<path class="st4" d="M461.5,204.2H459v-4.1c-1.2,1.1-4.2,4.1-9.3,6.3c-0.5-0.8-0.9-1.2-1.9-2c4.6-1.8,7.7-3.9,9.7-5.6h-9.2v-2.2
				H459v-2.6l2.5,0.2c0.3,0,0.6,0.2,0.6,0.3c0,0.3-0.3,0.4-0.6,0.5v1.6h10.8v2.2h-9.4c0.5,0.4,4,3.5,9.7,5.5
				c-0.3,0.3-0.9,0.8-1.7,2.1c-1.7-0.7-6-2.5-9.5-6.2V204.2z M472.2,215.3v2.1h-23.9v-2.1h4.9v-10.5h14.3v10.5H472.2z M464.8,208.4
				v-1.5h-9v1.5H464.8z M464.8,211.9v-1.6h-9v1.6H464.8z M464.8,215.3v-1.6h-9v1.6H464.8z"/>
			<path class="st4" d="M484.6,201.9h-0.2c-0.5,0.9-0.6,1.1-1.9,2.9c0.6,0.2,0.8,0.3,0.8,0.5c0,0.1-0.2,0.3-0.5,0.4v12.4h-2.7v-10.5
				c-1.2,1.4-1.6,1.7-2,2.1c-0.6-0.8-1.3-1.4-2.1-1.9c1.5-1.1,4.3-3.6,6.6-8l2.3,1.2c0.2,0.1,0.3,0.3,0.3,0.4
				C485.1,201.8,484.8,201.9,484.6,201.9z M483.9,195.9c-1.3,2-3.2,4.1-5.5,5.7c-0.3-0.3-1-1.1-2-1.7c2.4-1.8,4.1-3.5,5.7-5.9
				l2.1,1.2c0.2,0.1,0.3,0.2,0.3,0.4C484.5,195.8,484.3,195.9,483.9,195.9z M496.8,204.2c-2.3,0-3.7-0.3-3.7-2.6v-4.1h-3.3
				c-0.2,3.2-0.3,5.1-2.9,7.9h10.4l1.1,1.1c-1.1,2.6-2.9,5.1-4.6,6.7c0.5,0.3,3.4,2.1,6.7,2.5c-1.1,1.3-1.3,1.9-1.5,2.4
				c-2.6-0.5-4.7-1.5-7.2-3.2c-2.3,1.7-4.5,2.6-6.6,3.2c-0.5-1.2-1.1-1.8-1.5-2.2c2.6-0.5,5.1-1.9,6.1-2.6c-0.7-0.6-1.4-1.3-3.4-4.1
				l2.2-1.4h-3.4v-2.4h1.7c-0.8-0.8-1.6-1.2-2.2-1.5c2.2-2.2,2.5-3.4,2.4-8.9h8.7v5.9c0,0.4,0.1,0.7,1.2,0.7c0.9,0,1.2,0,1.5-2.4
				c0.3,0.3,1,1,2.2,1.1C500.2,204.1,498.9,204.2,496.8,204.2z M488.6,207.9c1.1,1.8,2,2.9,3.3,3.9c1.4-1.3,2.1-2.2,3-3.9H488.6z"/>
		</g>
	</g>
	<g>
		<g>
			<path class="st0" d="M611.5,371.7c0,5.5-4.5,10-10,10h-280c-5.5,0-10-4.5-10-10v-50c0-5.5,4.5-10,10-10h280c5.5,0,10,4.5,10,10
				V371.7z"/>
			<path class="st3" d="M611.5,371.7c0,5.5-4.5,10-10,10h-280c-5.5,0-10-4.5-10-10v-50c0-5.5,4.5-10,10-10h280c5.5,0,10,4.5,10,10
				V371.7z"/>
		</g>
		<g>
			<path class="st4" d="M414.7,338.5v2.5h-2.8v4.5c1.2-0.4,1.6-0.6,2.7-1.1c0,0.3-0.1,0.6-0.1,1.1c0,0.8,0.1,1,0.1,1.3
				c-1.1,0.5-2.5,1.1-2.8,1.2v7.2c0,2.1-0.4,3.1-4.7,3c-0.1-0.5-0.2-1.7-0.9-2.8c0.7,0.1,1.1,0.2,1.6,0.2c1.2,0,1.2-0.2,1.2-1.5V349
				c-1,0.4-1.7,0.6-2.7,0.9c0,0.2-0.1,0.7-0.5,0.7c-0.2,0-0.3-0.3-0.3-0.5l-0.5-2.6c2-0.5,2.5-0.7,4-1.2V341h-3.7v-2.5h3.7v-4.3
				l2.8,0.2c0.4,0,0.5,0.2,0.5,0.4c0,0.3-0.3,0.5-0.7,0.6v3.2H414.7z M426.9,343.9l1.1,1.1c-1,3.4-3.4,6.4-4.7,7.8
				c1.5,1.2,3.5,2.4,6.5,3.2c-1.2,1.2-1.5,1.7-1.7,2.3c-2.7-0.8-5.2-2.4-6.8-3.7c-1.4,1.1-3.7,2.8-6.6,3.8c-0.6-1.2-1.1-1.8-1.6-2.4
				c1-0.3,3.2-0.9,6.5-3.2c-1.9-2.3-2.5-3.4-3.1-4.6l2.1-1.4c0.4,0.8,1.2,2.5,2.9,4.3c0.6-0.6,2.4-2.6,3.1-4.9h-8.8v-2.4h4.6v-3.1
				h-4.9v-2.5h4.9v-4.1l2.9,0.2c0.1,0,0.4,0.1,0.4,0.3c0,0.3-0.3,0.4-0.6,0.5v3h6.2v2.5h-6.2v3.1H426.9z"/>
			<path class="st4" d="M441.1,339.6h3.6v-5.4l2.3,0.1c0.6,0,0.6,0.2,0.6,0.3c0,0.2-0.1,0.3-0.5,0.5v4.5h3.5v1.8h7.5v2.4h-1.9v11.6
				c0,2.9-2.2,2.9-3.8,2.9c-0.3,0-0.9,0-1.2-0.1c-0.1-1.1-0.3-1.7-0.9-2.7c0.4,0.1,1,0.2,2,0.2c1.1,0,1.3-0.2,1.3-1v-10.8h-3.5V342
				h-3v16.2h-2.5V342h-3.6v-0.8c-0.2,0.4-0.5,1.2-1.5,2.7c0.5,0.2,0.5,0.2,0.5,0.4c0,0.2-0.2,0.3-0.5,0.4v13.3H437v-10.8
				c-0.8,0.9-1.1,1.2-1.5,1.6c-0.8-0.8-1.1-1.1-2.1-1.6c2.2-1.6,4.5-4.8,6-7.7l1.7,0.9V339.6z M441.2,335.7c0.1,0.1,0.3,0.2,0.3,0.4
				c0,0.3-0.2,0.3-0.8,0.3c-2.1,2.4-4.2,3.9-5,4.5c-0.6-0.9-1-1.2-2-1.7c0.9-0.5,3.2-1.9,5.5-4.7L441.2,335.7z M443.8,344.5
				c0.2,0,0.7,0.1,0.7,0.4c0,0.2-0.1,0.3-0.6,0.4c-0.2,2.9-0.5,5.4-1.5,8.3c-0.8-0.4-1.2-0.5-2.2-0.6c1.1-3.2,1.4-5.2,1.5-8.7
				L443.8,344.5z M449.3,334.9c0.7,1.6,0.9,2.2,1.2,3.5c-0.6,0.2-1.3,0.4-2,0.8c-0.3-1.6-0.5-2.2-1.1-3.5L449.3,334.9z M450.1,344.2
				c0.2,0.8,1.2,4.6,1.3,8.2c-0.8,0.1-1.5,0.4-2.2,0.7c-0.2-2.6-0.5-5.4-1.2-8.5L450.1,344.2z M457.7,338.1h-6.8v-2.4h6.8V338.1z"/>
			<path class="st4" d="M474.7,346.5v1.7h-2.4v1.3h1.8v1.5h-1.8v1.3h1.8v1.4h-1.8v1.4h2.5v1c1.8-1.5,2.8-2.7,3.1-3.2h-2.6v-13.3h3
				c0.1-0.4,0.5-1.4,0.8-2.4H475v-2.2h11.4v2.2h-4.8c-0.3,0.8-0.6,1.7-0.9,2.4h4.8v13.3H483c1.4,1.7,2.7,2.7,4.2,3.8
				c-0.7,0.5-1.1,0.9-1.8,1.7c-1.2-0.9-2.8-2.3-4.4-4.3l1.4-1.2h-4.3l1.7,1.3c0.2,0.1,0.3,0.2,0.3,0.4c0,0.2-0.2,0.3-0.3,0.3
				c-0.1,0-0.3,0-0.4-0.1c-1.5,2-3.2,3.2-3.8,3.7c-0.3-0.4-0.9-1.1-1.8-1.6h-5v1.3h-2v-7.9c-0.1,0.1-0.1,0.2-0.3,0.5
				c-0.2-0.3-0.3-0.3-0.5-0.5c-0.1,2.4-0.8,5.4-1.8,7.6c-0.8-0.6-1.4-1-2.1-1.2c1.7-3.1,1.8-6,1.8-9v-9.4h10.6v5.8h-2.5l1.5,0.8
				c0.2,0.1,0.5,0.2,0.5,0.4s-0.3,0.3-0.6,0.3c-0.2,0.3-0.4,0.7-0.7,1.1H474.7z M474.4,334.9v2h-11.6v-2H474.4z M466,339.9v2.1h6
				v-2.1H466z M470.4,346.5c0.9-1.5,1.2-2.2,1.3-2.7H466v4.3c0.9-1.2,1.5-2.4,2.2-4.2l1.7,0.7c0.2,0.1,0.3,0.2,0.3,0.3
				c0,0.3-0.3,0.4-0.6,0.4c-0.1,0.2-0.4,0.8-0.6,1.1H470.4z M468.8,349.5h1.7v-1.3h-1.7V349.5z M468.8,352.2h1.7v-1.3h-1.7V352.2z
				 M468.8,355h1.7v-1.4h-1.7V355z M483.3,343.2v-1.8h-5.5v1.8H483.3z M477.7,345.1v1.8h5.5v-1.8H477.7z M477.7,348.8v1.9h5.5v-1.9
				H477.7z"/>
			<path class="st4" d="M501.7,334.8v9.2h-6.9v14h-2.7v-23.2H501.7z M499.3,338.5v-1.7h-4.4v1.7H499.3z M494.8,340.3v1.8h4.4v-1.8
				H494.8z M500.6,355.7H498V346h9.8v7.6h-7.2V355.7z M505.3,351.5v-3.3h-4.6v3.3H505.3z M513.7,334.9v20.3c0,2.8-2,3-3.8,3
				c-0.3,0-0.5,0-0.8-0.1c-0.1-1-0.4-1.9-1.1-3c0.6,0.2,1.2,0.2,1.8,0.2c1.1,0,1.2-0.2,1.2-1.1v-10.2h-6.9v-9.2H513.7z M511.1,338.6
				v-1.8h-4.5v1.8H511.1z M506.6,340.4v1.7h4.5v-1.7H506.6z"/>
		</g>
	</g>
	<g>
		<g>
			<path class="st0" d="M611.5,511.7c0,5.5-4.5,10-10,10h-280c-5.5,0-10-4.5-10-10v-50c0-5.5,4.5-10,10-10h280c5.5,0,10,4.5,10,10
				V511.7z"/>
			<path class="st5" d="M611.5,511.7c0,5.5-4.5,10-10,10h-280c-5.5,0-10-4.5-10-10v-50c0-5.5,4.5-10,10-10h280c5.5,0,10,4.5,10,10
				V511.7z"/>
		</g>
		<g>
			<path class="st6" d="M366.6,496.6v1.6H364v-11.7h9.9v11.1h-2.6v-1H366.6z M371.3,494.3v-5.4h-4.6v5.4H371.3z M381.8,475.1v9.4
				h-13.3v-9.4H381.8z M371.2,477.4v4.8h7.8v-4.8H371.2z M378.8,496.6v1.6h-2.7v-11.7h10.2v11.7h-2.6v-1.6H378.8z M383.6,494.3v-5.4
				h-4.9v5.4H383.6z"/>
			<path class="st6" d="M400.3,483.3h-2.4v-3h-2.1c-0.3,1.6-1,3.1-2.4,4.6c-0.5-0.5-1.1-0.9-2.3-1.2c2-1.8,2.4-4.1,2.4-6.4V475
				l1.5,0.3c1.7,0.1,4.6-0.6,5.9-1.1l1.1,1.8c0.1,0.1,0.1,0.3,0.1,0.3c0,0.1-0.1,0.2-0.2,0.2c-0.2,0-0.3-0.1-0.7-0.3
				c-2.2,0.5-3.4,0.7-5.3,0.9c0,0.8,0,0.8,0,1.2h6.8v1.9h-2.5V483.3z M411.4,483.9v10h-3c1.2,0.7,3,1.7,6,2.3
				c-0.5,0.5-1.3,1.6-1.6,2.2c-1.6-0.4-4.6-1.5-7.7-3.5l1-0.9h-6.8l1.1,0.9c0.2,0.2,0.3,0.3,0.3,0.4c0,0.3-0.3,0.3-0.4,0.3
				c-0.2,0-0.2,0-0.5-0.1c-1.9,1-4,2.1-6.8,2.9c-0.2-0.4-0.5-1.1-1.5-2.1c0.5-0.1,3.4-0.8,5.9-2.3h-2.7v-10h8.9
				c-0.4-0.5-1.4-1.1-2.1-1.4c1.7-1.4,2.4-2.6,2.4-5.9V475l1.2,0.2c2,0,4.8-0.5,6.7-1.1l1.3,1.8c0,0.1,0.2,0.3,0.2,0.4
				c0,0.1-0.1,0.2-0.3,0.2c-0.2,0-0.5-0.1-0.6-0.2c-2.1,0.4-4.4,0.7-6.1,0.8c0,0.4,0,1,0,1.3h8.4v1.9h-3.9v3h-2.5v-3H406
				c-0.4,1.3-1.2,2.7-2.2,3.6H411.4z M397.4,486.8h11.3v-1.1h-11.3V486.8z M408.7,488.3h-11.3v1.1h11.3V488.3z M408.7,490.8h-11.3
				v1.2h11.3V490.8z"/>
			<path class="st6" d="M434.4,478.2c-0.7,1.1-1,1.5-1.3,1.9c0.3,0,0.7,0,0.7,0.3c0,0.3-0.3,0.3-0.5,0.4v0.8h10.1v5.1h-2.5v-3.2
				h-17.8v3.2h-2.5v-5.1h9.9v-1.7l2.1,0.1c-0.8-0.5-1.6-0.8-2-0.9c0.4-0.4,0.6-0.7,0.8-1h-3.4c0.2,0.5,0.5,1.6,0.7,2.7
				c-0.7,0-2.1,0.2-2.7,0.3c-0.2-1.1-0.4-2.2-0.7-3h-1.5c-1.2,1.7-1.8,2.3-2.2,2.7c-0.5-0.4-1.2-0.8-2.2-1.2c1.6-1.6,3-3.4,3.9-5.6
				l2.4,0.7c0.2,0.1,0.4,0.1,0.4,0.3c0,0.3-0.5,0.4-0.8,0.4c-0.2,0.4-0.2,0.5-0.4,0.7h6.5v1.7c0.9-1.2,1.5-2.3,2.1-3.9l2.6,0.7
				c0.2,0.1,0.4,0.1,0.4,0.4c0,0.3-0.4,0.3-0.8,0.3c-0.2,0.4-0.2,0.5-0.4,0.8h8.2v2h-5.2c0.5,1.5,0.6,1.9,0.7,2.6
				c-1.2,0-2,0.1-2.8,0.3c-0.1-0.6-0.2-1.5-0.6-2.9H434.4z M427.2,497.2v0.9h-2.6v-13.4h15.1v5.4h-12.5v1.4H441v6.6h-2.5v-0.9H427.2
				z M437.2,486.5h-10v1.7h10V486.5z M438.4,495.1v-1.8h-11.3v1.8H438.4z"/>
			<path class="st6" d="M454.3,484h2.6v2.3h-2.6v5.6c2.3-0.7,2.5-0.8,3.2-1.1c-0.2,0.8-0.2,1.1-0.2,2.5c-1.5,0.7-5.1,1.8-7.9,2.7
				c-0.2,0.5-0.3,0.6-0.5,0.6c-0.2,0-0.4-0.1-0.5-0.6l-0.6-2.3c1.7-0.3,3.4-0.8,3.7-0.9v-6.4h-2.7V484h2.7v-5.8h-3.2v-2.3h9v2.3
				h-3.1V484z M472.5,495.1v2.3H457v-2.3h6.6v-2.9h-4.7v-2.3h4.7v-2.8h-5v-11.9h12.8v11.9h-5.3v2.8h5.1v2.3h-5.1v2.9H472.5z
				 M463.6,480.2v-2.8h-2.7v2.8H463.6z M460.9,482.2v2.8h2.7v-2.8H460.9z M468.9,480.2v-2.8h-2.8v2.8H468.9z M466.1,482.2v2.8h2.8
				v-2.8H466.1z"/>
			<path class="st6" d="M498.7,475.9v1.8h-8.8v1.2h7.1v1.6h-7.1v1.3h10.5v1.8h-23.6v-1.8h10.3v-1.3h-7v-1.6h7v-1.2h-8.8v-1.8h8.8
				v-1.7l2.9,0.1c0.3,0,0.7,0,0.7,0.3c0,0.3-0.3,0.4-0.7,0.5v0.7H498.7z M491,494h-4.7l0.8,0.6c0.2,0.2,0.3,0.3,0.3,0.4
				c0,0.2-0.2,0.3-0.4,0.3c-0.1,0-0.3,0-0.5-0.1c-2,1.2-5.2,2.6-7.1,3c-0.3-0.7-0.6-1.2-1.8-2.4c1.7-0.3,3.3-0.5,6-1.9h-3.1v-9.5
				h16.1v9.5h-3.9c2.1,1.1,4.9,1.8,6.5,2c-0.9,0.8-1.4,1.8-1.6,2.2c-2.4-0.5-5.1-1.3-7.7-3.1L491,494z M494.1,487.3v-1.1h-10.9v1.1
				H494.1z M483.1,488.6v1.1h10.9v-1.1H483.1z M483.1,491.1v1.2h10.9v-1.2H483.1z"/>
			<path class="st6" d="M510.8,498.1h-2.7v-13.5c-1.1,1.7-1.6,2.3-2,2.7c-0.7-0.8-1.7-1.5-2.2-1.7c2-2.1,4.8-6.6,6.1-11.6l2.5,0.7
				c0.4,0.1,0.6,0.2,0.6,0.5c0,0.3-0.4,0.4-0.7,0.3c-0.9,2.4-1.3,3.4-1.9,4.7c0.4,0.1,0.8,0.3,0.8,0.5c0,0.2-0.3,0.4-0.6,0.5V498.1z
				 M528,476.2c0.2,0.2,0.3,0.3,0.3,0.5c0,0.2-0.1,0.3-0.3,0.3s-0.4-0.1-0.6-0.2c-0.9,0.4-2.8,1.1-5.3,1.6v6.3h6.8v2.4h-6.8v7.6h6.2
				v2.5h-15.2v-2.5h6.3v-7.6h-7.1v-2.4h7.1v-5.8c-2,0.2-3.4,0.4-5.7,0.4c-0.2-0.9-0.5-1.6-1.2-2.5c0.4,0,0.8,0.1,1.4,0.1
				c0.9,0,6.7,0,12.2-2.6L528,476.2z"/>
			<path class="st6" d="M554.8,475.7c0.2,0.1,0.4,0.2,0.4,0.4c0,0.2-0.1,0.3-0.4,0.3c-0.1,0-0.3,0-0.5-0.1c-0.6,1-2,3.1-4,5.3h6.8
				v2.3H548c-1,1-2.3,1.9-3,2.4h9.2v11.6h-2.7v-1.2h-10v1.2h-2.7v-8.3c-2.5,1.1-3.8,1.5-4.6,1.7c-0.2-0.4-0.6-1.5-1.5-2.5
				c4.5-1,8.6-3.1,11.2-5h-10.6v-2.3h9.6v-2.5h-7.3v-2.3h7.3v-2.6l2.8,0.1c0.3,0,0.5,0.2,0.5,0.3c0,0.2-0.2,0.3-0.6,0.4v1.8h3.9v1.7
				c1.7-2.1,2.4-3.5,2.8-4.2L554.8,475.7z M551.5,490.6v-2h-10v2H551.5z M551.5,494.7v-2.1h-10v2.1H551.5z M546.7,481.7
				c1.3-1.3,2-2,2.4-2.5h-3.4v2.5H546.7z"/>
		</g>
	</g>
	<line class="st7" x1="111.5" y1="91.7" x2="111.5" y2="2166.7"/>
	<g>
		<line class="st0" x1="311.5" y1="486.7" x2="111.5" y2="486.7"/>
		<g>
			<line class="st8" x1="311.5" y1="486.7" x2="307.9" y2="486.7"/>
			<line class="st9" x1="300.8" y1="486.7" x2="118.6" y2="486.7"/>
			<line class="st8" x1="115" y1="486.7" x2="111.5" y2="486.7"/>
		</g>
	</g>
	<g>
		<g>
			<path class="st0" d="M611.5,791.7c0,5.5-4.5,10-10,10h-280c-5.5,0-10-4.5-10-10v-50c0-5.5,4.5-10,10-10h280c5.5,0,10,4.5,10,10
				V791.7z"/>
			<path class="st10" d="M611.5,791.7c0,5.5-4.5,10-10,10h-280c-5.5,0-10-4.5-10-10v-50c0-5.5,4.5-10,10-10h280c5.5,0,10,4.5,10,10
				V791.7z"/>
		</g>
		<g>
			<path class="st11" d="M422.7,769.5c0.2,0,0.4,0.2,0.4,0.4c0,0.2-0.2,0.3-0.5,0.4c-0.3,2-0.6,3.8-1.4,6c-0.7-0.3-1.4-0.5-2.1-0.6
				c0.7-1.5,1.4-4.5,1.5-6.4L422.7,769.5z M428.3,757.8c0.2,0.1,0.5,0.2,0.5,0.4c0,0.2-0.3,0.3-0.7,0.3c-0.5,0.9-2.1,3.7-4.2,6.9
				c2.2-0.1,2.4-0.1,2.7-0.2c-0.1-0.3-0.5-1.7-0.6-2l1.8-0.8c0.5,1.1,1.3,3.5,1.6,4.9c-0.6,0.2-1.4,0.4-2.1,0.8
				c-0.1-0.3-0.1-0.4-0.2-1c-0.2,0-1.1,0.2-1.3,0.2v10.9h-2.5v-10.6c-1.3,0.2-2,0.2-2.7,0.3c-0.2,0.5-0.2,0.7-0.5,0.7
				c-0.3,0-0.4-0.3-0.4-0.6l-0.3-2.4c0.5,0,0.9,0,2,0c0.4-0.5,0.7-1,1.6-2.5c-1.1-1.2-2.4-2.2-3.7-3.2l1.5-2.1
				c0.3,0.2,0.5,0.4,1,0.8c0.1-0.2,1.4-2.6,2.1-4.4l2.2,0.8c0.2,0.1,0.3,0.2,0.3,0.4c0,0.2-0.3,0.3-0.7,0.3c-0.9,1.8-1,2.1-2.3,4.3
				c0.6,0.5,0.8,0.7,1,0.9c1.5-2.7,1.7-2.9,2-3.8L428.3,757.8z M428.5,768.4c0.2,1.7,0.6,3.6,0.8,4.4c0.6-1.6,0.8-2.5,0.8-3l1.6,0.5
				c0.6,0.2,0.8,0.2,0.8,0.5c0,0.3-0.4,0.3-0.6,0.4c-0.4,1.9-1,3.8-1.8,5.5c-0.8-0.5-1-0.6-2-1c0.2-0.4,0.5-0.9,1.1-2.3
				c-0.7,0.2-1,0.4-1.6,0.6c-0.7-2.7-0.9-4.4-1-5.2L428.5,768.4z M434.8,755.4c0.3,0.1,0.5,0.3,0.5,0.5c0,0.2-0.2,0.2-0.8,0.3
				c-1.3,2.4-2.4,4.1-3.9,6c-0.8-0.7-1.1-0.8-2-1.3c1-1.2,3-3.8,3.9-6.3L434.8,755.4z M439.1,761.1c1.6,1.8,3,4.1,3.9,5.8
				c-0.9,0.4-1.4,0.7-2.2,1.3c-0.2-0.4-0.4-1-1.1-2.1c-1.4,0.2-7.3,0.8-8.5,0.9c-0.1,0.1-0.2,0.5-0.6,0.5c-0.2,0-0.3-0.1-0.4-0.4
				l-0.6-2.5c0.4,0,2.2-0.1,2.5-0.1c0.1-0.1,1.8-3.5,2.5-6.5l2.5,0.9c0.3,0.1,0.4,0.2,0.4,0.3c0,0.3-0.1,0.3-0.8,0.5
				c-0.4,0.7-1.9,4-2.3,4.7c2.1-0.2,2.4-0.2,3.8-0.3c-0.7-1.1-1-1.5-1.4-2L439.1,761.1z M434.9,769.4c0.4,0.1,0.9,0.1,0.9,0.5
				c0,0.2-0.1,0.3-0.7,0.4v4.4c0,0.8,0.3,0.8,1.2,0.8c1.4,0,1.5-0.3,1.8-2.4c0.8,0.7,1.2,0.9,2.3,1c-0.8,3.5-1.8,3.6-3.6,3.6
				c-2.8,0-4.3,0-4.3-2.4v-6.3L434.9,769.4z M436.3,766.9c0.9,0.9,2.2,2.4,2.6,3c-1,0.8-1.2,1-1.7,1.6c-0.7-1.1-1.7-2.2-2.5-3.1
				L436.3,766.9z M439.2,754.4c0.9,1.7,2.3,3.8,4.3,5.6c-0.8,0.3-1.6,0.9-2.1,1.4c-1.6-1.5-3.1-3.7-4.2-5.8L439.2,754.4z
				 M441.3,769.6c0.3,0.5,1.7,3,2.3,5.3c-0.6,0.2-1.8,0.9-2.1,1.1c-0.9-2.8-1.6-4.3-2.3-5.4L441.3,769.6z"/>
			<path class="st11" d="M471,767.3c-2.7-0.7-4.6-1.9-5.7-2.8c-0.6,0.5-1.2,1-1.9,1.4l2.6,0.4c0.3,0,0.5,0.1,0.5,0.4
				c0,0.3-0.3,0.4-0.7,0.5c-0.1,0.5-0.1,0.7-0.2,1.2h5.6c0,1.6-0.4,6.5-1.3,8.2c-0.8,1.4-2.4,1.5-4.4,1.5c-0.1-0.8-0.4-1.8-0.9-2.7
				c0.3,0.1,0.9,0.2,1.7,0.2c1,0,1.5-0.2,1.8-1.3c0.1-0.4,0.4-1.8,0.4-3.7h-3.3c-1.3,4.4-4.4,6.7-6,7.6c-0.5-0.8-1.1-1.5-2-1.9
				c2.8-1.3,4.6-3.2,5.4-5.6h-3.8v-2.3h4.3c0.1-0.4,0.2-1.1,0.2-2.1V766c-0.8,0.5-1.6,0.8-2.7,1.3c-0.4-0.8-1-1.6-1.5-2.1
				c-0.6,1.5-1.4,3-1.6,3.5c-0.2-0.2-1.3-1-2.1-1c1-1.4,1.5-2.6,1.6-3.1H455V775c0,2-0.2,3.3-4.4,3.2c-0.2-1.1-0.6-2.2-0.9-2.7
				c0.8,0.2,1.5,0.2,1.8,0.2c1,0,1-0.5,1-1v-6.3c-0.9,2.2-2.3,4-3.1,5c-0.7-0.6-1.3-1.1-2-1.4c1.1-1.1,3.1-3.6,4.4-7.3h-3.7v-2.2
				h5.3c-2.1-1.8-3.6-2.5-4.2-2.8l1.3-1.8c0.8,0.3,1.6,0.7,2.7,1.4c0.6-0.5,0.8-0.8,1.7-1.9h-6.3v-2.1h9.2l0.8,1
				c-1.2,1.6-2.3,2.8-3.7,4.1c0.6,0.5,1,0.8,1.3,1c-0.2,0.3-0.6,0.7-0.9,1.1h3.3l1.1,0.9c-0.1,0.5-0.5,1.4-0.7,2
				c1.7-0.3,3.3-1.2,4.7-2.3c-0.6-0.7-1.5-1.8-2.1-3.2c-0.5,0.7-0.9,1.2-1.7,2c-0.5-0.5-1-0.8-2.1-1.2c2-1.7,3.8-4.7,4.4-6.5
				l2.3,0.6c0.2,0,0.5,0.1,0.5,0.3c0,0.3-0.5,0.4-0.8,0.4c-0.1,0.1-0.5,0.8-0.7,1.2h8.2v2.1h-2c-0.9,1.8-1.7,3-2.8,4.2
				c2.1,1.4,4.1,2,5.5,2.3C471.8,765.8,471.4,766.3,471,767.3z M463.4,758.7c0.4,0.8,0.9,1.7,1.9,2.7c0.6-0.6,1.4-1.6,1.9-2.7H463.4
				z"/>
			<path class="st11" d="M484.1,764.1c0.3-0.5,1.2-2.5,1.7-4.8l2.5,1.1c0.2,0.1,0.3,0.2,0.3,0.4c0,0.3-0.4,0.3-0.7,0.3
				c-0.4,1.2-0.7,1.8-1.4,3.1h3.4v2.2h-13.2v-2.2h3.3c-0.5-1.8-1.4-3.3-1.6-3.8l2.2-1c0.9,1.6,1.3,2.5,1.8,4l-2,0.8H484.1z
				 M489.5,757v2.1h-12V757h4.6v-2.8l2.9,0.1c0.2,0,0.5,0.1,0.5,0.4c0,0.3-0.2,0.3-0.6,0.5v1.8H489.5z M488.5,778.1h-2.7v-1.4H481
				v1.4h-2.7v-10.4h10.2V778.1z M481,770v4.4h4.8V770H481z M500.7,756.7c-0.8,2-1.7,3.8-3.3,7.1c1.2,1.2,3.4,3.4,3.4,6.8
				c0,3.7-2.1,4.9-5.5,5c-0.3-1.5-0.9-2.2-1.6-2.9c1,0.1,1.4,0.1,2,0.1c1.9,0,2.6-0.8,2.6-2.2c0-2.8-2.6-5.4-3.7-6.4
				c1.2-2,2.5-5,2.9-6.4h-3.7v20.3H491v-22.6h8.5L500.7,756.7z"/>
		</g>
	</g>
	<g>
		<g>
			<path class="st0" d="M611.5,931.7c0,5.5-4.5,10-10,10h-280c-5.5,0-10-4.5-10-10v-50c0-5.5,4.5-10,10-10h280c5.5,0,10,4.5,10,10
				V931.7z"/>
			<path class="st10" d="M611.5,931.7c0,5.5-4.5,10-10,10h-280c-5.5,0-10-4.5-10-10v-50c0-5.5,4.5-10,10-10h280c5.5,0,10,4.5,10,10
				V931.7z"/>
		</g>
		<g>
			<path class="st11" d="M394.9,916.6v1.6h-2.7v-11.7h9.9v11.1h-2.6v-1H394.9z M399.5,914.3v-5.4h-4.6v5.4H399.5z M410,895.1v9.4
				h-13.3v-9.4H410z M399.5,897.4v4.8h7.8v-4.8H399.5z M407,916.6v1.6h-2.7v-11.7h10.2v11.7h-2.6v-1.6H407z M411.9,914.3v-5.4H407
				v5.4H411.9z"/>
			<path class="st11" d="M428.6,903.3h-2.4v-3h-2.1c-0.3,1.6-1,3.1-2.4,4.6c-0.5-0.5-1.1-0.9-2.3-1.2c2-1.8,2.4-4.1,2.4-6.4V895
				l1.5,0.3c1.7,0.1,4.6-0.6,5.9-1.1l1.1,1.8c0.1,0.1,0.1,0.3,0.1,0.3c0,0.1-0.1,0.2-0.2,0.2c-0.2,0-0.3-0.1-0.6-0.3
				c-2.2,0.5-3.4,0.7-5.3,0.9c0,0.8,0,0.8,0,1.2h6.8v1.9h-2.5V903.3z M439.6,903.9v10h-3c1.2,0.7,3,1.7,6,2.3
				c-0.5,0.5-1.3,1.6-1.6,2.2c-1.6-0.4-4.6-1.5-7.7-3.5l1-0.9h-6.8l1.1,0.9c0.2,0.2,0.3,0.3,0.3,0.4c0,0.3-0.3,0.3-0.4,0.3
				c-0.2,0-0.2,0-0.5-0.1c-1.9,1-4,2.1-6.8,2.9c-0.2-0.4-0.5-1.1-1.5-2.1c0.5-0.1,3.4-0.8,5.9-2.3H423v-10h8.9
				c-0.4-0.5-1.4-1.1-2.1-1.4c1.7-1.4,2.4-2.6,2.4-5.9V895l1.2,0.2c2,0,4.8-0.5,6.7-1.1l1.3,1.8c0,0.1,0.2,0.3,0.2,0.4
				c0,0.1-0.1,0.2-0.3,0.2c-0.2,0-0.5-0.1-0.6-0.2c-2.1,0.4-4.4,0.7-6.1,0.8c0,0.4,0,1,0,1.3h8.4v1.9h-3.9v3h-2.5v-3h-2.4
				c-0.4,1.3-1.2,2.7-2.2,3.6H439.6z M425.7,906.8H437v-1.1h-11.3V906.8z M437,908.3h-11.3v1.1H437V908.3z M437,910.8h-11.3v1.2H437
				V910.8z"/>
			<path class="st11" d="M462.6,898.2c-0.6,1.1-1,1.5-1.3,1.9c0.3,0,0.7,0,0.7,0.3c0,0.3-0.3,0.3-0.5,0.4v0.8h10.1v5.1H469v-3.2
				h-17.8v3.2h-2.5v-5.1h9.9v-1.7l2.1,0.1c-0.8-0.5-1.6-0.8-2-0.9c0.4-0.4,0.6-0.7,0.8-1h-3.4c0.2,0.5,0.5,1.6,0.7,2.7
				c-0.7,0-2.1,0.2-2.7,0.3c-0.2-1.1-0.4-2.2-0.7-3H452c-1.2,1.7-1.8,2.3-2.2,2.7c-0.5-0.4-1.2-0.8-2.2-1.2c1.6-1.6,3-3.4,3.9-5.6
				l2.4,0.7c0.2,0.1,0.4,0.1,0.4,0.3c0,0.3-0.5,0.4-0.8,0.4c-0.2,0.4-0.2,0.5-0.4,0.7h6.5v1.7c0.9-1.2,1.5-2.3,2.1-3.9l2.6,0.7
				c0.2,0.1,0.4,0.1,0.4,0.4c0,0.3-0.4,0.3-0.8,0.3c-0.2,0.4-0.2,0.5-0.4,0.8h8.2v2h-5.2c0.5,1.5,0.6,1.9,0.7,2.6
				c-1.2,0-1.9,0.1-2.8,0.3c-0.1-0.6-0.2-1.5-0.6-2.9H462.6z M455.5,917.2v0.9h-2.6v-13.4h15.1v5.4h-12.5v1.4h13.8v6.6h-2.5v-0.9
				H455.5z M465.4,906.5h-10v1.7h10V906.5z M466.7,915.1v-1.8h-11.3v1.8H466.7z"/>
			<path class="st11" d="M482.5,904h2.6v2.3h-2.6v5.6c2.3-0.7,2.5-0.8,3.2-1.1c-0.2,0.8-0.2,1.1-0.2,2.5c-1.5,0.7-5.1,1.8-7.9,2.7
				c-0.2,0.5-0.3,0.6-0.5,0.6c-0.2,0-0.4-0.1-0.5-0.6l-0.6-2.3c1.7-0.3,3.4-0.8,3.7-0.9v-6.4h-2.7V904h2.7v-5.8h-3.2v-2.3h9v2.3
				h-3.1V904z M500.7,915.1v2.3h-15.4v-2.3h6.6v-2.9h-4.7v-2.3h4.7v-2.8h-5v-11.9h12.8v11.9h-5.3v2.8h5.1v2.3h-5.1v2.9H500.7z
				 M491.8,900.2v-2.8h-2.7v2.8H491.8z M489.2,902.2v2.8h2.7v-2.8H489.2z M497.2,900.2v-2.8h-2.8v2.8H497.2z M494.3,902.2v2.8h2.8
				v-2.8H494.3z"/>
			<path class="st11" d="M512.2,904.1c0.3-0.5,1.2-2.5,1.7-4.8l2.5,1.1c0.2,0.1,0.3,0.2,0.3,0.4c0,0.3-0.4,0.3-0.7,0.3
				c-0.4,1.2-0.7,1.8-1.4,3.1h3.4v2.2h-13.2v-2.2h3.3c-0.5-1.8-1.4-3.3-1.6-3.8l2.2-1c0.9,1.6,1.3,2.5,1.8,4l-2,0.8H512.2z
				 M517.5,897v2.1h-12V897h4.6v-2.8l2.9,0.1c0.2,0,0.5,0.1,0.5,0.4c0,0.3-0.2,0.3-0.6,0.5v1.8H517.5z M516.6,918.1h-2.7v-1.4h-4.8
				v1.4h-2.7v-10.4h10.2V918.1z M509.1,910v4.4h4.8V910H509.1z M528.7,896.7c-0.8,2-1.7,3.8-3.3,7.1c1.2,1.2,3.4,3.4,3.4,6.8
				c0,3.7-2.1,4.9-5.5,5c-0.3-1.5-0.9-2.2-1.6-2.9c1,0.1,1.4,0.1,2,0.1c1.9,0,2.6-0.8,2.6-2.2c0-2.8-2.6-5.4-3.7-6.4
				c1.2-2,2.5-5,2.9-6.4h-3.7v20.3H519v-22.6h8.5L528.7,896.7z"/>
		</g>
	</g>
	<g>
		<g>
			<path class="st0" d="M611.5,1071.7c0,5.5-4.5,10-10,10h-280c-5.5,0-10-4.5-10-10v-50c0-5.5,4.5-10,10-10h280c5.5,0,10,4.5,10,10
				V1071.7z"/>
			<path class="st8" d="M611.5,1071.7c0,5.5-4.5,10-10,10h-280c-5.5,0-10-4.5-10-10v-50c0-5.5,4.5-10,10-10h280c5.5,0,10,4.5,10,10
				V1071.7z"/>
		</g>
		<g>
			<path d="M405,1051.4h4.3v2.5H405v4.2h-2.7v-4.2h-4.2v-2.5h4.2v-7c-2.8,5.7-6.3,9.1-8.6,11.1c-0.3-0.4-0.8-1-2.5-2
				c6.3-4.5,9.5-10.5,10.1-11.8h-9.5v-2.3h10.6v-5.2l2.5,0.2c0.3,0,0.7,0.1,0.7,0.4c0,0.2-0.2,0.4-0.6,0.5v4.2h10.6v2.3H406
				c2.1,3.9,5.4,8,10.2,11.4c-1,0.8-1.5,1.1-2.1,2.1c-3.8-2.9-6.9-6.7-9-11V1051.4z"/>
			<path d="M427,1058.1h-2.7v-8.1c-1.3,1.2-2.3,1.9-3,2.5c-0.5-1.1-1.1-1.7-1.8-2.2c3-1.8,6.5-5.3,7.8-8.1h-6.9v-2.5h3.9v-5.2
				l2.6,0.1c0.3,0,0.6,0.2,0.6,0.4s-0.3,0.3-0.5,0.4v4.3h2.8l1.2,1.1c-1.5,3.1-2,3.8-2.9,5c1.5,1.6,3.2,2.8,4.2,3.4
				c-0.6,0.5-1.3,1.4-1.7,2.1c-0.6-0.4-2-1.4-3.6-3.1V1058.1z M430.9,1044.9v-2.7h4.8v-7.9l3,0.2c0.2,0,0.4,0.1,0.4,0.3
				c0,0.2-0.2,0.3-0.6,0.4v7h5v2.7h-5v9.7h5.5v2.5h-14.3v-2.5h6v-9.7H430.9z"/>
			<path d="M459,1038.5c-0.4-0.8-1.4-2.3-2.3-3.3l2.2-1.2c0.7,0.8,1.8,2.3,2.5,3.5c-1.3,0.6-1.5,0.8-1.8,1h3.3c1.7-2,2.5-3.3,3-4.1
				l2.2,1.2c0.1,0.1,0.3,0.2,0.3,0.4c0,0.3-0.1,0.3-0.8,0.3c-0.7,1.1-1.1,1.5-1.7,2.2h5.6v5.8h-2.8v-3.6h-17.2v3.6h-2.8v-5.8h4.4
				c-0.3-0.6-1.4-2.1-2.1-2.8l2.2-1.1c0.6,0.7,1.8,2.3,2.4,3.2c-0.7,0.4-0.8,0.4-1.3,0.8H459z M469.1,1050.4v7.7h-2.7v-0.9h-12.6
				v0.9h-2.7v-7.7h6.5c0.1-0.1,0.8-1.5,0.9-1.8h-5.1v-6.5h13.2v6.5h-5.2c-0.4,0.8-0.6,1.2-0.9,1.8H469.1z M466.5,1055.1v-2.6h-12.6
				v2.6H466.5z M456.2,1044.1v2.4h7.9v-2.4H456.2z"/>
			<path d="M489.6,1058.2h-2.5v-5.6c-2.7,2.4-6.2,4.6-8.2,5.4c-0.9-1.2-1.5-1.6-2-1.9c3.7-1.3,7.2-3.5,8.9-5h-9.3v-2.1h10.5v-1.3
				h-7.5v-2h7.5v-1.2h-9.2v-2.1h6c-0.1-0.2-0.5-1.1-1-1.9l1.4-0.4h-7.7v-2.1h4.3c-0.6-1-1.2-1.8-1.5-2.2l2.1-1.3
				c0.5,0.8,1.3,1.8,1.9,2.9c-0.2,0.1-0.7,0.2-1.3,0.5h2.5v-3.6l2.5,0.1c0.2,0,0.5,0.1,0.5,0.3c0,0.3-0.2,0.3-0.5,0.4v2.7h2.3v-3.5
				l2.5,0.1c0.2,0,0.5,0.1,0.5,0.3c0,0.3-0.4,0.4-0.5,0.5v2.6h2.6c-0.5-0.3-0.9-0.4-1.5-0.5c1-1.5,1.4-2,1.7-2.9l2.6,1
				c0.1,0.1,0.2,0.2,0.2,0.3c0,0.3-0.3,0.4-0.8,0.3c-0.4,0.6-0.8,1.2-1.3,1.9h4.6v2.1h-5.7c0.1,0.1,0.2,0.2,0.2,0.3
				c0,0.2-0.1,0.4-0.8,0.4c-0.3,0.6-0.6,1.2-0.8,1.7h5.5v2.1h-9v1.2h7.3v2h-7.3v1.3h10.6v2.1H491c1.7,1.6,4.6,3.4,8.9,4.8
				c-1.1,0.9-1.5,1.4-1.8,2c-2-0.7-5.9-2.8-8.5-5.4V1058.2z M485.4,1040c0.4,0.7,0.8,1.4,1,2c-0.2,0-0.8,0.2-1.6,0.4h5.5
				c0.4-0.7,0.8-1.5,1.1-2.4H485.4z"/>
			<path d="M511.8,1044.1c0.3-0.5,1.2-2.5,1.7-4.8l2.5,1.1c0.2,0.1,0.3,0.2,0.3,0.4c0,0.3-0.4,0.3-0.6,0.3c-0.4,1.2-0.7,1.8-1.4,3.1
				h3.4v2.2h-13.2v-2.2h3.3c-0.5-1.8-1.4-3.3-1.6-3.8l2.2-1c0.9,1.6,1.3,2.5,1.8,4l-2,0.8H511.8z M517.2,1037v2.1h-12v-2.1h4.6v-2.8
				l2.9,0.1c0.2,0,0.5,0.1,0.5,0.4c0,0.3-0.2,0.3-0.6,0.5v1.8H517.2z M516.2,1058.1h-2.7v-1.4h-4.8v1.4H506v-10.4h10.2V1058.1z
				 M508.7,1050v4.4h4.8v-4.4H508.7z M528.4,1036.7c-0.8,2-1.7,3.8-3.3,7.1c1.2,1.2,3.4,3.4,3.4,6.8c0,3.7-2.1,4.9-5.5,5
				c-0.3-1.5-0.9-2.2-1.6-2.9c1,0.1,1.4,0.1,1.9,0.1c1.9,0,2.6-0.8,2.6-2.2c0-2.8-2.6-5.4-3.7-6.4c1.2-2,2.5-5,2.9-6.4h-3.7v20.3
				h-2.6v-22.6h8.5L528.4,1036.7z"/>
		</g>
	</g>
	<g>
		<g>
			<path class="st0" d="M1111.5,1071.7c0,5.5-4.5,10-10,10h-280c-5.5,0-10-4.5-10-10v-50c0-5.5,4.5-10,10-10h280c5.5,0,10,4.5,10,10
				V1071.7z"/>
			<path class="st8" d="M1111.5,1071.7c0,5.5-4.5,10-10,10h-280c-5.5,0-10-4.5-10-10v-50c0-5.5,4.5-10,10-10h280c5.5,0,10,4.5,10,10
				V1071.7z"/>
		</g>
		<g>
			<path d="M892.4,1038.5c-0.4-0.8-1.4-2.3-2.3-3.3l2.2-1.2c0.7,0.8,1.8,2.3,2.5,3.5c-1.3,0.6-1.5,0.8-1.8,1h3.3
				c1.7-2,2.5-3.3,3-4.1l2.2,1.2c0.1,0.1,0.3,0.2,0.3,0.4c0,0.3-0.1,0.3-0.8,0.3c-0.7,1.1-1.1,1.5-1.7,2.2h5.6v5.8h-2.8v-3.6H885
				v3.6h-2.8v-5.8h4.4c-0.3-0.6-1.4-2.1-2.1-2.8l2.2-1.1c0.6,0.7,1.8,2.3,2.4,3.2c-0.7,0.4-0.8,0.4-1.3,0.8H892.4z M902.6,1050.4
				v7.7h-2.7v-0.9h-12.6v0.9h-2.7v-7.7h6.5c0.1-0.1,0.8-1.5,0.9-1.8h-5.1v-6.5h13.2v6.5H895c-0.4,0.8-0.6,1.2-0.9,1.8H902.6z
				 M899.9,1055.1v-2.6h-12.6v2.6H899.9z M889.6,1044.1v2.4h7.9v-2.4H889.6z"/>
			<path d="M923,1058.2h-2.5v-5.6c-2.7,2.4-6.2,4.6-8.2,5.4c-0.9-1.2-1.5-1.6-2-1.9c3.7-1.3,7.2-3.5,8.9-5H910v-2.1h10.5v-1.3H913
				v-2h7.5v-1.2h-9.2v-2.1h6c-0.1-0.2-0.5-1.1-1-1.9l1.4-0.4H910v-2.1h4.3c-0.6-1-1.2-1.8-1.5-2.2l2.1-1.3c0.5,0.8,1.3,1.8,1.9,2.9
				c-0.2,0.1-0.7,0.2-1.3,0.5h2.5v-3.6l2.5,0.1c0.2,0,0.5,0.1,0.5,0.3c0,0.3-0.2,0.3-0.5,0.4v2.7h2.3v-3.5l2.5,0.1
				c0.2,0,0.5,0.1,0.5,0.3c0,0.3-0.4,0.4-0.5,0.5v2.6h2.6c-0.5-0.3-0.9-0.4-1.5-0.5c1-1.5,1.4-2,1.7-2.9l2.6,1
				c0.1,0.1,0.2,0.2,0.2,0.3c0,0.3-0.3,0.4-0.8,0.3c-0.4,0.6-0.8,1.2-1.3,1.9h4.6v2.1h-5.7c0.1,0.1,0.2,0.2,0.2,0.3
				c0,0.2-0.1,0.4-0.8,0.4c-0.3,0.6-0.6,1.2-0.8,1.7h5.5v2.1h-9v1.2h7.3v2H923v1.3h10.6v2.1h-9.2c1.7,1.6,4.5,3.4,8.9,4.8
				c-1.1,0.9-1.5,1.4-1.8,2c-2-0.7-5.9-2.8-8.5-5.4V1058.2z M918.8,1040c0.4,0.7,0.8,1.4,1,2c-0.2,0-0.8,0.2-1.6,0.4h5.5
				c0.4-0.7,0.8-1.5,1.1-2.4H918.8z"/>
			<path d="M955.5,1038.7c0.8,0,1.3-0.2,1.8-0.4l1.5,1.4c-0.4,0.6-0.5,0.9-0.8,1.6c-2.2,5-3.6,8.3-7.1,11.9
				c-3.2,3.3-6.4,4.7-7.7,5.2c-0.7-0.8-1-1.1-2.1-2c8-3.2,11.6-8.4,13.8-15.2h-8.1c-1.8,2.6-3.6,4.8-6.4,7.3
				c-1.1-1.1-1.1-1.2-2.1-1.9c3.8-3,7.2-7.3,8.9-11.9l2.5,1.1c0.1,0.1,0.4,0.2,0.4,0.4c0,0.3-0.4,0.3-0.6,0.3
				c-0.3,0.5-0.4,0.9-1.1,2.2H955.5z M954.3,1033.8c0.6,0.6,1.7,1.7,2.4,2.5c-0.3,0.2-1,0.6-1.6,1.1c-1.1-1.4-1.8-2.1-2.3-2.5
				L954.3,1033.8z M958.2,1033.5c0.8,0.8,1.9,2.1,2.4,2.7c-0.4,0.3-0.5,0.3-1.6,1.1c-0.2-0.3-1.2-1.7-2.3-2.7L958.2,1033.5z"/>
			<path d="M970.8,1036.4c0.3,0,0.6,0,0.6,0.3c0,0.3-0.3,0.4-0.5,0.5v6.4c0,5.3-1.5,8.7-6.5,12.2c-0.5-0.7-0.9-1-2.2-1.9
				c5.2-3,5.9-6.2,5.9-10.1v-7.6L970.8,1036.4z M977.1,1036.2c0.3,0,0.5,0,0.5,0.3c0,0.2-0.3,0.3-0.5,0.5v14.8
				c3.2-1.9,6.3-4.9,8.3-7.8c0.7,1.5,0.8,1.7,1.4,2.4c-3,4.2-7.4,7.3-9.2,8.6c-0.9,0.6-1,0.7-1.5,1.1l-1.9-1.3
				c0.1-0.5,0.1-1.3,0.1-2V1036L977.1,1036.2z"/>
			<path d="M1013.9,1044.9v2.8h-22.2v-2.8H1013.9z"/>
			<path d="M1032.8,1037.8c1.1,0,1.5-0.1,1.8-0.2l2,1.7c-0.4,0.7-0.5,0.9-0.7,1.5c-3.1,8.3-6.4,12.7-14.9,16.8
				c-0.7-1.1-1.7-1.9-2.1-2.1c3.8-1.6,10.6-4.5,14-15.1h-17v-2.5H1032.8z M1039.6,1035.7c0,1.3-1,2.4-2.4,2.4c-1.3,0-2.4-1-2.4-2.4
				c0-1.3,1.1-2.3,2.4-2.3C1038.6,1033.4,1039.6,1034.4,1039.6,1035.7z M1036,1035.7c0,0.7,0.6,1.3,1.3,1.3c0.7,0,1.3-0.6,1.3-1.3
				c0-0.7-0.6-1.3-1.3-1.3C1036.6,1034.5,1036,1035,1036,1035.7z"/>
		</g>
	</g>
	<line class="st7" x1="311.5" y1="1046.7" x2="111.5" y2="1046.7"/>
	<line class="st7" x1="811.5" y1="1046.7" x2="611.5" y2="1046.7"/>
	<g>
		<g>
			<path class="st0" d="M1111.5,1491.7c0,5.5-4.5,10-10,10h-280c-5.5,0-10-4.5-10-10v-50c0-5.5,4.5-10,10-10h280c5.5,0,10,4.5,10,10
				V1491.7z"/>
			<path class="st8" d="M1111.5,1491.7c0,5.5-4.5,10-10,10h-280c-5.5,0-10-4.5-10-10v-50c0-5.5,4.5-10,10-10h280c5.5,0,10,4.5,10,10
				V1491.7z"/>
		</g>
		<g>
			<path d="M892.4,1458.5c-0.4-0.8-1.4-2.3-2.3-3.3l2.2-1.2c0.7,0.8,1.8,2.3,2.5,3.5c-1.3,0.6-1.5,0.8-1.8,1h3.3
				c1.7-2,2.5-3.3,3-4.1l2.2,1.2c0.1,0.1,0.3,0.2,0.3,0.4c0,0.3-0.1,0.3-0.8,0.3c-0.7,1.1-1.1,1.5-1.7,2.2h5.6v5.8h-2.8v-3.6H885
				v3.6h-2.8v-5.8h4.4c-0.3-0.6-1.4-2.1-2.1-2.8l2.2-1.1c0.6,0.7,1.8,2.3,2.4,3.2c-0.7,0.4-0.8,0.4-1.3,0.8H892.4z M902.6,1470.4
				v7.7h-2.7v-0.9h-12.6v0.9h-2.7v-7.7h6.5c0.1-0.1,0.8-1.5,0.9-1.8h-5.1v-6.5h13.2v6.5H895c-0.4,0.8-0.6,1.2-0.9,1.8H902.6z
				 M899.9,1475.1v-2.6h-12.6v2.6H899.9z M889.6,1464.1v2.4h7.9v-2.4H889.6z"/>
			<path d="M923,1478.2h-2.5v-5.6c-2.7,2.4-6.2,4.6-8.2,5.4c-0.9-1.2-1.5-1.6-2-1.9c3.7-1.3,7.2-3.5,8.9-5H910v-2.1h10.5v-1.3H913
				v-2h7.5v-1.2h-9.2v-2.1h6c-0.1-0.2-0.5-1.1-1-1.9l1.4-0.4H910v-2.1h4.3c-0.6-1-1.2-1.8-1.5-2.2l2.1-1.3c0.5,0.8,1.3,1.8,1.9,2.9
				c-0.2,0.1-0.7,0.2-1.3,0.5h2.5v-3.6l2.5,0.1c0.2,0,0.5,0.1,0.5,0.3c0,0.3-0.2,0.3-0.5,0.4v2.7h2.3v-3.5l2.5,0.1
				c0.2,0,0.5,0.1,0.5,0.3c0,0.3-0.4,0.4-0.5,0.5v2.6h2.6c-0.5-0.3-0.9-0.4-1.5-0.5c1-1.5,1.4-2,1.7-2.9l2.6,1
				c0.1,0.1,0.2,0.2,0.2,0.3c0,0.3-0.3,0.4-0.8,0.3c-0.4,0.6-0.8,1.2-1.3,1.9h4.6v2.1h-5.7c0.1,0.1,0.2,0.2,0.2,0.3
				c0,0.2-0.1,0.4-0.8,0.4c-0.3,0.6-0.6,1.2-0.8,1.7h5.5v2.1h-9v1.2h7.3v2H923v1.3h10.6v2.1h-9.2c1.7,1.6,4.5,3.4,8.9,4.8
				c-1.1,0.9-1.5,1.4-1.8,2c-2-0.7-5.9-2.8-8.5-5.4V1478.2z M918.8,1460c0.4,0.7,0.8,1.4,1,2c-0.2,0-0.8,0.2-1.6,0.4h5.5
				c0.4-0.7,0.8-1.5,1.1-2.4H918.8z"/>
			<path d="M955.5,1458.7c0.8,0,1.3-0.2,1.8-0.4l1.5,1.4c-0.4,0.6-0.5,0.9-0.8,1.6c-2.2,5-3.6,8.3-7.1,11.9
				c-3.2,3.3-6.4,4.7-7.7,5.2c-0.7-0.8-1-1.1-2.1-2c8-3.2,11.6-8.4,13.8-15.2h-8.1c-1.8,2.6-3.6,4.8-6.4,7.3
				c-1.1-1.1-1.1-1.2-2.1-1.9c3.8-3,7.2-7.3,8.9-11.9l2.5,1.1c0.1,0.1,0.4,0.2,0.4,0.4c0,0.3-0.4,0.3-0.6,0.3
				c-0.3,0.5-0.4,0.9-1.1,2.2H955.5z M954.3,1453.8c0.6,0.6,1.7,1.7,2.4,2.5c-0.3,0.2-1,0.6-1.6,1.1c-1.1-1.4-1.8-2.1-2.3-2.5
				L954.3,1453.8z M958.2,1453.5c0.8,0.8,1.9,2.1,2.4,2.7c-0.4,0.3-0.5,0.3-1.6,1.1c-0.2-0.3-1.2-1.7-2.3-2.7L958.2,1453.5z"/>
			<path d="M970.8,1456.4c0.3,0,0.6,0,0.6,0.3c0,0.3-0.3,0.4-0.5,0.5v6.4c0,5.3-1.5,8.7-6.5,12.2c-0.5-0.7-0.9-1-2.2-1.9
				c5.2-3,5.9-6.2,5.9-10.1v-7.6L970.8,1456.4z M977.1,1456.2c0.3,0,0.5,0,0.5,0.3c0,0.2-0.3,0.3-0.5,0.5v14.8
				c3.2-1.9,6.3-4.9,8.3-7.8c0.7,1.5,0.8,1.7,1.4,2.4c-3,4.2-7.4,7.3-9.2,8.6c-0.9,0.6-1,0.7-1.5,1.1l-1.9-1.3
				c0.1-0.5,0.1-1.3,0.1-2V1456L977.1,1456.2z"/>
			<path d="M1013.9,1464.9v2.8h-22.2v-2.8H1013.9z"/>
			<path d="M1032.8,1457.8c1.1,0,1.5-0.1,1.8-0.2l2,1.7c-0.4,0.7-0.5,0.9-0.7,1.5c-3.1,8.3-6.4,12.7-14.9,16.8
				c-0.7-1.1-1.7-1.9-2.1-2.1c3.8-1.6,10.6-4.5,14-15.1h-17v-2.5H1032.8z M1039.6,1455.7c0,1.3-1,2.4-2.4,2.4c-1.3,0-2.4-1-2.4-2.4
				c0-1.3,1.1-2.3,2.4-2.3C1038.6,1453.4,1039.6,1454.4,1039.6,1455.7z M1036,1455.7c0,0.7,0.6,1.3,1.3,1.3c0.7,0,1.3-0.6,1.3-1.3
				c0-0.7-0.6-1.3-1.3-1.3C1036.6,1454.5,1036,1455,1036,1455.7z"/>
		</g>
	</g>
	<line class="st7" x1="811.5" y1="1466.7" x2="611.5" y2="1466.7"/>
	<line class="st8" x1="111.5" y1="906.7" x2="311.5" y2="906.7"/>
	<line class="st8" x1="311.5" y1="766.7" x2="111.5" y2="766.7"/>
	<g>
		<g>
			<path class="st0" d="M611.5,1211.7c0,5.5-4.5,10-10,10h-280c-5.5,0-10-4.5-10-10v-50c0-5.5,4.5-10,10-10h280c5.5,0,10,4.5,10,10
				V1211.7z"/>
			<path class="st8" d="M611.5,1211.7c0,5.5-4.5,10-10,10h-280c-5.5,0-10-4.5-10-10v-50c0-5.5,4.5-10,10-10h280c5.5,0,10,4.5,10,10
				V1211.7z"/>
		</g>
		<g>
			<path d="M397.6,1198.2h-2.3v-10.4c-0.6,2-0.8,3-2.1,5.6c-0.9-0.8-1.3-1-2.4-1.6c2-2.7,3.6-7.3,4.2-10h-3.6v-2.2h3.7v-5.3l2.4,0.2
				c0.3,0,0.6,0.1,0.6,0.4c0,0.3-0.3,0.4-0.6,0.5v4.2h3.6v2.2h-3.5c0.7,1.9,2,4.2,3.5,6.4c-0.6,0.4-1.5,1.3-1.9,1.8
				c-1-2.3-1.1-2.6-1.6-4.2V1198.2z M414.6,1186.3c0,6.2-0.7,8.9-1,9.7c-0.4,1.4-1.1,2.2-3.7,2.2c-0.5,0-0.9,0-1.3-0.1
				c0-0.8-0.2-1.8-0.7-2.8c0.7,0.2,1.4,0.3,2,0.3c0.7,0,1.1-0.1,1.4-1c0.3-1.1,0.5-2.3,0.7-5.8h-2.9c-0.3,2.1-1,6.2-5,9.4
				c-0.5-0.6-1.3-1.4-1.8-1.8c4.5-3.7,4.6-7.2,4.6-13.5h-2.4v0.9c0,3.7-0.3,9.8-3.9,14.2c-0.3-0.3-0.8-0.8-2.2-1.4
				c2.6-3.6,3.6-6.9,3.6-13.1v-7.9l2.1,0.3c2.9,0,6.9-0.7,9.8-1.7l1.6,2.2c0.1,0.1,0.1,0.2,0.1,0.3c0,0.2-0.2,0.3-0.4,0.3
				c-0.2,0-0.3-0.1-0.7-0.3c-3.2,0.8-6.6,1.2-10,1.4v2.3h11v2.4h-6c0,1.6-0.1,2.5-0.1,3.4H414.6z"/>
			<path d="M433.4,1198.1h-2.7v-12.8c-2,4.2-5.1,7.7-9,10.3c-0.6-1-1.1-1.5-2.1-2.2c4.2-2.2,7.9-6.4,10.2-10.7h-9.7v-2.4h10.5v-6
				l2.7,0.1c0.4,0,0.6,0.1,0.6,0.4c0,0.2-0.3,0.3-0.6,0.4v5H444v2.4h-9.7c2.6,4.8,6.8,8.5,10,10.6c-0.8,0.5-1.1,0.9-2.1,2.2
				c-5.1-4-7.5-7.5-8.9-10.2V1198.1z"/>
			<path d="M459.2,1178.5c-0.4-0.8-1.4-2.3-2.3-3.3l2.2-1.2c0.7,0.8,1.8,2.3,2.5,3.5c-1.3,0.6-1.5,0.8-1.8,1h3.3
				c1.7-2,2.5-3.3,3-4.1l2.2,1.2c0.1,0.1,0.3,0.2,0.3,0.4c0,0.3-0.1,0.3-0.8,0.3c-0.7,1.1-1.1,1.5-1.7,2.2h5.6v5.8h-2.8v-3.6h-17.2
				v3.6H449v-5.8h4.4c-0.3-0.6-1.4-2.1-2.1-2.8l2.2-1.1c0.6,0.7,1.8,2.3,2.4,3.2c-0.7,0.4-0.8,0.4-1.3,0.8H459.2z M469.3,1190.4v7.7
				h-2.7v-0.9h-12.6v0.9h-2.7v-7.7h6.5c0.1-0.1,0.8-1.5,0.9-1.8h-5.1v-6.5h13.2v6.5h-5.2c-0.4,0.8-0.6,1.2-0.9,1.8H469.3z
				 M466.6,1195.1v-2.6h-12.6v2.6H466.6z M456.4,1184.1v2.4h7.9v-2.4H456.4z"/>
			<path d="M489.8,1198.2h-2.5v-5.6c-2.7,2.4-6.2,4.6-8.2,5.4c-0.9-1.2-1.5-1.6-2-1.9c3.7-1.3,7.2-3.5,8.9-5h-9.3v-2.1h10.5v-1.3
				h-7.5v-2h7.5v-1.2h-9.2v-2.1h6c-0.1-0.2-0.5-1.1-1-1.9l1.4-0.4h-7.7v-2.1h4.3c-0.6-1-1.2-1.8-1.5-2.2l2.1-1.3
				c0.5,0.8,1.3,1.8,1.9,2.9c-0.2,0.1-0.7,0.2-1.3,0.5h2.5v-3.6l2.5,0.1c0.2,0,0.5,0.1,0.5,0.3c0,0.3-0.2,0.3-0.5,0.4v2.7h2.3v-3.5
				l2.5,0.1c0.2,0,0.5,0.1,0.5,0.3c0,0.3-0.4,0.4-0.5,0.5v2.6h2.6c-0.5-0.3-0.9-0.4-1.5-0.5c1-1.5,1.4-2,1.7-2.9l2.6,1
				c0.1,0.1,0.2,0.2,0.2,0.3c0,0.3-0.3,0.4-0.8,0.3c-0.4,0.6-0.8,1.2-1.3,1.9h4.6v2.1h-5.7c0.1,0.1,0.2,0.2,0.2,0.3
				c0,0.2-0.1,0.4-0.8,0.4c-0.3,0.6-0.6,1.2-0.8,1.7h5.5v2.1h-9v1.2h7.3v2h-7.3v1.3h10.6v2.1h-9.2c1.7,1.6,4.5,3.4,8.9,4.8
				c-1.1,0.9-1.5,1.4-1.8,2c-2-0.7-5.9-2.8-8.5-5.4V1198.2z M485.5,1180c0.4,0.7,0.8,1.4,1,2c-0.2,0-0.8,0.2-1.6,0.4h5.5
				c0.4-0.7,0.8-1.5,1.1-2.4H485.5z"/>
			<path d="M516.2,1180.2v8.6h-6.9c-0.1,1.8-0.2,6.1-2.1,9.6c-0.9-0.5-1.6-0.7-2.7-0.9c1.8-2.7,2.2-5.8,2.2-9.4v-7.8H516.2z
				 M517,1175.5v2.3h-11.6v-2.3H517z M509.4,1182.5v3.9h4.3v-3.9H509.4z M526,1198h-2.6v-13.4h-2.9c0,2.9-0.1,8.9-5.6,13.7
				c-0.8-0.8-0.9-0.8-2.3-1.6c1.7-1.1,3-2.7,3.9-4.5c0.9-1.7,1.4-3.5,1.4-7v-9.4l2.1,0.2c1,0,4.6-0.8,6.9-1.9l1.7,2.3
				c0.1,0.1,0.1,0.2,0.1,0.3c0,0.2-0.1,0.3-0.3,0.3c-0.2,0-0.4-0.1-0.7-0.3c-2.4,0.9-4.7,1.4-7.2,1.7v3.8h8.4v2.5H526V1198z"/>
		</g>
	</g>
	<g>
		<g>
			<path class="st0" d="M611.5,1351.7c0,5.5-4.5,10-10,10h-280c-5.5,0-10-4.5-10-10v-50c0-5.5,4.5-10,10-10h280c5.5,0,10,4.5,10,10
				V1351.7z"/>
			<path class="st8" d="M611.5,1351.7c0,5.5-4.5,10-10,10h-280c-5.5,0-10-4.5-10-10v-50c0-5.5,4.5-10,10-10h280c5.5,0,10,4.5,10,10
				V1351.7z"/>
		</g>
		<g>
			<path d="M411.5,1338.2h-2.3v-10.4c-0.6,2-0.8,3-2.1,5.6c-0.9-0.8-1.3-1-2.4-1.6c2-2.7,3.6-7.3,4.2-10h-3.6v-2.2h3.7v-5.3l2.4,0.2
				c0.3,0,0.6,0.1,0.6,0.4c0,0.3-0.3,0.4-0.6,0.5v4.2h3.6v2.2h-3.5c0.7,1.9,2,4.2,3.5,6.4c-0.6,0.4-1.5,1.3-1.9,1.8
				c-1-2.3-1.1-2.6-1.6-4.2V1338.2z M428.6,1326.3c0,6.2-0.7,8.9-1,9.7c-0.4,1.4-1.1,2.2-3.7,2.2c-0.5,0-0.9,0-1.3-0.1
				c0-0.8-0.2-1.8-0.7-2.8c0.7,0.2,1.4,0.3,2,0.3c0.7,0,1.1-0.1,1.4-1c0.3-1.1,0.5-2.3,0.7-5.8h-2.9c-0.3,2.1-1,6.2-5,9.4
				c-0.5-0.6-1.3-1.4-1.8-1.8c4.5-3.7,4.6-7.2,4.6-13.5h-2.4v0.9c0,3.7-0.3,9.8-3.9,14.2c-0.3-0.3-0.8-0.8-2.2-1.4
				c2.6-3.6,3.6-6.9,3.6-13.1v-7.9l2.1,0.3c2.9,0,6.9-0.7,9.8-1.7l1.6,2.2c0.1,0.1,0.1,0.2,0.1,0.3c0,0.2-0.2,0.3-0.4,0.3
				c-0.2,0-0.3-0.1-0.7-0.3c-3.2,0.8-6.6,1.2-10,1.4v2.3h11v2.4h-6c0,1.6-0.1,2.5-0.1,3.4H428.6z"/>
			<path d="M447.3,1338.1h-2.7v-12.8c-2,4.2-5.1,7.7-9,10.3c-0.6-1-1.1-1.5-2.1-2.2c4.2-2.2,7.9-6.4,10.2-10.7h-9.7v-2.4h10.5v-6
				l2.7,0.1c0.4,0,0.6,0.1,0.6,0.4c0,0.2-0.3,0.3-0.6,0.4v5h10.6v2.4h-9.7c2.6,4.8,6.8,8.5,10,10.6c-0.8,0.5-1.1,0.9-2.1,2.2
				c-5.1-4-7.5-7.5-8.9-10.2V1338.1z"/>
			<path d="M476.2,1333.7h10.5v2.6h-23.8v-2.6h10.4v-14.6h-8.7v-2.6h20.3v2.6h-8.7V1333.7z"/>
			<path d="M499.9,1320.2v2.4h-3v6.1c2-0.8,2.2-0.8,3.1-1.2c-0.2,0.6-0.3,1.3-0.3,1.9c0,0.3,0,0.4,0.1,0.6c-2.2,1-6.6,2.6-7.4,2.9
				c0,0.3-0.1,0.7-0.4,0.7c-0.2,0-0.3-0.3-0.4-0.6l-0.6-2.5c1.1-0.2,2.2-0.5,3.4-0.9v-7h-3.1v-2.4h3.1v-5.7l2.7,0.2
				c0.2,0,0.5,0.1,0.5,0.3c0,0.2-0.2,0.3-0.6,0.5v4.8H499.9z M502.4,1330.3c-1.6,2-3,3-3.6,3.4c-0.8-0.9-1.4-1.2-1.8-1.4
				c3-2,4.1-3.6,5.3-5.4h-3v-2h15.7v2h-10.2c-0.2,0.4-0.5,0.9-0.8,1.2h10.4c0,3.3-0.5,6.4-0.9,7.7c-0.4,1.2-1,2.2-3.9,2.2
				c-0.3,0-0.5,0-0.9-0.1c-0.1-0.4-0.1-1.1-0.9-2.7c1,0.2,1.9,0.2,2,0.2c0.6,0,1.1,0,1.4-1.3c0.3-1,0.5-2.4,0.6-4h-1.2
				c-2.1,4.5-5,7-6.2,8c-0.4-0.4-0.8-0.7-2-1.3c0.6-0.4,3.6-2.4,5.9-6.7h-1.6c-1.1,1.8-2.7,3.7-3.9,4.8c-1,0.9-2,1.6-3.4,2.4
				c-0.6-0.7-0.9-1-1.8-1.6c2.7-1.2,4.9-3.2,6.6-5.6H502.4z M512.6,1323.9h-11.4v-8.9h11.4V1323.9z M510.2,1318.5v-1.5h-6.4v1.5
				H510.2z M503.8,1320.3v1.6h6.4v-1.6H503.8z"/>
		</g>
	</g>
	<line class="st8" x1="111.5" y1="1326.7" x2="311.5" y2="1326.7"/>
	<line class="st8" x1="311.5" y1="1186.7" x2="111.5" y2="1186.7"/>
	<polyline class="st8" points="711.5,1186.7 711.5,1326.7 811.5,1326.7 	"/>
	<g>
		<g>
			<path class="st0" d="M611.5,1491.7c0,5.5-4.5,10-10,10h-280c-5.5,0-10-4.5-10-10v-50c0-5.5,4.5-10,10-10h280c5.5,0,10,4.5,10,10
				V1491.7z"/>
			<path class="st8" d="M611.5,1491.7c0,5.5-4.5,10-10,10h-280c-5.5,0-10-4.5-10-10v-50c0-5.5,4.5-10,10-10h280c5.5,0,10,4.5,10,10
				V1491.7z"/>
		</g>
		<g>
			<path d="M403.6,1468.1v9.9h-2.4v-1h-3.4v1.2h-2.4v-6.1c-0.7,0.9-1.2,1.5-1.7,2c-0.9-1.1-1.6-1.5-2.1-1.7c1-0.8,3.1-2.5,4.2-6.1
				h-2.6v-2.2h3c0.2-1.2,0.2-1.8,0.2-2.2h-4v-2.2h4.1v-2.1h-3.1v-2.2h10.3v4.3h1.1v2.2h-1.1v4.4h-5.4c-0.3,1-0.5,1.5-0.6,1.9H403.6z
				 M397.8,1470.4v4.2h3.4v-4.2H397.8z M398.9,1461.8c-0.1,1.2-0.1,1.7-0.2,2.2h2.5v-2.2H398.9z M399,1457.5c0,0.5,0,1,0,2.1h2.3
				v-2.1H399z M411.9,1464.7h3.6v2.4h-3.6v3.4h4.5v2.4h-4.5v5.2h-2.6v-5.2h-4.7v-2.4h4.7v-3.4h-3.6v-2.4h3.6v-3.5h-4v-2.3h2.3
				c-0.7-1.5-1.2-2.2-2.2-3.6l2.1-1.2c0.9,0.9,2.1,2.8,2.5,3.8c-0.9,0.4-1.5,0.9-1.7,1h2.3c1.4-2.1,2-3.6,2.5-4.7l2.6,1
				c0.1,0.1,0.3,0.2,0.3,0.3c0,0.3-0.4,0.3-0.7,0.3c-0.3,0.5-1.5,2.7-1.7,3.1h2.3v2.3h-4V1464.7z"/>
			<path d="M425.1,1471.5c0.3,0.1,0.7,0.2,0.7,0.5c0,0.3-0.4,0.3-0.7,0.4c-0.8,2.7-2.1,4.7-2.7,5.5c-0.8-0.5-1.5-0.8-2.5-1.1
				c1.5-1.9,2.6-4.2,3-5.9L425.1,1471.5z M440.8,1459.1v2.1h-6.7v1.8h6.7v2.2h-6.7v2h9.4c-0.1,1.2-0.2,6.1-1.6,8.9
				c-0.3,0.7-1,1.9-4.4,1.9c-0.3,0-0.6,0-0.9,0c-0.1-1.1-0.6-2.2-0.9-2.8c0.7,0.1,1.6,0.2,2.3,0.2c0.6,0,1.3,0,1.7-1
				c0.5-1.1,0.9-3.3,1-5.1h-15.1v1.1h-2.7v-15.4h19.6v2.2h-8.5v1.8H440.8z M431.4,1459.1v-1.8h-5.7v1.8H431.4z M431.4,1463v-1.8
				h-5.7v1.8H431.4z M431.4,1467.2v-2h-5.7v2H431.4z M428.6,1471.2c0.7,2.3,1,4.1,1.1,5.3c-0.3,0-1.6,0.2-2.7,0.5
				c-0.1-2-0.3-3.3-0.8-5.3L428.6,1471.2z M433,1470.6c0.5,1.2,1.2,3.3,1.5,4.7c-1.4,0.2-2.1,0.4-2.5,0.6c-0.4-2.3-0.8-3.6-1.3-4.7
				L433,1470.6z M437.2,1470.1c0.5,0.8,1.4,2.7,1.8,4c-0.9,0.2-1.9,0.6-2.3,0.8c-0.5-1.7-0.9-2.7-1.6-4.1L437.2,1470.1z"/>
			<path d="M458.2,1458.5c-0.4-0.8-1.4-2.3-2.3-3.3l2.2-1.2c0.6,0.8,1.8,2.3,2.5,3.5c-1.3,0.6-1.5,0.8-1.8,1h3.3
				c1.7-2,2.5-3.3,3-4.1l2.2,1.2c0.1,0.1,0.3,0.2,0.3,0.4c0,0.3-0.1,0.3-0.8,0.3c-0.7,1.1-1.1,1.5-1.7,2.2h5.6v5.8H468v-3.6h-17.2
				v3.6H448v-5.8h4.4c-0.3-0.6-1.4-2.1-2.1-2.8l2.2-1.1c0.6,0.7,1.8,2.3,2.4,3.2c-0.7,0.4-0.8,0.4-1.3,0.8H458.2z M468.4,1470.4v7.7
				h-2.7v-0.9h-12.6v0.9h-2.7v-7.7h6.5c0.1-0.1,0.8-1.5,0.9-1.8h-5.1v-6.5H466v6.5h-5.2c-0.4,0.8-0.6,1.2-0.9,1.8H468.4z
				 M465.7,1475.1v-2.6h-12.6v2.6H465.7z M455.4,1464.1v2.4h7.9v-2.4H455.4z"/>
			<path d="M488.9,1478.2h-2.5v-5.6c-2.7,2.4-6.2,4.6-8.2,5.4c-0.9-1.2-1.5-1.6-2-1.9c3.7-1.3,7.2-3.5,8.9-5h-9.3v-2.1h10.5v-1.3
				h-7.5v-2h7.5v-1.2h-9.2v-2.1h6c-0.1-0.2-0.5-1.1-1-1.9l1.4-0.4h-7.7v-2.1h4.3c-0.6-1-1.2-1.8-1.5-2.2l2.1-1.3
				c0.5,0.8,1.3,1.8,1.9,2.9c-0.2,0.1-0.7,0.2-1.3,0.5h2.5v-3.6l2.5,0.1c0.2,0,0.5,0.1,0.5,0.3c0,0.3-0.2,0.3-0.5,0.4v2.7h2.3v-3.5
				l2.5,0.1c0.2,0,0.5,0.1,0.5,0.3c0,0.3-0.4,0.4-0.5,0.5v2.6h2.6c-0.5-0.3-0.9-0.4-1.5-0.5c1-1.5,1.4-2,1.7-2.9l2.6,1
				c0.1,0.1,0.2,0.2,0.2,0.3c0,0.3-0.3,0.4-0.8,0.3c-0.4,0.6-0.8,1.2-1.3,1.9h4.6v2.1h-5.7c0.1,0.1,0.2,0.2,0.2,0.3
				c0,0.2-0.1,0.4-0.8,0.4c-0.3,0.6-0.6,1.2-0.8,1.7h5.5v2.1h-9v1.2h7.3v2h-7.3v1.3h10.6v2.1h-9.2c1.7,1.6,4.5,3.4,8.9,4.8
				c-1.1,0.9-1.5,1.4-1.8,2c-2-0.7-5.9-2.8-8.5-5.4V1478.2z M484.6,1460c0.4,0.7,0.8,1.4,1,2c-0.2,0-0.8,0.2-1.6,0.4h5.5
				c0.4-0.7,0.8-1.5,1.1-2.4H484.6z"/>
			<path d="M515.3,1460.2v8.6h-6.9c-0.1,1.8-0.2,6.1-2.1,9.6c-0.9-0.5-1.6-0.7-2.7-0.9c1.8-2.7,2.2-5.8,2.2-9.4v-7.8H515.3z
				 M516,1455.5v2.3h-11.6v-2.3H516z M508.4,1462.5v3.9h4.3v-3.9H508.4z M525.1,1478h-2.6v-13.4h-2.9c0,2.9-0.1,8.9-5.6,13.7
				c-0.8-0.8-0.9-0.8-2.3-1.6c1.7-1.1,3-2.7,3.9-4.5c0.9-1.7,1.4-3.5,1.4-7v-9.4l2.1,0.2c1,0,4.6-0.8,6.9-1.9l1.7,2.3
				c0.1,0.1,0.1,0.2,0.1,0.3c0,0.2-0.1,0.3-0.3,0.3c-0.2,0-0.4-0.1-0.7-0.3c-2.4,0.9-4.7,1.4-7.2,1.7v3.8h8.4v2.5h-2.8V1478z"/>
		</g>
	</g>
	<g>
		<g>
			<path class="st0" d="M1111.5,1211.7c0,5.5-4.5,10-10,10h-280c-5.5,0-10-4.5-10-10v-50c0-5.5,4.5-10,10-10h280c5.5,0,10,4.5,10,10
				V1211.7z"/>
			<path class="st8" d="M1111.5,1211.7c0,5.5-4.5,10-10,10h-280c-5.5,0-10-4.5-10-10v-50c0-5.5,4.5-10,10-10h280c5.5,0,10,4.5,10,10
				V1211.7z"/>
		</g>
		<g>
			<path d="M892.4,1178.5c-0.4-0.8-1.4-2.3-2.3-3.3l2.2-1.2c0.7,0.8,1.8,2.3,2.5,3.5c-1.3,0.6-1.5,0.8-1.8,1h3.3
				c1.7-2,2.5-3.3,3-4.1l2.2,1.2c0.1,0.1,0.3,0.2,0.3,0.4c0,0.3-0.1,0.3-0.8,0.3c-0.7,1.1-1.1,1.5-1.7,2.2h5.6v5.8h-2.8v-3.6H885
				v3.6h-2.8v-5.8h4.4c-0.3-0.6-1.4-2.1-2.1-2.8l2.2-1.1c0.6,0.7,1.8,2.3,2.4,3.2c-0.7,0.4-0.8,0.4-1.3,0.8H892.4z M902.6,1190.4
				v7.7h-2.7v-0.9h-12.6v0.9h-2.7v-7.7h6.5c0.1-0.1,0.8-1.5,0.9-1.8h-5.1v-6.5h13.2v6.5H895c-0.4,0.8-0.6,1.2-0.9,1.8H902.6z
				 M899.9,1195.1v-2.6h-12.6v2.6H899.9z M889.6,1184.1v2.4h7.9v-2.4H889.6z"/>
			<path d="M923,1198.2h-2.5v-5.6c-2.7,2.4-6.2,4.6-8.2,5.4c-0.9-1.2-1.5-1.6-2-1.9c3.7-1.3,7.2-3.5,8.9-5H910v-2.1h10.5v-1.3H913
				v-2h7.5v-1.2h-9.2v-2.1h6c-0.1-0.2-0.5-1.1-1-1.9l1.4-0.4H910v-2.1h4.3c-0.6-1-1.2-1.8-1.5-2.2l2.1-1.3c0.5,0.8,1.3,1.8,1.9,2.9
				c-0.2,0.1-0.7,0.2-1.3,0.5h2.5v-3.6l2.5,0.1c0.2,0,0.5,0.1,0.5,0.3c0,0.3-0.2,0.3-0.5,0.4v2.7h2.3v-3.5l2.5,0.1
				c0.2,0,0.5,0.1,0.5,0.3c0,0.3-0.4,0.4-0.5,0.5v2.6h2.6c-0.5-0.3-0.9-0.4-1.5-0.5c1-1.5,1.4-2,1.7-2.9l2.6,1
				c0.1,0.1,0.2,0.2,0.2,0.3c0,0.3-0.3,0.4-0.8,0.3c-0.4,0.6-0.8,1.2-1.3,1.9h4.6v2.1h-5.7c0.1,0.1,0.2,0.2,0.2,0.3
				c0,0.2-0.1,0.4-0.8,0.4c-0.3,0.6-0.6,1.2-0.8,1.7h5.5v2.1h-9v1.2h7.3v2H923v1.3h10.6v2.1h-9.2c1.7,1.6,4.5,3.4,8.9,4.8
				c-1.1,0.9-1.5,1.4-1.8,2c-2-0.7-5.9-2.8-8.5-5.4V1198.2z M918.8,1180c0.4,0.7,0.8,1.4,1,2c-0.2,0-0.8,0.2-1.6,0.4h5.5
				c0.4-0.7,0.8-1.5,1.1-2.4H918.8z"/>
			<path d="M955.5,1178.7c0.8,0,1.3-0.2,1.8-0.4l1.5,1.4c-0.4,0.6-0.5,0.9-0.8,1.6c-2.2,5-3.6,8.3-7.1,11.9
				c-3.2,3.3-6.4,4.7-7.7,5.2c-0.7-0.8-1-1.1-2.1-2c8-3.2,11.6-8.4,13.8-15.2h-8.1c-1.8,2.6-3.6,4.8-6.4,7.3
				c-1.1-1.1-1.1-1.2-2.1-1.9c3.8-3,7.2-7.3,8.9-11.9l2.5,1.1c0.1,0.1,0.4,0.2,0.4,0.4c0,0.3-0.4,0.3-0.6,0.3
				c-0.3,0.5-0.4,0.9-1.1,2.2H955.5z M954.3,1173.8c0.6,0.6,1.7,1.7,2.4,2.5c-0.3,0.2-1,0.6-1.6,1.1c-1.1-1.4-1.8-2.1-2.3-2.5
				L954.3,1173.8z M958.2,1173.5c0.8,0.8,1.9,2.1,2.4,2.7c-0.4,0.3-0.5,0.3-1.6,1.1c-0.2-0.3-1.2-1.7-2.3-2.7L958.2,1173.5z"/>
			<path d="M970.8,1176.4c0.3,0,0.6,0,0.6,0.3c0,0.3-0.3,0.4-0.5,0.5v6.4c0,5.3-1.5,8.7-6.5,12.2c-0.5-0.7-0.9-1-2.2-1.9
				c5.2-3,5.9-6.2,5.9-10.1v-7.6L970.8,1176.4z M977.1,1176.2c0.3,0,0.5,0,0.5,0.3c0,0.2-0.3,0.3-0.5,0.5v14.8
				c3.2-1.9,6.3-4.9,8.3-7.8c0.7,1.5,0.8,1.7,1.4,2.4c-3,4.2-7.4,7.3-9.2,8.6c-0.9,0.6-1,0.7-1.5,1.1l-1.9-1.3
				c0.1-0.5,0.1-1.3,0.1-2V1176L977.1,1176.2z"/>
			<path d="M1013.9,1184.9v2.8h-22.2v-2.8H1013.9z"/>
			<path d="M1032.8,1177.8c1.1,0,1.5-0.1,1.8-0.2l2,1.7c-0.4,0.7-0.5,0.9-0.7,1.5c-3.1,8.3-6.4,12.7-14.9,16.8
				c-0.7-1.1-1.7-1.9-2.1-2.1c3.8-1.6,10.6-4.5,14-15.1h-17v-2.5H1032.8z M1039.6,1175.7c0,1.3-1,2.4-2.4,2.4c-1.3,0-2.4-1-2.4-2.4
				c0-1.3,1.1-2.3,2.4-2.3C1038.6,1173.4,1039.6,1174.4,1039.6,1175.7z M1036,1175.7c0,0.7,0.6,1.3,1.3,1.3c0.7,0,1.3-0.6,1.3-1.3
				c0-0.7-0.6-1.3-1.3-1.3C1036.6,1174.5,1036,1175,1036,1175.7z"/>
		</g>
	</g>
	<g>
		<g>
			<path class="st0" d="M1111.5,1351.7c0,5.5-4.5,10-10,10h-280c-5.5,0-10-4.5-10-10v-50c0-5.5,4.5-10,10-10h280c5.5,0,10,4.5,10,10
				V1351.7z"/>
			<path class="st8" d="M1111.5,1351.7c0,5.5-4.5,10-10,10h-280c-5.5,0-10-4.5-10-10v-50c0-5.5,4.5-10,10-10h280c5.5,0,10,4.5,10,10
				V1351.7z"/>
		</g>
		<g>
			<path d="M884.2,1329.5c0.2,0,0.4,0.2,0.4,0.4c0,0.2-0.2,0.3-0.5,0.4c-0.3,2-0.6,3.8-1.4,6c-0.7-0.3-1.4-0.5-2.1-0.6
				c0.7-1.5,1.4-4.5,1.5-6.4L884.2,1329.5z M889.9,1317.8c0.2,0.1,0.5,0.2,0.5,0.4c0,0.2-0.3,0.3-0.7,0.3c-0.5,0.9-2.1,3.7-4.2,6.9
				c2.2-0.1,2.4-0.1,2.7-0.2c-0.1-0.3-0.5-1.7-0.6-2l1.8-0.8c0.5,1.1,1.3,3.5,1.6,4.9c-0.6,0.2-1.4,0.4-2.1,0.8
				c-0.1-0.3-0.1-0.4-0.2-1c-0.2,0-1.1,0.2-1.3,0.2v10.9h-2.5v-10.6c-1.3,0.2-2,0.2-2.7,0.3c-0.2,0.5-0.2,0.7-0.5,0.7
				c-0.3,0-0.4-0.3-0.4-0.6l-0.3-2.4c0.5,0,0.9,0,2,0c0.4-0.5,0.7-1,1.6-2.5c-1.1-1.2-2.4-2.2-3.7-3.2l1.5-2.1
				c0.3,0.2,0.5,0.4,1,0.8c0.1-0.2,1.4-2.6,2.1-4.4l2.2,0.8c0.2,0.1,0.3,0.2,0.3,0.4c0,0.2-0.3,0.3-0.7,0.3c-0.9,1.8-1,2.1-2.3,4.3
				c0.6,0.5,0.8,0.7,1,0.9c1.5-2.7,1.7-2.9,2-3.8L889.9,1317.8z M890,1328.4c0.2,1.7,0.6,3.6,0.8,4.4c0.6-1.6,0.8-2.5,0.8-3l1.6,0.5
				c0.6,0.2,0.8,0.2,0.8,0.5c0,0.3-0.4,0.3-0.6,0.4c-0.4,1.9-1,3.8-1.8,5.5c-0.8-0.5-1-0.6-2-1c0.2-0.4,0.5-0.9,1.1-2.3
				c-0.7,0.2-1,0.4-1.6,0.6c-0.7-2.7-0.9-4.4-1-5.2L890,1328.4z M896.3,1315.4c0.3,0.1,0.5,0.3,0.5,0.5c0,0.2-0.2,0.2-0.8,0.3
				c-1.3,2.4-2.4,4.1-3.9,6c-0.8-0.7-1.1-0.8-2-1.3c1-1.2,3-3.8,3.9-6.3L896.3,1315.4z M900.6,1321.1c1.6,1.8,3,4.1,3.9,5.8
				c-0.9,0.4-1.4,0.7-2.2,1.3c-0.2-0.4-0.4-1-1.1-2.1c-1.4,0.2-7.3,0.8-8.5,0.9c-0.1,0.1-0.2,0.5-0.6,0.5c-0.2,0-0.3-0.1-0.4-0.4
				l-0.6-2.5c0.4,0,2.2-0.1,2.5-0.1c0.1-0.1,1.8-3.5,2.5-6.5l2.5,0.9c0.3,0.1,0.4,0.2,0.4,0.3c0,0.3-0.1,0.3-0.8,0.5
				c-0.4,0.7-1.9,4-2.3,4.7c2.1-0.2,2.4-0.2,3.8-0.3c-0.7-1.1-1-1.5-1.4-2L900.6,1321.1z M896.5,1329.4c0.4,0.1,0.9,0.1,0.9,0.5
				c0,0.2-0.1,0.3-0.7,0.4v4.4c0,0.8,0.3,0.8,1.2,0.8c1.4,0,1.5-0.3,1.8-2.4c0.8,0.7,1.2,0.9,2.3,1c-0.8,3.5-1.8,3.6-3.6,3.6
				c-2.8,0-4.3,0-4.3-2.4v-6.3L896.5,1329.4z M897.9,1326.9c0.9,0.9,2.2,2.4,2.6,3c-1,0.8-1.2,1-1.7,1.6c-0.7-1.1-1.7-2.2-2.5-3.1
				L897.9,1326.9z M900.7,1314.4c0.9,1.7,2.3,3.8,4.3,5.6c-0.8,0.3-1.6,0.9-2.1,1.4c-1.6-1.5-3.1-3.7-4.2-5.8L900.7,1314.4z
				 M902.8,1329.6c0.3,0.5,1.7,3,2.3,5.3c-0.6,0.2-1.8,0.9-2.1,1.1c-0.9-2.8-1.6-4.3-2.3-5.4L902.8,1329.6z"/>
			<path d="M932.5,1327.3c-2.7-0.7-4.6-1.9-5.7-2.8c-0.6,0.5-1.2,1-1.9,1.4l2.6,0.4c0.3,0,0.5,0.1,0.5,0.4c0,0.3-0.3,0.4-0.7,0.5
				c-0.1,0.5-0.1,0.7-0.2,1.2h5.6c0,1.6-0.4,6.5-1.3,8.2c-0.8,1.4-2.4,1.5-4.4,1.5c-0.1-0.8-0.4-1.8-0.9-2.7
				c0.3,0.1,0.9,0.2,1.7,0.2c1,0,1.5-0.2,1.8-1.3c0.1-0.4,0.4-1.8,0.4-3.7h-3.3c-1.3,4.4-4.4,6.7-6,7.6c-0.5-0.8-1.1-1.5-2-1.9
				c2.8-1.3,4.6-3.2,5.4-5.6h-3.8v-2.3h4.3c0.1-0.4,0.2-1.1,0.2-2.1v-0.3c-0.8,0.5-1.6,0.8-2.7,1.3c-0.4-0.8-1-1.6-1.5-2.1
				c-0.6,1.5-1.4,3-1.6,3.5c-0.2-0.2-1.3-1-2.1-1c1-1.4,1.5-2.6,1.6-3.1h-1.8v10.3c0,2-0.2,3.3-4.4,3.2c-0.2-1.1-0.6-2.2-0.9-2.7
				c0.8,0.2,1.5,0.2,1.8,0.2c1,0,1-0.5,1-1v-6.3c-0.9,2.2-2.3,4-3.1,5c-0.7-0.6-1.3-1.1-2-1.4c1.1-1.1,3.1-3.6,4.4-7.3h-3.7v-2.2
				h5.3c-2.1-1.8-3.6-2.5-4.2-2.8l1.3-1.8c0.8,0.3,1.6,0.7,2.7,1.4c0.6-0.5,0.8-0.8,1.7-1.9h-6.3v-2.1h9.2l0.8,1
				c-1.2,1.6-2.3,2.8-3.7,4.1c0.6,0.5,1,0.8,1.3,1c-0.2,0.3-0.6,0.7-0.9,1.1h3.3l1.1,0.9c-0.1,0.5-0.5,1.4-0.7,2
				c1.7-0.3,3.3-1.2,4.7-2.3c-0.6-0.7-1.5-1.8-2.1-3.2c-0.5,0.7-0.9,1.2-1.7,2c-0.5-0.5-1-0.8-2.1-1.2c2-1.7,3.8-4.7,4.4-6.5
				l2.3,0.6c0.2,0,0.5,0.1,0.5,0.3c0,0.3-0.5,0.4-0.8,0.4c-0.1,0.1-0.5,0.8-0.7,1.2h8.2v2.1h-2c-0.9,1.8-1.7,3-2.8,4.2
				c2.1,1.4,4.1,2,5.5,2.3C933.4,1325.8,932.9,1326.3,932.5,1327.3z M924.9,1318.7c0.4,0.8,0.9,1.7,1.9,2.7c0.6-0.6,1.4-1.6,1.9-2.7
				H924.9z"/>
			<path d="M956.1,1318.7c0.8,0,1.3-0.2,1.8-0.4l1.5,1.4c-0.4,0.6-0.5,0.9-0.8,1.6c-2.2,5-3.6,8.3-7.1,11.9
				c-3.2,3.3-6.4,4.7-7.7,5.2c-0.6-0.8-1-1.1-2.1-2c8-3.2,11.6-8.4,13.8-15.2h-8.1c-1.8,2.6-3.6,4.8-6.4,7.3
				c-1.1-1.1-1.1-1.2-2.1-1.9c3.8-3,7.2-7.3,8.9-11.9l2.5,1.1c0.1,0.1,0.4,0.2,0.4,0.4c0,0.3-0.4,0.3-0.6,0.3
				c-0.3,0.5-0.4,0.9-1.1,2.2H956.1z M955,1313.8c0.6,0.6,1.7,1.7,2.4,2.5c-0.3,0.2-1,0.6-1.6,1.1c-1.1-1.4-1.8-2.1-2.3-2.5
				L955,1313.8z M958.9,1313.5c0.8,0.8,1.9,2.1,2.4,2.7c-0.4,0.3-0.5,0.3-1.6,1.1c-0.2-0.3-1.2-1.7-2.3-2.7L958.9,1313.5z"/>
			<path d="M971.5,1316.4c0.3,0,0.6,0,0.6,0.3c0,0.3-0.3,0.4-0.5,0.5v6.4c0,5.3-1.5,8.7-6.5,12.2c-0.5-0.7-0.9-1-2.2-1.9
				c5.2-3,5.9-6.2,5.9-10.1v-7.6L971.5,1316.4z M977.7,1316.2c0.3,0,0.5,0,0.5,0.3c0,0.2-0.3,0.3-0.5,0.5v14.8
				c3.2-1.9,6.3-4.9,8.3-7.8c0.7,1.5,0.8,1.7,1.4,2.4c-3,4.2-7.4,7.3-9.2,8.6c-0.9,0.6-1,0.7-1.5,1.1l-1.9-1.3
				c0.1-0.5,0.1-1.3,0.1-2V1316L977.7,1316.2z"/>
			<path d="M1014.6,1324.9v2.8h-22.2v-2.8H1014.6z"/>
			<path d="M1033.4,1317.8c1.1,0,1.5-0.1,1.8-0.2l2,1.7c-0.4,0.7-0.5,0.9-0.7,1.5c-3.1,8.3-6.4,12.7-14.9,16.8
				c-0.7-1.1-1.7-1.9-2.1-2.1c3.8-1.6,10.6-4.5,14-15.1h-17v-2.5H1033.4z M1040.3,1315.7c0,1.3-1,2.4-2.4,2.4c-1.3,0-2.4-1-2.4-2.4
				c0-1.3,1.1-2.3,2.4-2.3C1039.2,1313.4,1040.3,1314.4,1040.3,1315.7z M1036.6,1315.7c0,0.7,0.6,1.3,1.3,1.3c0.7,0,1.3-0.6,1.3-1.3
				c0-0.7-0.6-1.3-1.3-1.3C1037.2,1314.5,1036.6,1315,1036.6,1315.7z"/>
		</g>
	</g>
	<line class="st7" x1="811.5" y1="1186.7" x2="611.5" y2="1186.7"/>
	<g>
		<g>
			<path class="st0" d="M1111.5,1771.7c0,5.5-4.5,10-10,10h-280c-5.5,0-10-4.5-10-10v-50c0-5.5,4.5-10,10-10h280c5.5,0,10,4.5,10,10
				V1771.7z"/>
			<path class="st8" d="M1111.5,1771.7c0,5.5-4.5,10-10,10h-280c-5.5,0-10-4.5-10-10v-50c0-5.5,4.5-10,10-10h280c5.5,0,10,4.5,10,10
				V1771.7z"/>
		</g>
		<g>
			<path d="M892.4,1738.5c-0.4-0.8-1.4-2.3-2.3-3.3l2.2-1.2c0.7,0.8,1.8,2.3,2.5,3.5c-1.3,0.6-1.5,0.8-1.8,1h3.3
				c1.7-2,2.5-3.3,3-4.1l2.2,1.2c0.1,0.1,0.3,0.2,0.3,0.4c0,0.3-0.1,0.3-0.8,0.3c-0.7,1.1-1.1,1.5-1.7,2.2h5.6v5.8h-2.8v-3.6H885
				v3.6h-2.8v-5.8h4.4c-0.3-0.6-1.4-2.1-2.1-2.8l2.2-1.1c0.6,0.7,1.8,2.3,2.4,3.2c-0.7,0.4-0.8,0.4-1.3,0.8H892.4z M902.6,1750.4
				v7.7h-2.7v-0.9h-12.6v0.9h-2.7v-7.7h6.5c0.1-0.1,0.8-1.5,0.9-1.8h-5.1v-6.5h13.2v6.5H895c-0.4,0.8-0.6,1.2-0.9,1.8H902.6z
				 M899.9,1755.1v-2.6h-12.6v2.6H899.9z M889.6,1744.1v2.4h7.9v-2.4H889.6z"/>
			<path d="M923,1758.2h-2.5v-5.6c-2.7,2.4-6.2,4.6-8.2,5.4c-0.9-1.2-1.5-1.6-2-1.9c3.7-1.3,7.2-3.5,8.9-5H910v-2.1h10.5v-1.3H913
				v-2h7.5v-1.2h-9.2v-2.1h6c-0.1-0.2-0.5-1.1-1-1.9l1.4-0.4H910v-2.1h4.3c-0.6-1-1.2-1.8-1.5-2.2l2.1-1.3c0.5,0.8,1.3,1.8,1.9,2.9
				c-0.2,0.1-0.7,0.2-1.3,0.5h2.5v-3.6l2.5,0.1c0.2,0,0.5,0.1,0.5,0.3c0,0.3-0.2,0.3-0.5,0.4v2.7h2.3v-3.5l2.5,0.1
				c0.2,0,0.5,0.1,0.5,0.3c0,0.3-0.4,0.4-0.5,0.5v2.6h2.6c-0.5-0.3-0.9-0.4-1.5-0.5c1-1.5,1.4-2,1.7-2.9l2.6,1
				c0.1,0.1,0.2,0.2,0.2,0.3c0,0.3-0.3,0.4-0.8,0.3c-0.4,0.6-0.8,1.2-1.3,1.9h4.6v2.1h-5.7c0.1,0.1,0.2,0.2,0.2,0.3
				c0,0.2-0.1,0.4-0.8,0.4c-0.3,0.6-0.6,1.2-0.8,1.7h5.5v2.1h-9v1.2h7.3v2H923v1.3h10.6v2.1h-9.2c1.7,1.6,4.5,3.4,8.9,4.8
				c-1.1,0.9-1.5,1.4-1.8,2c-2-0.7-5.9-2.8-8.5-5.4V1758.2z M918.8,1740c0.4,0.7,0.8,1.4,1,2c-0.2,0-0.8,0.2-1.6,0.4h5.5
				c0.4-0.7,0.8-1.5,1.1-2.4H918.8z"/>
			<path d="M955.5,1738.7c0.8,0,1.3-0.2,1.8-0.4l1.5,1.4c-0.4,0.6-0.5,0.9-0.8,1.6c-2.2,5-3.6,8.3-7.1,11.9
				c-3.2,3.3-6.4,4.7-7.7,5.2c-0.7-0.8-1-1.1-2.1-2c8-3.2,11.6-8.4,13.8-15.2h-8.1c-1.8,2.6-3.6,4.8-6.4,7.3
				c-1.1-1.1-1.1-1.2-2.1-1.9c3.8-3,7.2-7.3,8.9-11.9l2.5,1.1c0.1,0.1,0.4,0.2,0.4,0.4c0,0.3-0.4,0.3-0.6,0.3
				c-0.3,0.5-0.4,0.9-1.1,2.2H955.5z M954.3,1733.8c0.6,0.6,1.7,1.7,2.4,2.5c-0.3,0.2-1,0.6-1.6,1.1c-1.1-1.4-1.8-2.1-2.3-2.5
				L954.3,1733.8z M958.2,1733.5c0.8,0.8,1.9,2.1,2.4,2.7c-0.4,0.3-0.5,0.3-1.6,1.1c-0.2-0.3-1.2-1.7-2.3-2.7L958.2,1733.5z"/>
			<path d="M970.8,1736.4c0.3,0,0.6,0,0.6,0.3c0,0.3-0.3,0.4-0.5,0.5v6.4c0,5.3-1.5,8.7-6.5,12.2c-0.5-0.7-0.9-1-2.2-1.9
				c5.2-3,5.9-6.2,5.9-10.1v-7.6L970.8,1736.4z M977.1,1736.2c0.3,0,0.5,0,0.5,0.3c0,0.2-0.3,0.3-0.5,0.5v14.8
				c3.2-1.9,6.3-4.9,8.3-7.8c0.7,1.5,0.8,1.7,1.4,2.4c-3,4.2-7.4,7.3-9.2,8.6c-0.9,0.6-1,0.7-1.5,1.1l-1.9-1.3
				c0.1-0.5,0.1-1.3,0.1-2V1736L977.1,1736.2z"/>
			<path d="M1013.9,1744.9v2.8h-22.2v-2.8H1013.9z"/>
			<path d="M1032.8,1737.8c1.1,0,1.5-0.1,1.8-0.2l2,1.7c-0.4,0.7-0.5,0.9-0.7,1.5c-3.1,8.3-6.4,12.7-14.9,16.8
				c-0.7-1.1-1.7-1.9-2.1-2.1c3.8-1.6,10.6-4.5,14-15.1h-17v-2.5H1032.8z M1039.6,1735.7c0,1.3-1,2.4-2.4,2.4c-1.3,0-2.4-1-2.4-2.4
				c0-1.3,1.1-2.3,2.4-2.3C1038.6,1733.4,1039.6,1734.4,1039.6,1735.7z M1036,1735.7c0,0.7,0.6,1.3,1.3,1.3c0.7,0,1.3-0.6,1.3-1.3
				c0-0.7-0.6-1.3-1.3-1.3C1036.6,1734.5,1036,1735,1036,1735.7z"/>
		</g>
	</g>
	<line class="st7" x1="811.5" y1="1746.7" x2="611.5" y2="1746.7"/>
	<g>
		<g>
			<path class="st0" d="M1111.5,2051.7c0,5.5-4.5,10-10,10h-280c-5.5,0-10-4.5-10-10v-50c0-5.5,4.5-10,10-10h280c5.5,0,10,4.5,10,10
				V2051.7z"/>
			<path class="st8" d="M1111.5,2051.7c0,5.5-4.5,10-10,10h-280c-5.5,0-10-4.5-10-10v-50c0-5.5,4.5-10,10-10h280c5.5,0,10,4.5,10,10
				V2051.7z"/>
		</g>
		<g>
			<path d="M892.4,2018.5c-0.4-0.8-1.4-2.3-2.3-3.3l2.2-1.2c0.7,0.8,1.8,2.3,2.5,3.5c-1.3,0.6-1.5,0.8-1.8,1h3.3
				c1.7-2,2.5-3.3,3-4.1l2.2,1.2c0.1,0.1,0.3,0.2,0.3,0.4c0,0.3-0.1,0.3-0.8,0.3c-0.7,1.1-1.1,1.5-1.7,2.2h5.6v5.8h-2.8v-3.6H885
				v3.6h-2.8v-5.8h4.4c-0.3-0.6-1.4-2.1-2.1-2.8l2.2-1.1c0.6,0.7,1.8,2.3,2.4,3.2c-0.7,0.4-0.8,0.4-1.3,0.8H892.4z M902.6,2030.4
				v7.7h-2.7v-0.9h-12.6v0.9h-2.7v-7.7h6.5c0.1-0.1,0.8-1.5,0.9-1.8h-5.1v-6.5h13.2v6.5H895c-0.4,0.8-0.6,1.2-0.9,1.8H902.6z
				 M899.9,2035.1v-2.6h-12.6v2.6H899.9z M889.6,2024.1v2.4h7.9v-2.4H889.6z"/>
			<path d="M923,2038.2h-2.5v-5.6c-2.7,2.4-6.2,4.6-8.2,5.4c-0.9-1.2-1.5-1.6-2-1.9c3.7-1.3,7.2-3.5,8.9-5H910v-2.1h10.5v-1.3H913
				v-2h7.5v-1.2h-9.2v-2.1h6c-0.1-0.2-0.5-1.1-1-1.9l1.4-0.4H910v-2.1h4.3c-0.6-1-1.2-1.8-1.5-2.2l2.1-1.3c0.5,0.8,1.3,1.8,1.9,2.9
				c-0.2,0.1-0.7,0.2-1.3,0.5h2.5v-3.6l2.5,0.1c0.2,0,0.5,0.1,0.5,0.3c0,0.3-0.2,0.3-0.5,0.4v2.7h2.3v-3.5l2.5,0.1
				c0.2,0,0.5,0.1,0.5,0.3c0,0.3-0.4,0.4-0.5,0.5v2.6h2.6c-0.5-0.3-0.9-0.4-1.5-0.5c1-1.5,1.4-2,1.7-2.9l2.6,1
				c0.1,0.1,0.2,0.2,0.2,0.3c0,0.3-0.3,0.4-0.8,0.3c-0.4,0.6-0.8,1.2-1.3,1.9h4.6v2.1h-5.7c0.1,0.1,0.2,0.2,0.2,0.3
				c0,0.2-0.1,0.4-0.8,0.4c-0.3,0.6-0.6,1.2-0.8,1.7h5.5v2.1h-9v1.2h7.3v2H923v1.3h10.6v2.1h-9.2c1.7,1.6,4.5,3.4,8.9,4.8
				c-1.1,0.9-1.5,1.4-1.8,2c-2-0.7-5.9-2.8-8.5-5.4V2038.2z M918.8,2020c0.4,0.7,0.8,1.4,1,2c-0.2,0-0.8,0.2-1.6,0.4h5.5
				c0.4-0.7,0.8-1.5,1.1-2.4H918.8z"/>
			<path d="M955.5,2018.7c0.8,0,1.3-0.2,1.8-0.4l1.5,1.4c-0.4,0.6-0.5,0.9-0.8,1.6c-2.2,5-3.6,8.3-7.1,11.9
				c-3.2,3.3-6.4,4.7-7.7,5.2c-0.7-0.8-1-1.1-2.1-2c8-3.2,11.6-8.4,13.8-15.2h-8.1c-1.8,2.6-3.6,4.8-6.4,7.3
				c-1.1-1.1-1.1-1.2-2.1-1.9c3.8-3,7.2-7.3,8.9-11.9l2.5,1.1c0.1,0.1,0.4,0.2,0.4,0.4c0,0.3-0.4,0.3-0.6,0.3
				c-0.3,0.5-0.4,0.9-1.1,2.2H955.5z M954.3,2013.8c0.6,0.6,1.7,1.7,2.4,2.5c-0.3,0.2-1,0.6-1.6,1.1c-1.1-1.4-1.8-2.1-2.3-2.5
				L954.3,2013.8z M958.2,2013.5c0.8,0.8,1.9,2.1,2.4,2.7c-0.4,0.3-0.5,0.3-1.6,1.1c-0.2-0.3-1.2-1.7-2.3-2.7L958.2,2013.5z"/>
			<path d="M970.8,2016.4c0.3,0,0.6,0,0.6,0.3c0,0.3-0.3,0.4-0.5,0.5v6.4c0,5.3-1.5,8.7-6.5,12.2c-0.5-0.7-0.9-1-2.2-1.9
				c5.2-3,5.9-6.2,5.9-10.1v-7.6L970.8,2016.4z M977.1,2016.2c0.3,0,0.5,0,0.5,0.3c0,0.2-0.3,0.3-0.5,0.5v14.8
				c3.2-1.9,6.3-4.9,8.3-7.8c0.7,1.5,0.8,1.7,1.4,2.4c-3,4.2-7.4,7.3-9.2,8.6c-0.9,0.6-1,0.7-1.5,1.1l-1.9-1.3
				c0.1-0.5,0.1-1.3,0.1-2V2016L977.1,2016.2z"/>
			<path d="M1013.9,2024.9v2.8h-22.2v-2.8H1013.9z"/>
			<path d="M1032.8,2017.8c1.1,0,1.5-0.1,1.8-0.2l2,1.7c-0.4,0.7-0.5,0.9-0.7,1.5c-3.1,8.3-6.4,12.7-14.9,16.8
				c-0.7-1.1-1.7-1.9-2.1-2.1c3.8-1.6,10.6-4.5,14-15.1h-17v-2.5H1032.8z M1039.6,2015.7c0,1.3-1,2.4-2.4,2.4c-1.3,0-2.4-1-2.4-2.4
				c0-1.3,1.1-2.3,2.4-2.3C1038.6,2013.4,1039.6,2014.4,1039.6,2015.7z M1036,2015.7c0,0.7,0.6,1.3,1.3,1.3c0.7,0,1.3-0.6,1.3-1.3
				c0-0.7-0.6-1.3-1.3-1.3C1036.6,2014.5,1036,2015,1036,2015.7z"/>
		</g>
	</g>
	<line class="st7" x1="811.5" y1="2026.7" x2="611.5" y2="2026.7"/>
	<g>
		<g>
			<path class="st0" d="M611.5,1631.7c0,5.5-4.5,10-10,10h-280c-5.5,0-10-4.5-10-10v-50c0-5.5,4.5-10,10-10h280c5.5,0,10,4.5,10,10
				V1631.7z"/>
			<path class="st8" d="M611.5,1631.7c0,5.5-4.5,10-10,10h-280c-5.5,0-10-4.5-10-10v-50c0-5.5,4.5-10,10-10h280c5.5,0,10,4.5,10,10
				V1631.7z"/>
		</g>
		<g>
			<path d="M417.4,1608.1v9.9H415v-1h-3.4v1.2h-2.4v-6.1c-0.7,0.9-1.2,1.5-1.7,2c-0.9-1.1-1.6-1.5-2.1-1.7c1-0.8,3.1-2.5,4.2-6.1
				h-2.6v-2.2h3c0.2-1.2,0.2-1.8,0.2-2.2h-4v-2.2h4.1v-2.1h-3.1v-2.2h10.3v4.3h1.1v2.2h-1.1v4.4h-5.4c-0.3,1-0.5,1.5-0.6,1.9H417.4z
				 M411.6,1610.4v4.2h3.4v-4.2H411.6z M412.7,1601.8c-0.1,1.2-0.1,1.7-0.2,2.2h2.5v-2.2H412.7z M412.8,1597.5c0,0.5,0,1,0,2.1h2.3
				v-2.1H412.8z M425.7,1604.7h3.6v2.4h-3.6v3.4h4.5v2.4h-4.5v5.2h-2.6v-5.2h-4.7v-2.4h4.7v-3.4h-3.6v-2.4h3.6v-3.5h-4v-2.3h2.3
				c-0.7-1.5-1.2-2.2-2.2-3.6l2.1-1.2c0.9,0.9,2.1,2.8,2.5,3.8c-0.9,0.4-1.5,0.9-1.7,1h2.3c1.4-2.1,2-3.6,2.5-4.7l2.6,1
				c0.1,0.1,0.3,0.2,0.3,0.3c0,0.3-0.4,0.3-0.7,0.3c-0.3,0.5-1.5,2.7-1.7,3.1h2.3v2.3h-4V1604.7z"/>
			<path d="M438.9,1611.5c0.3,0.1,0.7,0.2,0.7,0.5c0,0.3-0.4,0.3-0.7,0.4c-0.8,2.7-2.1,4.7-2.7,5.5c-0.8-0.5-1.5-0.8-2.5-1.1
				c1.5-1.9,2.6-4.2,3-5.9L438.9,1611.5z M454.6,1599.1v2.1h-6.7v1.8h6.7v2.2h-6.7v2h9.4c-0.1,1.2-0.2,6.1-1.6,8.9
				c-0.3,0.7-1,1.9-4.4,1.9c-0.3,0-0.6,0-0.9,0c-0.1-1.1-0.6-2.2-0.9-2.8c0.7,0.1,1.6,0.2,2.3,0.2c0.6,0,1.3,0,1.7-1
				c0.5-1.1,0.9-3.3,1-5.1h-15.1v1.1h-2.7v-15.4h19.6v2.2h-8.5v1.8H454.6z M445.2,1599.1v-1.8h-5.7v1.8H445.2z M445.2,1603v-1.8
				h-5.7v1.8H445.2z M445.2,1607.2v-2h-5.7v2H445.2z M442.4,1611.2c0.7,2.3,1,4.1,1.1,5.3c-0.3,0-1.6,0.2-2.7,0.5
				c-0.1-2-0.3-3.3-0.8-5.3L442.4,1611.2z M446.8,1610.6c0.5,1.2,1.2,3.3,1.5,4.7c-1.4,0.2-2.1,0.4-2.5,0.6
				c-0.4-2.3-0.8-3.6-1.3-4.7L446.8,1610.6z M451,1610.1c0.5,0.8,1.4,2.7,1.8,4c-0.9,0.2-1.9,0.6-2.3,0.8c-0.5-1.7-0.9-2.7-1.6-4.1
				L451,1610.1z"/>
			<path d="M475.3,1613.7h10.5v2.6H462v-2.6h10.4v-14.6h-8.7v-2.6H484v2.6h-8.7V1613.7z"/>
			<path d="M499.1,1600.2v2.4h-3v6.1c2-0.8,2.2-0.8,3.1-1.2c-0.2,0.6-0.3,1.3-0.3,1.9c0,0.3,0,0.4,0.1,0.6c-2.2,1-6.6,2.6-7.4,2.9
				c0,0.3-0.1,0.7-0.4,0.7c-0.2,0-0.3-0.3-0.4-0.6l-0.7-2.5c1.1-0.2,2.2-0.5,3.4-0.9v-7h-3.1v-2.4h3.1v-5.7l2.7,0.2
				c0.2,0,0.5,0.1,0.5,0.3c0,0.2-0.2,0.3-0.6,0.5v4.8H499.1z M501.5,1610.3c-1.6,2-3,3-3.6,3.4c-0.8-0.9-1.4-1.2-1.8-1.4
				c3-2,4.1-3.6,5.3-5.4h-3v-2H514v2h-10.2c-0.2,0.4-0.5,0.9-0.8,1.2h10.4c0,3.3-0.5,6.4-0.9,7.7c-0.4,1.2-1,2.2-3.9,2.2
				c-0.3,0-0.5,0-0.9-0.1c-0.1-0.4-0.1-1.1-0.9-2.7c1,0.2,1.9,0.2,2,0.2c0.6,0,1.1,0,1.4-1.3c0.3-1,0.5-2.4,0.6-4h-1.2
				c-2.1,4.5-5,7-6.2,8c-0.4-0.4-0.8-0.7-2-1.3c0.6-0.4,3.6-2.4,5.9-6.7h-1.6c-1.1,1.8-2.7,3.7-3.9,4.8c-1,0.9-1.9,1.6-3.4,2.4
				c-0.6-0.7-0.9-1-1.8-1.6c2.7-1.2,4.9-3.2,6.6-5.6H501.5z M511.8,1603.9h-11.4v-8.9h11.4V1603.9z M509.4,1598.5v-1.5H503v1.5
				H509.4z M503,1600.3v1.6h6.4v-1.6H503z"/>
		</g>
	</g>
	<line class="st8" x1="111.5" y1="1606.7" x2="311.5" y2="1606.7"/>
	<line class="st8" x1="311.5" y1="1466.7" x2="111.5" y2="1466.7"/>
	<g>
		<g>
			<path class="st0" d="M611.5,1771.7c0,5.5-4.5,10-10,10h-280c-5.5,0-10-4.5-10-10v-50c0-5.5,4.5-10,10-10h280c5.5,0,10,4.5,10,10
				V1771.7z"/>
			<path class="st8" d="M611.5,1771.7c0,5.5-4.5,10-10,10h-280c-5.5,0-10-4.5-10-10v-50c0-5.5,4.5-10,10-10h280c5.5,0,10,4.5,10,10
				V1771.7z"/>
		</g>
		<g>
			<path d="M414,1746.8v8.5c0,1.2,0,3-4.6,2.8c-0.1-0.9-0.4-1.9-0.9-2.6c0.6,0.1,0.9,0.1,1.3,0.1c1.5,0,1.5-0.4,1.5-1.5v-7.3h-11.6
				v-2.2h3c-0.4-0.6-1.5-1.5-1.8-1.7v0.3H398v7.4c0.8-0.3,1.4-0.5,2.6-1c-0.1,0.8-0.1,1.1-0.1,1.4c0,0.5,0,0.8,0.1,1
				c-1.5,0.7-4.8,2.1-7,2.8c-0.1,0.3-0.2,0.6-0.4,0.6c-0.2,0-0.3-0.3-0.4-0.4l-0.4-2.7c0.8-0.2,1.4-0.3,3-0.9v-8.4h-2.9v-2.4h2.9v-6
				l2.9,0.3c0.2,0,0.4,0.1,0.4,0.3c0,0.2-0.1,0.3-0.6,0.6v4.9h3.1v2c1.1-0.5,3-1.4,4.2-3.4h-4.8v-2.2h5.7c0.3-1.3,0.3-2.5,0.2-2.9
				l2.9,0.2c0.2,0,0.5,0.1,0.5,0.3c0,0.3-0.1,0.4-0.6,0.6c-0.2,1.1-0.2,1.4-0.3,1.8h6.7v2.2h-5.1c1.3,1.6,2.4,2.5,4.7,3.5
				c-0.9,0.8-1.2,1.1-1.7,1.8h2.8v2.2H414z M404.3,1754.7v1.7h-2.5v-8.4h7.7v6.7H404.3z M407.9,1739.7c-1.5,2.8-3.7,4.1-5,4.8h9.9
				C410.7,1743.4,408.9,1741.5,407.9,1739.7z M407.2,1750.1h-2.9v2.6h2.9V1750.1z"/>
			<path d="M433,1744.4h7.9v2.5H433v7.7h10.7v2.6h-23.8v-2.6h10.4v-7.7h-7.3v-2.5h7.3v-6.3h-8.8v-2.5h20.8v2.5H433V1744.4z
				 M437.5,1747.3c1.5,1.5,3.1,3.7,4,5.1c-0.3,0.2-1.4,1-1.6,1.1c-0.4,0.3-0.6,0.5-0.8,0.7c-1.4-2.5-2-3.3-3.8-5.3L437.5,1747.3z"/>
			<path d="M458.2,1738.5c-0.4-0.8-1.4-2.3-2.3-3.3l2.2-1.2c0.6,0.8,1.8,2.3,2.5,3.5c-1.3,0.6-1.5,0.8-1.8,1h3.3
				c1.7-2,2.5-3.3,3-4.1l2.2,1.2c0.1,0.1,0.3,0.2,0.3,0.4c0,0.3-0.1,0.3-0.8,0.3c-0.7,1.1-1.1,1.5-1.7,2.2h5.6v5.8h-2.8v-3.6h-17.2
				v3.6H448v-5.8h4.4c-0.3-0.6-1.4-2.1-2.1-2.8l2.2-1.1c0.6,0.7,1.8,2.3,2.4,3.2c-0.7,0.4-0.8,0.4-1.3,0.8H458.2z M468.3,1750.4v7.7
				h-2.7v-0.9h-12.6v0.9h-2.7v-7.7h6.5c0.1-0.1,0.8-1.5,0.9-1.8h-5.1v-6.5h13.2v6.5h-5.2c-0.4,0.8-0.6,1.2-0.9,1.8H468.3z
				 M465.6,1755.1v-2.6h-12.6v2.6H465.6z M455.4,1744.1v2.4h7.9v-2.4H455.4z"/>
			<path d="M488.8,1758.2h-2.5v-5.6c-2.7,2.4-6.2,4.6-8.2,5.4c-0.9-1.2-1.5-1.6-2-1.9c3.7-1.3,7.2-3.5,8.9-5h-9.3v-2.1h10.5v-1.3
				h-7.5v-2h7.5v-1.2h-9.2v-2.1h6c-0.1-0.2-0.5-1.1-1-1.9l1.4-0.4h-7.7v-2.1h4.3c-0.6-1-1.2-1.8-1.5-2.2l2.1-1.3
				c0.5,0.8,1.3,1.8,1.9,2.9c-0.2,0.1-0.7,0.2-1.3,0.5h2.5v-3.6l2.5,0.1c0.2,0,0.5,0.1,0.5,0.3c0,0.3-0.2,0.3-0.5,0.4v2.7h2.3v-3.5
				l2.5,0.1c0.2,0,0.5,0.1,0.5,0.3c0,0.3-0.4,0.4-0.5,0.5v2.6h2.6c-0.5-0.3-0.9-0.4-1.5-0.5c1-1.5,1.4-2,1.7-2.9l2.6,1
				c0.1,0.1,0.2,0.2,0.2,0.3c0,0.3-0.3,0.4-0.8,0.3c-0.4,0.6-0.8,1.2-1.3,1.9h4.6v2.1h-5.7c0.1,0.1,0.2,0.2,0.2,0.3
				c0,0.2-0.1,0.4-0.8,0.4c-0.3,0.6-0.6,1.2-0.8,1.7h5.5v2.1h-9v1.2h7.3v2h-7.3v1.3h10.6v2.1h-9.2c1.7,1.6,4.6,3.4,8.9,4.8
				c-1.1,0.9-1.5,1.4-1.8,2c-2-0.7-5.9-2.8-8.5-5.4V1758.2z M484.6,1740c0.4,0.7,0.8,1.4,1,2c-0.2,0-0.8,0.2-1.6,0.4h5.5
				c0.4-0.7,0.8-1.5,1.1-2.4H484.6z"/>
			<path d="M515.2,1740.2v8.6h-6.9c-0.1,1.8-0.2,6.1-2.1,9.6c-0.9-0.5-1.6-0.7-2.7-0.9c1.8-2.7,2.2-5.8,2.2-9.4v-7.8H515.2z
				 M516,1735.5v2.3h-11.6v-2.3H516z M508.4,1742.5v3.9h4.3v-3.9H508.4z M525.1,1758h-2.6v-13.4h-2.9c0,2.9-0.1,8.9-5.6,13.7
				c-0.8-0.8-0.9-0.8-2.3-1.6c1.7-1.1,3-2.7,3.9-4.5c0.9-1.7,1.4-3.5,1.4-7v-9.4l2.1,0.2c1,0,4.6-0.8,6.9-1.9l1.7,2.3
				c0.1,0.1,0.1,0.2,0.1,0.3c0,0.2-0.1,0.3-0.3,0.3c-0.2,0-0.4-0.1-0.7-0.3c-2.4,0.9-4.7,1.4-7.2,1.7v3.8h8.4v2.5h-2.8V1758z"/>
		</g>
	</g>
	<g>
		<g>
			<path class="st0" d="M611.5,1911.7c0,5.5-4.5,10-10,10h-280c-5.5,0-10-4.5-10-10v-50c0-5.5,4.5-10,10-10h280c5.5,0,10,4.5,10,10
				V1911.7z"/>
			<path class="st8" d="M611.5,1911.7c0,5.5-4.5,10-10,10h-280c-5.5,0-10-4.5-10-10v-50c0-5.5,4.5-10,10-10h280c5.5,0,10,4.5,10,10
				V1911.7z"/>
		</g>
		<g>
			<path d="M427.7,1886.8v8.5c0,1.2,0,3-4.6,2.8c-0.1-0.9-0.4-1.9-0.9-2.6c0.6,0.1,0.9,0.1,1.3,0.1c1.5,0,1.5-0.4,1.5-1.5v-7.3
				h-11.6v-2.2h3c-0.4-0.6-1.5-1.5-1.8-1.7v0.3h-3.1v7.4c0.8-0.3,1.4-0.5,2.6-1c-0.1,0.8-0.1,1.1-0.1,1.4c0,0.5,0,0.8,0.1,1
				c-1.5,0.7-4.8,2.1-7,2.8c-0.1,0.3-0.2,0.6-0.4,0.6c-0.2,0-0.3-0.3-0.4-0.4l-0.4-2.7c0.8-0.2,1.4-0.3,3-0.9v-8.4h-2.9v-2.4h2.9v-6
				l2.9,0.3c0.2,0,0.4,0.1,0.4,0.3c0,0.2-0.1,0.3-0.6,0.6v4.9h3.1v2c1.1-0.5,3-1.4,4.2-3.4h-4.8v-2.2h5.7c0.3-1.3,0.3-2.5,0.2-2.9
				l2.9,0.2c0.2,0,0.5,0.1,0.5,0.3c0,0.3-0.1,0.4-0.6,0.6c-0.2,1.1-0.2,1.4-0.3,1.8h6.7v2.2H424c1.3,1.6,2.4,2.5,4.7,3.5
				c-0.9,0.8-1.2,1.1-1.7,1.8h2.8v2.2H427.7z M418,1894.7v1.7h-2.5v-8.4h7.7v6.7H418z M421.5,1879.7c-1.5,2.8-3.7,4.1-5,4.8h9.9
				C424.3,1883.4,422.5,1881.5,421.5,1879.7z M420.9,1890.1H418v2.6h2.9V1890.1z"/>
			<path d="M446.7,1884.4h7.9v2.5h-7.9v7.7h10.7v2.6h-23.8v-2.6h10.4v-7.7h-7.3v-2.5h7.3v-6.3h-8.8v-2.5h20.8v2.5h-9.2V1884.4z
				 M451.2,1887.3c1.5,1.5,3.1,3.7,4,5.1c-0.3,0.2-1.4,1-1.6,1.1c-0.4,0.3-0.6,0.5-0.8,0.7c-1.4-2.5-2-3.3-3.8-5.3L451.2,1887.3z"/>
			<path d="M475.4,1893.7h10.5v2.6h-23.8v-2.6h10.4v-14.6h-8.7v-2.6h20.3v2.6h-8.7V1893.7z"/>
			<path d="M499.2,1880.2v2.4h-3v6.1c2-0.8,2.2-0.8,3.1-1.2c-0.2,0.6-0.3,1.3-0.3,1.9c0,0.3,0,0.4,0.1,0.6c-2.2,1-6.6,2.6-7.4,2.9
				c0,0.3-0.1,0.7-0.4,0.7c-0.2,0-0.3-0.3-0.4-0.6l-0.6-2.5c1.1-0.2,2.2-0.5,3.4-0.9v-7h-3.1v-2.4h3.1v-5.7l2.7,0.2
				c0.2,0,0.5,0.1,0.5,0.3c0,0.2-0.2,0.3-0.6,0.5v4.8H499.2z M501.6,1890.3c-1.6,2-3,3-3.6,3.4c-0.8-0.9-1.4-1.2-1.8-1.4
				c3-2,4.1-3.6,5.3-5.4h-3v-2h15.7v2h-10.2c-0.2,0.4-0.5,0.9-0.8,1.2h10.4c0,3.3-0.5,6.4-0.9,7.7c-0.4,1.2-1,2.2-3.9,2.2
				c-0.3,0-0.5,0-0.9-0.1c-0.1-0.4-0.1-1.1-0.9-2.7c1,0.2,1.9,0.2,2,0.2c0.6,0,1.1,0,1.4-1.3c0.3-1,0.5-2.4,0.6-4h-1.2
				c-2.1,4.5-5,7-6.2,8c-0.4-0.4-0.8-0.7-2-1.3c0.6-0.4,3.6-2.4,5.9-6.7h-1.6c-1.1,1.8-2.7,3.7-3.9,4.8c-1,0.9-2,1.6-3.4,2.4
				c-0.6-0.7-0.9-1-1.8-1.6c2.7-1.2,4.9-3.2,6.6-5.6H501.6z M511.9,1883.9h-11.4v-8.9h11.4V1883.9z M509.5,1878.5v-1.5h-6.4v1.5
				H509.5z M503.1,1880.3v1.6h6.4v-1.6H503.1z"/>
		</g>
	</g>
	<line class="st8" x1="111.5" y1="1886.7" x2="311.5" y2="1886.7"/>
	<line class="st8" x1="311.5" y1="1746.7" x2="111.5" y2="1746.7"/>
	<g>
		<g>
			<path class="st0" d="M611.5,2051.7c0,5.5-4.5,10-10,10h-280c-5.5,0-10-4.5-10-10v-50c0-5.5,4.5-10,10-10h280c5.5,0,10,4.5,10,10
				V2051.7z"/>
			<path class="st8" d="M611.5,2051.7c0,5.5-4.5,10-10,10h-280c-5.5,0-10-4.5-10-10v-50c0-5.5,4.5-10,10-10h280c5.5,0,10,4.5,10,10
				V2051.7z"/>
		</g>
		<g>
			<path d="M402,2026.8h13.1v11.2h-2.4v-1.4h-8.2v1.4H402v-9.8c-0.2,0.2-1.1,1.3-1.6,2.1c-0.7-0.6-1.3-1.1-2.2-2.2v10h-2.6v-9.2
				c-1.3,1.3-2.1,1.8-2.5,2.1c-0.2-0.4-0.6-1.1-1.7-2c3.2-1.9,6-5.3,7.1-7.6h-6.2v-2.3h3.3v-4.8l2.6,0.1c0.4,0,0.4,0.2,0.4,0.3
				c0,0.2-0.1,0.2-0.5,0.5v3.9h2.6l1,1.2c-1,2-1.6,3-3,4.8c1.2,1.2,2.1,1.9,3.1,2.8V2026.8z M415.9,2015.2v2.2h-14.8v-2.2H415.9z
				 M414.2,2025.4h-10.9v-6.7h10.9V2025.4z M407.4,2030.8v-1.9h-2.9v1.9H407.4z M407.4,2034.6v-2h-2.9v2H407.4z M405.7,2020.7v2.6h6
				v-2.6H405.7z M412.7,2030.8v-1.9h-3v1.9H412.7z M409.7,2032.6v2h3v-2H409.7z"/>
			<path d="M423.3,2037.4h-2.6v-6.1l2.7,0.2c0.3,0,0.5,0.1,0.5,0.3c0,0.2-0.2,0.3-0.6,0.4v1.9h3.9v-3.1h-4v-14.4h4.6
				c0.2-0.5,0.6-1.4,0.9-2.4l3,0.3c0.2,0,0.5,0.1,0.5,0.3c0,0.3-0.4,0.4-0.8,0.5c-0.1,0.3-0.3,0.9-0.6,1.4h9.1v8.3h-13.9v1.3h17.8
				v1.7h-17.8v1.3h17.1c-0.1,0.9-0.2,5.7-1.5,7.7c-1,1.4-1.9,1.5-4.9,1.5c-0.1-0.4-0.2-1.2-0.5-2.1h-12.8V2037.4z M426.1,2019.8
				h11.2v-1.4h-11.2V2019.8z M437.3,2021.5h-11.2v1.5h11.2V2021.5z M433.7,2034v-2.6l2.7,0.2c0.5,0,0.8,0.1,0.8,0.4
				c0,0.3-0.5,0.4-0.8,0.4v2.9c0.5,0.1,1.3,0.2,1.7,0.2c1.1,0,1.4-0.4,1.6-0.9c0.1-0.3,0.5-1.5,0.6-3.7h-10.1
				c0.4,0.1,0.6,0.2,0.6,0.3c0,0.3-0.5,0.4-0.7,0.4v2.4H433.7z"/>
			<path d="M458.4,2018.5c-0.4-0.8-1.4-2.3-2.3-3.3l2.2-1.2c0.6,0.8,1.8,2.3,2.5,3.5c-1.3,0.6-1.5,0.8-1.8,1h3.3
				c1.7-2,2.5-3.3,3-4.1l2.2,1.2c0.1,0.1,0.3,0.2,0.3,0.4c0,0.3-0.1,0.3-0.8,0.3c-0.7,1.1-1.1,1.5-1.7,2.2h5.6v5.8h-2.8v-3.6H451
				v3.6h-2.8v-5.8h4.4c-0.3-0.6-1.4-2.1-2.1-2.8l2.2-1.1c0.6,0.7,1.8,2.3,2.4,3.2c-0.7,0.4-0.8,0.4-1.3,0.8H458.4z M468.6,2030.4
				v7.7h-2.7v-0.9h-12.6v0.9h-2.7v-7.7h6.5c0.1-0.1,0.8-1.5,0.9-1.8H453v-6.5h13.2v6.5H461c-0.4,0.8-0.6,1.2-0.9,1.8H468.6z
				 M465.9,2035.1v-2.6h-12.6v2.6H465.9z M455.7,2024.1v2.4h7.9v-2.4H455.7z"/>
			<path d="M489.1,2038.2h-2.5v-5.6c-2.7,2.4-6.2,4.6-8.2,5.4c-0.9-1.2-1.5-1.6-2-1.9c3.7-1.3,7.2-3.5,8.9-5h-9.3v-2.1h10.5v-1.3
				h-7.5v-2h7.5v-1.2h-9.2v-2.1h6c-0.1-0.2-0.5-1.1-1-1.9l1.4-0.4h-7.7v-2.1h4.3c-0.6-1-1.2-1.8-1.5-2.2l2.1-1.3
				c0.5,0.8,1.3,1.8,1.9,2.9c-0.2,0.1-0.7,0.2-1.3,0.5h2.5v-3.6l2.5,0.1c0.2,0,0.5,0.1,0.5,0.3c0,0.3-0.2,0.3-0.5,0.4v2.7h2.3v-3.5
				l2.5,0.1c0.2,0,0.5,0.1,0.5,0.3c0,0.3-0.4,0.4-0.5,0.5v2.6h2.6c-0.5-0.3-0.9-0.4-1.5-0.5c1-1.5,1.4-2,1.7-2.9l2.6,1
				c0.1,0.1,0.2,0.2,0.2,0.3c0,0.3-0.3,0.4-0.8,0.3c-0.4,0.6-0.8,1.2-1.3,1.9h4.6v2.1H494c0.1,0.1,0.2,0.2,0.2,0.3
				c0,0.2-0.1,0.4-0.8,0.4c-0.3,0.6-0.6,1.2-0.8,1.7h5.5v2.1h-9v1.2h7.3v2h-7.3v1.3h10.6v2.1h-9.2c1.7,1.6,4.5,3.4,8.9,4.8
				c-1.1,0.9-1.5,1.4-1.8,2c-2-0.7-5.9-2.8-8.5-5.4V2038.2z M484.8,2020c0.4,0.7,0.8,1.4,1,2c-0.2,0-0.8,0.2-1.6,0.4h5.5
				c0.4-0.7,0.8-1.5,1.1-2.4H484.8z"/>
			<path d="M515.5,2020.2v8.6h-6.9c-0.1,1.8-0.2,6.1-2.1,9.6c-0.9-0.5-1.6-0.7-2.7-0.9c1.8-2.7,2.2-5.8,2.2-9.4v-7.8H515.5z
				 M516.3,2015.5v2.3h-11.6v-2.3H516.3z M508.6,2022.5v3.9h4.3v-3.9H508.6z M525.3,2038h-2.6v-13.4h-2.9c0,2.9-0.1,8.9-5.6,13.7
				c-0.8-0.8-0.9-0.8-2.3-1.6c1.7-1.1,3-2.7,3.9-4.5c0.9-1.7,1.4-3.5,1.4-7v-9.4l2.1,0.2c1,0,4.6-0.8,6.9-1.9l1.7,2.3
				c0.1,0.1,0.1,0.2,0.1,0.3c0,0.2-0.1,0.3-0.3,0.3c-0.2,0-0.4-0.1-0.7-0.3c-2.4,0.9-4.7,1.4-7.2,1.7v3.8h8.4v2.5h-2.8V2038z"/>
		</g>
	</g>
	<g>
		<g>
			<path class="st0" d="M611.5,2191.7c0,5.5-4.5,10-10,10h-280c-5.5,0-10-4.5-10-10v-50c0-5.5,4.5-10,10-10h280c5.5,0,10,4.5,10,10
				V2191.7z"/>
			<path class="st8" d="M611.5,2191.7c0,5.5-4.5,10-10,10h-280c-5.5,0-10-4.5-10-10v-50c0-5.5,4.5-10,10-10h280c5.5,0,10,4.5,10,10
				V2191.7z"/>
		</g>
		<g>
			<path d="M416.1,2166.8h13.1v11.2h-2.4v-1.4h-8.2v1.4h-2.5v-9.8c-0.2,0.2-1.1,1.3-1.6,2.1c-0.7-0.6-1.3-1.1-2.2-2.2v10h-2.6v-9.2
				c-1.3,1.3-2.1,1.8-2.5,2.1c-0.2-0.4-0.6-1.1-1.7-2c3.2-1.9,6-5.3,7.1-7.6h-6.2v-2.3h3.3v-4.8l2.6,0.1c0.4,0,0.4,0.2,0.4,0.3
				c0,0.2-0.1,0.2-0.5,0.5v3.9h2.6l1,1.2c-1,2-1.6,3-3,4.8c1.2,1.2,2.1,1.9,3.1,2.8V2166.8z M430,2155.2v2.2h-14.8v-2.2H430z
				 M428.2,2165.4h-10.9v-6.7h10.9V2165.4z M421.5,2170.8v-1.9h-2.9v1.9H421.5z M421.5,2174.6v-2h-2.9v2H421.5z M419.7,2160.7v2.6h6
				v-2.6H419.7z M426.8,2170.8v-1.9h-3v1.9H426.8z M423.7,2172.6v2h3v-2H423.7z"/>
			<path d="M437.3,2177.4h-2.6v-6.1l2.7,0.2c0.3,0,0.5,0.1,0.5,0.3c0,0.2-0.2,0.3-0.6,0.4v1.9h3.9v-3.1h-4v-14.4h4.6
				c0.2-0.5,0.6-1.4,0.9-2.4l3,0.3c0.2,0,0.5,0.1,0.5,0.3c0,0.3-0.4,0.4-0.8,0.5c-0.1,0.3-0.3,0.9-0.6,1.4h9.1v8.3h-13.9v1.3h17.8
				v1.7h-17.8v1.3h17.1c-0.1,0.9-0.2,5.7-1.5,7.7c-1,1.4-1.9,1.5-4.9,1.5c-0.1-0.4-0.2-1.2-0.5-2.1h-12.8V2177.4z M440.1,2159.8
				h11.2v-1.4h-11.2V2159.8z M451.3,2161.5h-11.2v1.5h11.2V2161.5z M447.7,2174v-2.6l2.7,0.2c0.5,0,0.8,0.1,0.8,0.4
				c0,0.3-0.5,0.4-0.8,0.4v2.9c0.5,0.1,1.3,0.2,1.7,0.2c1.1,0,1.4-0.4,1.6-0.9c0.1-0.3,0.5-1.5,0.6-3.7h-10.1
				c0.4,0.1,0.6,0.2,0.6,0.3c0,0.3-0.5,0.4-0.7,0.4v2.4H447.7z"/>
			<path d="M475.3,2173.7h10.5v2.6h-23.8v-2.6h10.4v-14.6h-8.7v-2.6H484v2.6h-8.7V2173.7z"/>
			<path d="M499.1,2160.2v2.4h-3v6.1c2-0.8,2.2-0.8,3.1-1.2c-0.2,0.6-0.3,1.3-0.3,1.9c0,0.3,0,0.4,0.1,0.6c-2.2,1-6.6,2.6-7.4,2.9
				c0,0.3-0.1,0.7-0.4,0.7c-0.2,0-0.3-0.3-0.4-0.6l-0.7-2.5c1.1-0.2,2.2-0.5,3.4-0.9v-7h-3.1v-2.4h3.1v-5.7l2.7,0.2
				c0.2,0,0.5,0.1,0.5,0.3c0,0.2-0.2,0.3-0.6,0.5v4.8H499.1z M501.5,2170.3c-1.6,2-3,3-3.6,3.4c-0.8-0.9-1.4-1.2-1.8-1.4
				c3-2,4.1-3.6,5.3-5.4h-3v-2H514v2h-10.2c-0.2,0.4-0.5,0.9-0.8,1.2h10.4c0,3.3-0.5,6.4-0.9,7.7c-0.4,1.2-1,2.2-3.9,2.2
				c-0.3,0-0.5,0-0.9-0.1c-0.1-0.4-0.1-1.1-0.9-2.7c1,0.2,1.9,0.2,2,0.2c0.6,0,1.1,0,1.4-1.3c0.3-1,0.5-2.4,0.6-4h-1.2
				c-2.1,4.5-5,7-6.2,8c-0.4-0.4-0.8-0.7-2-1.3c0.6-0.4,3.6-2.4,5.9-6.7h-1.6c-1.1,1.8-2.7,3.7-3.9,4.8c-1,0.9-1.9,1.6-3.4,2.4
				c-0.6-0.7-0.9-1-1.8-1.6c2.7-1.2,4.9-3.2,6.6-5.6H501.5z M511.8,2163.9h-11.4v-8.9h11.4V2163.9z M509.4,2158.5v-1.5H503v1.5
				H509.4z M503,2160.3v1.6h6.4v-1.6H503z"/>
		</g>
	</g>
	<line class="st8" x1="111.5" y1="2166.7" x2="311.5" y2="2166.7"/>
	<line class="st8" x1="311.5" y1="2026.7" x2="111.5" y2="2026.7"/>
	<g>
		<g>
			<path class="st0" d="M611.5,651.7c0,5.5-4.5,10-10,10h-280c-5.5,0-10-4.5-10-10v-50c0-5.5,4.5-10,10-10h280c5.5,0,10,4.5,10,10
				V651.7z"/>
			<path class="st5" d="M611.5,651.7c0,5.5-4.5,10-10,10h-280c-5.5,0-10-4.5-10-10v-50c0-5.5,4.5-10,10-10h280c5.5,0,10,4.5,10,10
				V651.7z"/>
		</g>
		<g>
			<path class="st6" d="M337.3,629.5c0.2,0,0.4,0.2,0.4,0.4c0,0.2-0.2,0.3-0.5,0.4c-0.3,2-0.6,3.8-1.4,6c-0.7-0.3-1.4-0.5-2.1-0.6
				c0.7-1.5,1.4-4.5,1.5-6.4L337.3,629.5z M342.9,617.8c0.2,0.1,0.5,0.2,0.5,0.4c0,0.2-0.3,0.3-0.7,0.3c-0.5,0.9-2.1,3.7-4.2,6.9
				c2.2-0.1,2.4-0.1,2.7-0.2c-0.1-0.3-0.5-1.7-0.6-2l1.8-0.8c0.5,1.1,1.3,3.5,1.6,4.9c-0.6,0.2-1.4,0.4-2.1,0.8
				c-0.1-0.3-0.1-0.4-0.2-1c-0.2,0-1.1,0.2-1.3,0.2v10.9h-2.5v-10.6c-1.3,0.2-2,0.2-2.7,0.3c-0.2,0.5-0.2,0.7-0.5,0.7
				c-0.3,0-0.4-0.3-0.4-0.6l-0.3-2.4c0.5,0,0.9,0,2,0c0.4-0.5,0.7-1,1.6-2.5c-1.1-1.2-2.4-2.2-3.7-3.2l1.5-2.1
				c0.3,0.2,0.5,0.4,1,0.8c0.1-0.2,1.4-2.6,2.1-4.4l2.2,0.8c0.2,0.1,0.3,0.2,0.3,0.4c0,0.2-0.3,0.3-0.7,0.3c-0.9,1.8-1,2.1-2.3,4.3
				c0.6,0.5,0.8,0.7,1,0.9c1.5-2.7,1.7-2.9,2-3.8L342.9,617.8z M343.1,628.4c0.2,1.7,0.6,3.6,0.8,4.4c0.6-1.6,0.8-2.5,0.8-3l1.6,0.5
				c0.6,0.2,0.8,0.2,0.8,0.5c0,0.3-0.4,0.3-0.6,0.4c-0.4,1.9-1,3.8-1.8,5.5c-0.8-0.5-1-0.6-2-1c0.2-0.4,0.5-0.9,1.1-2.3
				c-0.7,0.2-1,0.4-1.6,0.6c-0.7-2.7-0.9-4.4-1-5.2L343.1,628.4z M349.4,615.4c0.3,0.1,0.5,0.3,0.5,0.5c0,0.2-0.2,0.2-0.8,0.3
				c-1.3,2.4-2.4,4.1-3.9,6c-0.8-0.7-1.1-0.8-2-1.3c1-1.2,3-3.8,3.9-6.3L349.4,615.4z M353.6,621.1c1.6,1.8,3,4.1,3.9,5.8
				c-0.9,0.4-1.4,0.7-2.2,1.3c-0.2-0.4-0.4-1-1.1-2.1c-1.4,0.2-7.3,0.8-8.5,0.9c-0.1,0.1-0.2,0.5-0.6,0.5c-0.2,0-0.3-0.1-0.4-0.4
				l-0.6-2.5c0.4,0,2.2-0.1,2.5-0.1c0.1-0.1,1.8-3.5,2.5-6.5l2.5,0.9c0.3,0.1,0.4,0.2,0.4,0.3c0,0.3-0.1,0.3-0.8,0.5
				c-0.4,0.7-1.9,4-2.3,4.7c2.1-0.2,2.4-0.2,3.8-0.3c-0.7-1.1-1-1.5-1.4-2L353.6,621.1z M349.5,629.4c0.4,0.1,0.9,0.1,0.9,0.5
				c0,0.2-0.1,0.3-0.7,0.4v4.4c0,0.8,0.3,0.8,1.2,0.8c1.4,0,1.5-0.3,1.8-2.4c0.8,0.7,1.2,0.9,2.3,1c-0.8,3.5-1.8,3.6-3.6,3.6
				c-2.8,0-4.3,0-4.3-2.4v-6.3L349.5,629.4z M350.9,626.9c0.9,0.9,2.2,2.4,2.6,3c-1,0.8-1.2,1-1.7,1.6c-0.7-1.1-1.7-2.2-2.5-3.1
				L350.9,626.9z M353.8,614.4c0.9,1.7,2.3,3.8,4.3,5.6c-0.8,0.3-1.6,0.9-2.1,1.4c-1.6-1.5-3.1-3.7-4.2-5.8L353.8,614.4z
				 M355.8,629.6c0.3,0.5,1.7,3,2.3,5.3c-0.6,0.2-1.8,0.9-2.1,1.1c-0.9-2.8-1.6-4.3-2.3-5.4L355.8,629.6z"/>
			<path class="st6" d="M385.5,627.3c-2.7-0.7-4.6-1.9-5.7-2.8c-0.6,0.5-1.2,1-1.9,1.4l2.6,0.4c0.3,0,0.5,0.1,0.5,0.4
				c0,0.3-0.3,0.4-0.7,0.5c-0.1,0.5-0.1,0.7-0.2,1.2h5.6c0,1.6-0.4,6.5-1.3,8.2c-0.8,1.4-2.4,1.5-4.4,1.5c-0.1-0.8-0.4-1.8-0.9-2.7
				c0.3,0.1,0.9,0.2,1.7,0.2c1,0,1.5-0.2,1.8-1.3c0.1-0.4,0.4-1.8,0.4-3.7h-3.3c-1.3,4.4-4.4,6.7-6,7.6c-0.5-0.8-1.1-1.5-2-1.9
				c2.8-1.3,4.6-3.2,5.4-5.6h-3.8v-2.3h4.3c0.1-0.4,0.2-1.1,0.2-2.1V626c-0.8,0.5-1.6,0.8-2.7,1.3c-0.4-0.8-1-1.6-1.5-2.1
				c-0.6,1.5-1.4,3-1.6,3.5c-0.2-0.2-1.3-1-2.1-1c1-1.4,1.5-2.6,1.6-3.1h-1.8V635c0,2-0.2,3.3-4.4,3.2c-0.2-1.1-0.6-2.2-0.9-2.7
				c0.8,0.2,1.5,0.2,1.8,0.2c1,0,1-0.5,1-1v-6.3c-0.9,2.2-2.3,4-3.1,5c-0.7-0.6-1.3-1.1-2-1.4c1.1-1.1,3.1-3.6,4.4-7.3h-3.7v-2.2
				h5.3c-2.1-1.8-3.6-2.5-4.2-2.8l1.3-1.8c0.8,0.3,1.6,0.7,2.7,1.4c0.6-0.5,0.8-0.8,1.7-1.9h-6.3v-2.1h9.2l0.8,1
				c-1.2,1.6-2.3,2.8-3.7,4.1c0.6,0.5,1,0.8,1.3,1c-0.2,0.3-0.6,0.7-0.9,1.1h3.3l1.1,0.9c-0.1,0.5-0.5,1.4-0.7,2
				c1.7-0.3,3.3-1.2,4.7-2.3c-0.6-0.7-1.5-1.8-2.1-3.2c-0.5,0.7-0.9,1.2-1.7,2c-0.5-0.5-1-0.8-2.1-1.2c2-1.7,3.8-4.7,4.4-6.5
				l2.3,0.6c0.2,0,0.5,0.1,0.5,0.3c0,0.3-0.5,0.4-0.8,0.4c-0.1,0.1-0.5,0.8-0.7,1.2h8.2v2.1h-2c-0.9,1.8-1.7,3-2.8,4.2
				c2.1,1.4,4.1,2,5.5,2.3C386.4,625.8,386,626.3,385.5,627.3z M378,618.7c0.4,0.8,0.9,1.7,1.9,2.7c0.6-0.6,1.4-1.6,1.9-2.7H378z"/>
			<path class="st6" d="M398.7,624.1c0.3-0.5,1.2-2.5,1.7-4.8l2.5,1.1c0.2,0.1,0.3,0.2,0.3,0.4c0,0.3-0.4,0.3-0.7,0.3
				c-0.4,1.2-0.7,1.8-1.4,3.1h3.4v2.2h-13.2v-2.2h3.3c-0.5-1.8-1.4-3.3-1.6-3.8l2.2-1c0.9,1.6,1.3,2.5,1.8,4l-2,0.8H398.7z
				 M404.1,617v2.1h-12V617h4.6v-2.8l2.9,0.1c0.2,0,0.5,0.1,0.5,0.4c0,0.3-0.2,0.3-0.6,0.5v1.8H404.1z M403.1,638.1h-2.7v-1.4h-4.8
				v1.4h-2.7v-10.4h10.2V638.1z M395.6,630v4.4h4.8V630H395.6z M415.3,616.7c-0.8,2-1.7,3.8-3.3,7.1c1.2,1.2,3.4,3.4,3.4,6.8
				c0,3.7-2.1,4.9-5.5,5c-0.3-1.5-0.9-2.2-1.6-2.9c1,0.1,1.4,0.1,2,0.1c1.9,0,2.6-0.8,2.6-2.2c0-2.8-2.6-5.4-3.7-6.4
				c1.2-2,2.5-5,2.9-6.4h-3.7v20.3h-2.6v-22.6h8.5L415.3,616.7z"/>
			<path class="st6" d="M434.4,626.3c0,1.3-1.1,2.3-2.3,2.3s-2.3-1-2.3-2.3c0-1.3,1.1-2.3,2.3-2.3S434.4,624.9,434.4,626.3z"/>
			<path class="st6" d="M457.9,617.9c0.2,0.1,0.4,0.3,0.4,0.4c0,0.3-0.5,0.3-0.7,0.3c-0.9,1.4-2.5,3.9-4.5,6.4
				c1.4-0.1,1.6-0.1,2.9-0.3c-0.2-0.8-0.4-1.4-0.6-1.9l1.9-0.6c0.5,1.4,1.2,3.4,1.6,4.9c-0.3,0.1-1,0.1-2.3,0.6
				c-0.1-0.5-0.1-0.8-0.2-1.2c-0.8,0.2-0.9,0.2-1.3,0.2v11.4h-2.4v-11c-0.4,0.1-2.4,0.3-2.8,0.4c-0.1,0.2-0.3,0.6-0.6,0.6
				c-0.2,0-0.3-0.4-0.3-0.5l-0.4-2.4c0.3,0,0.5,0,1.8-0.1c0.8-1.1,1.1-1.4,1.6-2.1c-2.2-2.1-3.1-2.6-3.8-3l1.5-2.1
				c0.5,0.3,0.7,0.5,1,0.7c0.3-0.4,1.6-2.3,2.6-4.7l2.3,1c0.2,0.1,0.3,0.2,0.3,0.4c0,0.3-0.5,0.3-0.7,0.3c-1.1,2-1.6,2.9-2.8,4.4
				c0.6,0.5,0.8,0.7,1.1,1c0.9-1.4,1.8-2.7,2.5-4.1L457.9,617.9z M451.9,628.9c0.2,0,0.4,0.2,0.4,0.4c0,0.2-0.3,0.3-0.5,0.4
				c-0.3,2.1-0.9,4.6-1.4,5.8c-0.3-0.2-0.9-0.4-2.2-0.6c0.8-1.8,1.4-4.3,1.7-6.3L451.9,628.9z M458.1,628.2c0.2,1.4,0.8,3.8,1.2,5
				c-1,0.2-1.8,0.5-2.3,0.7c-0.6-2-0.9-3.1-1.2-5.3L458.1,628.2z M466.8,635h6v2.4h-14.5V635h5.9v-3.8h-4.4v-2.4h4.4v-2.7l2.6,0.2
				c0.3,0,0.5,0.2,0.5,0.4c0,0.2-0.2,0.3-0.5,0.4v1.7h4.6v2.4h-4.6V635z M462.6,617.4c0.4,0.7,1.3,2,2.7,3.3
				c1.6-1.5,2.3-2.7,2.8-3.4h-8.9v-2.2h11.2l1.3,1.3c-0.5,0.9-1.8,3.3-4.5,5.8c2.1,1.4,4,2.1,5.9,2.6c-0.8,0.9-1.1,1.6-1.4,2.2
				c-2.2-0.7-4.7-1.9-6.3-3.2c-1.8,1.5-3.5,2.3-5.4,3c-0.4-1.1-0.7-1.5-1.5-2.2c1.5-0.4,3-1,5-2.3c-1.3-1.3-2.1-2.3-2.8-3.5
				L462.6,617.4z"/>
			<path class="st6" d="M483.4,624h2.6v2.3h-2.6v5.6c2.3-0.7,2.5-0.8,3.2-1.1c-0.2,0.8-0.2,1.1-0.2,2.5c-1.5,0.7-5.1,1.8-7.9,2.7
				c-0.2,0.5-0.3,0.6-0.5,0.6c-0.2,0-0.4-0.1-0.5-0.6l-0.6-2.3c1.7-0.3,3.4-0.8,3.7-0.9v-6.4h-2.7V624h2.7v-5.8h-3.2v-2.3h9v2.3
				h-3.1V624z M501.6,635.1v2.3h-15.4v-2.3h6.6v-2.9H488v-2.3h4.7v-2.8h-5v-11.9h12.8v11.9h-5.3v2.8h5.1v2.3h-5.1v2.9H501.6z
				 M492.7,620.2v-2.8H490v2.8H492.7z M490,622.2v2.8h2.7v-2.8H490z M498,620.2v-2.8h-2.8v2.8H498z M495.2,622.2v2.8h2.8v-2.8H495.2
				z"/>
			<path class="st6" d="M527.9,615.9v1.8H519v1.2h7.1v1.6H519v1.3h10.5v1.8h-23.6v-1.8h10.3v-1.3h-7v-1.6h7v-1.2h-8.8v-1.8h8.8v-1.7
				l2.9,0.1c0.3,0,0.6,0,0.6,0.3c0,0.3-0.3,0.4-0.7,0.5v0.7H527.9z M520.1,634h-4.7l0.8,0.6c0.2,0.2,0.3,0.3,0.3,0.4
				c0,0.2-0.2,0.3-0.4,0.3c-0.1,0-0.3,0-0.5-0.1c-2,1.2-5.2,2.6-7.1,3c-0.3-0.7-0.7-1.2-1.8-2.4c1.7-0.3,3.3-0.5,6-1.9h-3.1v-9.5
				h16.1v9.5h-3.9c2.1,1.1,4.9,1.8,6.5,2c-0.9,0.8-1.4,1.8-1.6,2.2c-2.4-0.5-5.1-1.3-7.7-3.1L520.1,634z M523.2,627.3v-1.1h-10.9
				v1.1H523.2z M512.3,628.6v1.1h10.9v-1.1H512.3z M512.3,631.1v1.2h10.9v-1.2H512.3z"/>
			<path class="st6" d="M540,638.1h-2.7v-13.5c-1.1,1.7-1.6,2.3-2,2.7c-0.7-0.8-1.7-1.5-2.2-1.7c2-2.1,4.8-6.6,6.1-11.6l2.5,0.7
				c0.4,0.1,0.6,0.2,0.6,0.5c0,0.3-0.4,0.4-0.7,0.3c-0.9,2.4-1.3,3.4-1.9,4.7c0.4,0.1,0.8,0.3,0.8,0.5c0,0.2-0.3,0.4-0.6,0.5V638.1z
				 M557.1,616.2c0.2,0.2,0.3,0.3,0.3,0.5c0,0.2-0.1,0.3-0.3,0.3s-0.4-0.1-0.6-0.2c-0.9,0.4-2.8,1.1-5.3,1.6v6.3h6.8v2.4h-6.8v7.6
				h6.2v2.5h-15.2v-2.5h6.3v-7.6h-7.1v-2.4h7.1v-5.8c-2,0.2-3.4,0.4-5.7,0.4c-0.2-0.9-0.5-1.6-1.2-2.5c0.4,0,0.8,0.1,1.4,0.1
				c0.9,0,6.7,0,12.2-2.6L557.1,616.2z"/>
			<path class="st6" d="M583.9,615.7c0.2,0.1,0.4,0.2,0.4,0.4c0,0.2-0.1,0.3-0.4,0.3c-0.1,0-0.3,0-0.5-0.1c-0.6,1-2,3.1-4,5.3h6.8
				v2.3h-9.1c-1,1-2.3,1.9-3,2.4h9.2v11.6h-2.7v-1.2h-10v1.2H568v-8.3c-2.5,1.1-3.8,1.5-4.6,1.7c-0.2-0.4-0.6-1.5-1.5-2.5
				c4.5-1,8.6-3.1,11.2-5h-10.6v-2.3h9.6v-2.5h-7.3v-2.3h7.3v-2.6l2.8,0.1c0.3,0,0.5,0.2,0.5,0.3c0,0.2-0.2,0.3-0.6,0.4v1.8h3.9v1.7
				c1.7-2.1,2.4-3.5,2.8-4.2L583.9,615.7z M580.6,630.6v-2h-10v2H580.6z M580.6,634.7v-2.1h-10v2.1H580.6z M575.9,621.7
				c1.3-1.3,2-2,2.4-2.5h-3.4v2.5H575.9z"/>
		</g>
	</g>
	<g>
		<line class="st0" x1="311.5" y1="626.7" x2="111.5" y2="626.7"/>
		<g>
			<line class="st8" x1="311.5" y1="626.7" x2="307.9" y2="626.7"/>
			<line class="st9" x1="300.8" y1="626.7" x2="118.6" y2="626.7"/>
			<line class="st8" x1="115" y1="626.7" x2="111.5" y2="626.7"/>
		</g>
	</g>
</g>
</svg>
