<?xml version="1.0" encoding="utf-8"?>
<!-- Generator: Adobe Illustrator 27.3.1, SVG Export Plug-In . SVG Version: 6.00 Build 0)  -->
<svg version="1.1" id="レイヤー_1" xmlns="http://www.w3.org/2000/svg" xmlns:xlink="http://www.w3.org/1999/xlink" x="0px"
	 y="0px" viewBox="0 0 1100 240" style="enable-background:new 0 0 1100 240;" xml:space="preserve">
<style type="text/css">
	.st0{fill:#E95520;}
	.st1{fill:#FFFFFF;}
</style>
<g>
	<g>
		<circle class="st0" cx="124.9" cy="120" r="118.6"/>
		<g>
			<g>
				<path class="st1" d="M69.5,164c-0.4,0-0.8,0-1.2,0.1v-0.9c-0.4,0.4-0.6,0.5-1.1,0.9c-0.3-0.5-0.3-0.5-0.7-0.9
					c1.7-1.2,2.7-2.5,3.5-4.2h1.2c0.7,1.4,1.4,2.1,2.7,3.1c-0.3,0.3-0.4,0.5-0.6,1c-1.3-1.2-1.9-1.8-2.7-3.2
					c-0.7,1.4-1.3,2.2-2.3,3.2c0.3,0,0.7,0.1,1.1,0.1h2.2c0.5,0,0.9,0,1.2-0.1v1c-0.4-0.1-0.7-0.1-1.2-0.1h-0.6v2h0.7
					c0.7,0,1.2,0,1.6-0.1v1.1c-0.5-0.1-0.9-0.1-1.6-0.1h-0.7v5c0.8-0.3,1.3-0.4,2.5-0.9l0,1c-1.7,0.7-3.3,1.2-5.5,1.9
					c-0.4,0.1-0.6,0.2-1.1,0.4l-0.3-1.2c0.7,0,1.4-0.2,3.3-0.8v-5.3h-1.5c-0.7,0-1.2,0-1.7,0.1v-1.1c0.4,0.1,0.9,0.1,1.7,0.1h1.4v-2
					H69.5z M68.3,171.9c-0.2-1.4-0.4-2.3-0.9-3.7l0.9-0.3c0.4,1.2,0.6,2.1,0.9,3.6L68.3,171.9z M71.8,170.8c0.4-1.1,0.6-1.9,0.8-3.1
					l0.9,0.4c-0.3,1.4-0.5,1.9-0.9,3L71.8,170.8z M75.5,163c-0.4,1.1-0.6,1.6-1.1,2.5c-0.4-0.3-0.6-0.5-0.9-0.6
					c0.8-1.3,1.4-2.7,1.7-4.3c0.1-0.4,0.1-0.7,0.1-1.1l1.1,0.2c-0.1,0.4-0.1,0.5-0.2,0.9c-0.1,0.5-0.2,0.8-0.3,1.3h1.8
					c0-0.5,0-0.7,0-1c0-1.4,0-1.8-0.1-2.4h1.2c-0.1,0.5-0.1,0.5-0.1,3.4h1.7c0.9,0,1.4,0,1.8-0.1v1.2c-0.5-0.1-1.2-0.1-1.8-0.1h-1.7
					c-0.1,1.6-0.1,2.4-0.2,3.3h2.3c0.8,0,1.4,0,1.9-0.1v1.2c-0.6-0.1-1.2-0.1-1.8-0.1h-2.1c0.3,1.1,0.8,2.1,1.4,3
					c0.8,1.3,1.8,2.2,3.3,3.1c-0.4,0.4-0.5,0.6-0.8,1.1c-2.3-1.6-3.7-3.5-4.5-6.1c-0.8,2.8-2.2,4.4-4.7,6c-0.2-0.4-0.4-0.7-0.8-1
					c1.4-0.7,2.2-1.4,3-2.3c0.9-1.1,1.4-2.2,1.8-3.8h-1.4c-0.7,0-1.3,0-1.8,0.1v-1.2c0.4,0.1,1.1,0.1,1.8,0.1h1.5
					c0.1-0.8,0.2-1.8,0.2-3.3H75.5z"/>
				<path class="st1" d="M88.8,158.6c0.4,1,1.2,2.1,2.4,3.1c-0.2,0.3-0.4,0.6-0.6,1c-1.2-1.3-1.6-1.8-2.4-3.2
					c-0.9,1.8-1.6,2.8-3.3,4.4c-0.2-0.5-0.3-0.6-0.6-0.9c1-0.9,1.5-1.5,2.2-2.5c0.5-0.8,0.8-1.3,1-1.9H88.8z M87.5,166.6h-1.2
					c-0.7,0-1,0-1.5,0.1v-1.1c0.4,0.1,0.8,0.1,1.5,0.1h1.2v-1.9H87c-0.4,0-0.7,0-1,0.1v-1c0.3,0.1,0.5,0.1,1,0.1h2.2
					c0.5,0,0.7,0,1-0.1v1c-0.3-0.1-0.6-0.1-1-0.1h-0.6v1.9h0.8c0.7,0,1,0,1.4-0.1v1.1c-0.4-0.1-0.8-0.1-1.4-0.1h-0.8v5.3
					c0.9-0.3,1.3-0.4,2.4-0.8v1c-1.8,0.7-2.4,0.9-5.3,1.7c-0.4,0.1-0.4,0.1-0.6,0.2l-0.2-1.1c0.6,0,1.2-0.2,2.7-0.6V166.6z
					 M86,171.6c-0.2-1.6-0.5-2.5-0.9-3.8l0.9-0.3c0.4,1.2,0.6,2,0.9,3.7L86,171.6z M89.1,170.7c0.4-1.2,0.5-1.8,0.6-3.1l0.9,0.3
					c-0.2,1.4-0.4,2-0.7,3.1L89.1,170.7z M91.4,160.9c0-1.1,0-1.4-0.1-2c0.5,0.1,0.8,0.1,1.9,0.1h5.3c1.2,0,1.5,0,1.9-0.1
					c-0.1,0.5-0.1,1.1-0.1,2.1v11.9c0,1.1-0.3,1.4-1.6,1.4c-0.5,0-1.2,0-2-0.1c0-0.5-0.1-0.7-0.2-1.1c0.7,0.1,1.5,0.2,2,0.2
					c0.7,0,0.7-0.1,0.7-0.5V160h-6.9v12.5c0,1.1,0,1.6,0.1,2.1h-1.2c0.1-0.5,0.1-1.1,0.1-2.1V160.9z M96.1,163.7
					c0.5-1.1,0.8-2,1.1-3.2l1,0.3c-0.4,1.2-0.7,1.9-1.1,2.9h0.5c0.6,0,1,0,1.4-0.1v1.1c-0.4-0.1-0.8-0.1-1.4-0.1h-1.2v5.6h1.2v-2.9
					c0-0.8,0-1.2-0.1-1.6h1.1c-0.1,0.4-0.1,0.8-0.1,1.6v3.2c0,0.7,0,1.1,0.1,1.4h-0.9v-0.9h-3.2v1.1h-1c0.1-0.5,0.1-0.9,0.1-1.6
					v-3.2c0-0.8,0-1.2-0.1-1.6h1.1c-0.1,0.4-0.1,0.8-0.1,1.6v2.9h1.1v-5.6h-1.1c-0.6,0-1,0-1.4,0.1v-1.1c0.4,0.1,0.7,0.1,1.4,0.1
					H96.1z M94.3,160.6c0.5,0.9,0.7,1.4,1.1,2.5l-0.9,0.3c-0.3-1-0.6-1.6-1-2.4L94.3,160.6z"/>
				<path class="st1" d="M114.8,160c-0.2,0.3-0.3,0.5-0.6,1.1c-1.2,2.7-1.7,3.8-2.6,5.2c1.5,1.3,2.7,2.4,4.1,3.8l-1,1.1
					c-0.9-1.2-2.1-2.4-3.9-3.9c-1.9,2.6-4,4.4-7.2,6.2c-0.3-0.5-0.5-0.7-0.9-1.1c2.8-1.4,5.1-3.3,7.1-5.9c-1.6-1.3-3.3-2.4-4.8-3.2
					l0.9-0.9c1.7,1.1,2.6,1.6,4.6,3.1c0.8-1.3,1.5-2.6,2.1-4.1c0.4-1.1,0.5-1.4,0.6-1.9L114.8,160z"/>
				<path class="st1" d="M118,165.7c0.5,0.1,1,0.1,2.2,0.1h10.3c1.3,0,1.6,0,2.2-0.1v1.4c-0.6-0.1-1-0.1-2.2-0.1h-10.3
					c-1.3,0-1.7,0-2.2,0.1V165.7z"/>
				<path class="st1" d="M140,162.5c0.1-0.9,0.1-1.9,0.1-2.7c0-0.4,0-0.6-0.1-0.9l1.4,0c-0.1,0.4-0.1,0.4-0.1,2.3
					c0,0.6,0,0.8-0.1,1.3l4.4,0c0.8,0,0.8,0,1.2-0.1l0.7,0.6c-0.1,0.3-0.1,0.4-0.1,1.1c-0.1,2.3-0.3,5-0.5,6.2
					c-0.4,2.4-1,3.1-2.6,3.1c-0.6,0-1.3-0.1-2.2-0.3c0-0.1,0-0.2,0-0.2c0-0.4,0-0.7-0.2-1.1c1,0.3,1.7,0.5,2.3,0.5
					c0.9,0,1.2-0.4,1.5-2.2c0.3-1.4,0.4-3.7,0.4-6.3l-5,0c-0.2,2.3-0.6,3.8-1.4,5.3c-1,1.8-2.7,3.5-4.7,4.7
					c-0.3-0.5-0.5-0.7-0.9-1.1c2.1-1.1,3.6-2.7,4.6-4.7c0.6-1.2,0.9-2.2,1.1-4.2l-3.2,0c-1.1,0-1.2,0-1.9,0.1l0-1.4
					c0.6,0.1,1,0.1,1.9,0.1L140,162.5z"/>
				<path class="st1" d="M150.5,165.7c0.5,0.1,1,0.1,2.2,0.1h10.3c1.3,0,1.6,0,2.2-0.1v1.4c-0.6-0.1-1-0.1-2.2-0.1h-10.3
					c-1.3,0-1.7,0-2.2,0.1V165.7z"/>
				<path class="st1" d="M174.3,168.6c-1,2.4-2.1,3.4-3.4,3.4c-1.7,0-3-1.9-3-4.3c0-1.8,0.7-3.6,1.9-4.9c1.4-1.6,3.4-2.4,5.8-2.4
					c2,0,3.7,0.6,4.9,1.8c1.1,1.1,1.7,2.6,1.7,4.3c0,2.8-1.5,5-4.1,6.1c-0.8,0.3-1.5,0.6-2.7,0.8c-0.2-0.6-0.3-0.8-0.6-1.2
					c1.3-0.2,2.1-0.4,3-0.8c2-0.9,3.2-2.8,3.2-5c0-2-1-3.7-2.8-4.5c-0.7-0.3-1.2-0.4-2.1-0.4C175.7,164,175.1,166.7,174.3,168.6z
					 M172.1,162.4c-1.8,1.1-2.9,3.1-2.9,5.3c0,1.7,0.7,3,1.7,3c0.7,0,1.5-0.8,2.2-2.6c0.7-1.7,1.4-4.3,1.6-6.6
					C173.7,161.6,172.9,161.9,172.1,162.4z"/>
				<path class="st1" d="M71.1,198.4c-0.1,0.5-0.2,0.6-0.4,1.3l-1.2-0.1c0.8-2.2,1.4-4.4,1.8-6.9h-0.8c-0.7,0-1.3,0-1.8,0.1v-1.2
					c0.5,0.1,1,0.1,1.8,0.1h0.9c0.3-2.1,0.5-4.1,0.5-5.1c0-0.1,0-0.2,0-0.4c0.4,0.1,0.7,0.1,1.3,0.1h8.4c0.8,0,1.1,0,1.5-0.1
					c-0.1,0.4-0.1,0.8-0.1,1.2l0,0.5l-0.2,2.9c0,0.2,0,0.3-0.1,0.9h0.6c0.8,0,1.3,0,1.8-0.1v1.2c-0.5-0.1-1.1-0.1-1.8-0.1h-0.7
					c-0.2,1.8-0.3,3.5-0.6,4.7h0.8c0.8,0,1.1,0,1.5-0.1v1.2c-0.5-0.1-0.8-0.1-1.6-0.1h-1c-0.5,2.5-0.8,2.8-2.5,2.8
					c-0.6,0-1.4,0-2.1-0.1c0-0.4-0.1-0.7-0.3-1.2c1,0.1,1.6,0.2,2.4,0.2c0.5,0,0.8-0.1,1-0.4c0.1-0.2,0.2-0.5,0.4-1.3H71.1z
					 M72.4,192.7c-0.3,1.8-0.6,3-1,4.7h9.5c0.2-1.3,0.4-2.5,0.6-4.7H72.4z M81.6,191.7c0.1-2,0.1-2.2,0.2-4.4h-8.7
					c-0.2,2.1-0.2,2.4-0.5,4.4H81.6z M77.5,196.9c-1-1.3-1.7-2-3-3l0.9-0.7c1.4,1.1,1.9,1.6,3,2.9L77.5,196.9z M78.2,191.3
					c-0.9-1.2-1.6-1.9-3-2.9l0.9-0.7c1.3,1,2,1.6,3,2.7L78.2,191.3z"/>
				<path class="st1" d="M90.8,189.7c0.5,1.5,1.4,2.6,2.6,3.7c-0.3,0.3-0.5,0.6-0.7,1c-1-1-1.5-1.8-2.1-3.3c0.1,1.2,0.1,2.2,0.1,3.5
					v4.9c0,0.8,0,1.4,0.1,1.9h-1.3c0.1-0.5,0.1-1.1,0.1-1.9v-4.7c0-1,0-2.5,0.1-3.3c-0.7,2.4-1.6,4.2-2.9,5.9
					c-0.3-0.5-0.4-0.7-0.7-1c1.5-1.8,2.5-3.7,3.3-6.6h-1.3c-0.6,0-1,0-1.5,0.1v-1.2c0.4,0.1,0.8,0.1,1.5,0.1h1.4v-1.8
					c0-0.7,0-1.2-0.1-1.7h1.3c-0.1,0.5-0.1,0.8-0.1,1.7v1.9h1.1c0.5,0,0.9,0,1.3-0.1v1.2c-0.4-0.1-0.9-0.1-1.3-0.1H90.8z
					 M95.6,189.7c-0.8,0-1.3,0-1.8,0.1v-1.2c0.5,0.1,1,0.1,1.8,0.1h3.2v-1.5c0-0.8,0-1.4-0.1-2h1.3c-0.1,0.6-0.1,1.1-0.1,2v1.5h0.9
					c0.7,0,1.2,0,1.6-0.1v1.2c-0.5-0.1-0.9-0.1-1.6-0.1h-0.9l0.1,9.9c0,1.1-0.4,1.4-2,1.4c-0.6,0-1.3,0-2-0.1
					c-0.1-0.4-0.1-0.7-0.3-1.2c0.9,0.1,1.5,0.2,2.2,0.2c0.8,0,0.9-0.1,0.9-0.4l0-8.5c-0.6,1.3-1.3,2.4-2.2,3.5
					c-1.1,1.4-2,2.2-3.8,3.6c-0.2-0.4-0.5-0.7-0.8-0.9c1.6-1,3.2-2.5,4.4-4.1c0.7-1,1.3-2.1,1.9-3.3H95.6z"/>
				<path class="st1" d="M118.7,201.4c-1.3-1.5-1.9-2.4-2.5-3.8c-0.6-1.4-0.9-2.8-0.9-4.4c0-1.5,0.3-3,0.9-4.4
					c0.6-1.4,1.1-2.3,2.5-3.8h1.6c-1.5,1.5-2.1,2.3-2.7,3.7c-0.6,1.4-1,2.9-1,4.5c0,1.6,0.3,3.1,1,4.5c0.6,1.4,1.2,2.2,2.7,3.7
					H118.7z"/>
				<path class="st1" d="M129.9,189c0.3-0.6,0.5-1.2,0.7-1.9h-5.9v1.3c0,7-0.5,10-2.1,12.7c-0.3-0.4-0.5-0.7-0.9-0.9
					c1.4-2.4,1.8-5,1.8-11.3c0-1.7,0-2.2-0.1-2.8c0.7,0.1,1.2,0.1,2.2,0.1h9.9c1,0,1.5,0,2-0.1v1.2c-0.5-0.1-1-0.1-1.9-0.1h-3.8
					c-0.2,0.8-0.4,1.2-0.7,1.9h3.2c0.9,0,1.5,0,1.9-0.1c-0.1,0.5-0.1,1-0.1,1.7v3.2c0,0.8,0,1.3,0.1,1.7c-0.6-0.1-1.1-0.1-1.9-0.1
					h-2.5v4.4c0,1.1-0.4,1.3-2.4,1.3c-0.5,0-0.9,0-1.4-0.1c-0.1-0.5-0.1-0.6-0.3-1.2c0.8,0.1,1.5,0.2,2.2,0.2c0.6,0,0.7-0.1,0.7-0.4
					v-4.2h-2.5c-0.7,0-1.3,0-1.9,0.1c0.1-0.5,0.1-1.1,0.1-1.8v-3c0-0.8,0-1.2-0.1-1.8c0.5,0.1,1.1,0.1,1.9,0.1H129.9z M128.6,196.6
					c-1,1.7-1.9,2.9-3.2,4c-0.3-0.4-0.5-0.5-0.9-0.8c1.4-1.1,2.2-2.1,3.1-3.7L128.6,196.6z M127.5,191.6h7.6v-1.7h-7.6V191.6z
					 M127.5,194.5h7.6v-1.9h-7.6V194.5z M134.4,196.1c1,1.5,2.1,2.6,3.5,3.6c-0.3,0.2-0.6,0.5-0.9,0.9c-1.4-1.2-2.4-2.2-3.5-3.9
					L134.4,196.1z"/>
				<path class="st1" d="M143.3,189.7c0.5,1.5,1.4,2.6,2.6,3.7c-0.3,0.3-0.5,0.6-0.7,1c-1-1-1.5-1.8-2.1-3.3
					c0.1,1.2,0.1,2.2,0.1,3.5v4.9c0,0.8,0,1.4,0.1,1.9H142c0.1-0.5,0.1-1.1,0.1-1.9v-4.7c0-1,0-2.5,0.1-3.3
					c-0.7,2.4-1.6,4.2-2.9,5.9c-0.3-0.5-0.4-0.7-0.7-1c1.5-1.8,2.5-3.7,3.3-6.6h-1.3c-0.6,0-1,0-1.5,0.1v-1.2
					c0.4,0.1,0.8,0.1,1.5,0.1h1.4v-1.8c0-0.7,0-1.2-0.1-1.7h1.3c-0.1,0.5-0.1,0.8-0.1,1.7v1.9h1.1c0.5,0,0.9,0,1.3-0.1v1.2
					c-0.4-0.1-0.9-0.1-1.3-0.1H143.3z M148.1,189.7c-0.8,0-1.3,0-1.8,0.1v-1.2c0.5,0.1,1,0.1,1.8,0.1h3.2v-1.5c0-0.8,0-1.4-0.1-2
					h1.3c-0.1,0.6-0.1,1.1-0.1,2v1.5h0.9c0.7,0,1.2,0,1.6-0.1v1.2c-0.5-0.1-0.9-0.1-1.6-0.1h-0.9l0.1,9.9c0,1.1-0.4,1.4-2,1.4
					c-0.6,0-1.3,0-2-0.1c-0.1-0.4-0.1-0.7-0.3-1.2c0.9,0.1,1.5,0.2,2.2,0.2c0.8,0,0.9-0.1,0.9-0.4l0-8.5c-0.6,1.3-1.3,2.4-2.2,3.5
					c-1.1,1.4-2,2.2-3.8,3.6c-0.2-0.4-0.5-0.7-0.8-0.9c1.6-1,3.2-2.5,4.4-4.1c0.7-1,1.3-2.1,1.9-3.3H148.1z"/>
				<path class="st1" d="M158,192.3c-0.7,0-1.1,0-1.5,0.1v-1.2c0.4,0.1,0.8,0.1,1.5,0.1h1.4v-4.2c0-0.9,0-1.4-0.1-1.9h1.3
					c-0.1,0.4-0.1,1-0.1,1.9v4.2h1.1c0.6,0,1,0,1.3-0.1v1.1c-0.4-0.1-0.8-0.1-1.3-0.1h-1c0.8,1.4,1.5,2.3,2.5,3.3
					c-0.2,0.3-0.5,0.7-0.6,1c-1.1-1.2-1.6-1.9-2.1-3.1c0,0.7,0.1,2.3,0.1,2.6v3.3c0,0.9,0,1.4,0.1,2h-1.3c0.1-0.6,0.1-1.2,0.1-2v-3
					c0-0.8,0-1.8,0.1-2.8c-0.7,2.3-1.5,3.7-2.7,5.1c-0.2-0.5-0.4-0.7-0.7-1c0.9-0.9,1.5-1.7,2.1-3c0.4-0.9,0.6-1.3,1-2.4H158z
					 M157.5,186.4c0.6,1.5,0.9,2.3,1.2,3.8l-0.9,0.4c-0.3-1.6-0.6-2.6-1.2-3.8L157.5,186.4z M163.3,186.7c-0.8,2.5-0.8,2.5-1.4,3.9
					l-0.9-0.4c0.7-1.3,0.9-2.1,1.3-3.9L163.3,186.7z M169.1,187.1c0-0.9,0-1.4-0.1-1.9h1.4c-0.1,0.5-0.1,1-0.1,1.9v8.2l0.3-0.1
					c0.8-0.2,1.2-0.3,1.6-0.5l0.2,1.2c-0.4,0-1,0.1-1.7,0.3l-0.4,0.1v3c0,0.9,0,1.4,0.1,1.9H169c0.1-0.5,0.1-0.9,0.1-2v-2.7
					l-4.7,1.1c-0.7,0.2-1.2,0.3-1.7,0.5l-0.2-1.3c0.4,0,1-0.1,1.7-0.3l4.9-1.2V187.1z M164.3,191c1.5,1,2.3,1.7,3.2,2.7l-0.7,0.9
					c-1.1-1.2-1.8-1.9-3.2-2.8L164.3,191z M164.8,186.6c1.5,1.1,2.1,1.6,3.2,2.8l-0.7,0.9c-1.2-1.3-1.8-1.9-3.2-2.9L164.8,186.6z"/>
				<path class="st1" d="M173.6,201.4c1.5-1.5,2.1-2.3,2.7-3.7c0.6-1.4,1-2.9,1-4.5c0-1.6-0.3-3.1-1-4.5c-0.6-1.4-1.2-2.2-2.7-3.7
					h1.6c1.3,1.5,1.9,2.4,2.5,3.8c0.6,1.4,0.9,2.8,0.9,4.4c0,1.5-0.3,3-0.9,4.4c-0.6,1.4-1.1,2.3-2.5,3.8H173.6z"/>
			</g>
		</g>
	</g>
	<g>
		<circle class="st0" cx="408.3" cy="120" r="118.6"/>
		<g>
			<path class="st1" d="M338.2,170.4c1,0,1.5,0,2.1-0.1v1.4c-0.6-0.1-1.1-0.1-2.1-0.1h-10.7c-1,0-1.5,0-2.1,0.1v-1.4
				c0.6,0.1,1.1,0.1,2.1,0.1h6.7c0.5-2,1-5.3,1.3-7.8h-6c-0.9,0-1.4,0-2,0.1v-1.4c0.6,0.1,1,0.1,2,0.1h5.8c0.6,0,0.9,0,1.2-0.2
				l0.7,0.6c-0.2,0.3-0.2,0.6-0.3,1.4c-0.4,2.7-0.7,4.7-1.2,7.2H338.2z"/>
			<path class="st1" d="M341.7,165.7c0.5,0.1,1,0.1,2.2,0.1h10.3c1.3,0,1.6,0,2.2-0.1v1.4c-0.6-0.1-1-0.1-2.2-0.1H344
				c-1.3,0-1.7,0-2.2,0.1V165.7z"/>
			<path class="st1" d="M368.3,163v-1.7c0-1.2,0-1.4-0.1-1.8h1.4c-0.1,0.5-0.1,0.5-0.1,1.7c0,0.4,0,0.4,0,1.9h1.5
				c1.1,0,1.4,0,2.1-0.1v1.4c-0.6-0.1-1.1-0.1-2.1-0.1h-1.6c0,3.6-0.2,4.8-0.9,6c-0.6,1.2-1.6,2.2-2.9,2.9c-0.6,0.3-1.1,0.6-2.1,0.9
				c-0.2-0.5-0.4-0.7-0.8-1.1c1.5-0.4,2.5-0.9,3.4-1.7c1.2-1.1,1.7-2.3,1.9-4.4c0-0.6,0.1-1.1,0.1-2.6h-5.4v3c0,0.8,0,1,0.1,1.4
				h-1.4c0.1-0.4,0.1-0.7,0.1-1.5v-2.9h-1.5c-0.9,0-1.5,0-2.1,0.1v-1.4c0.6,0.1,1,0.1,2.1,0.1h1.5v-2.1c0-0.8,0-1.1-0.1-1.5h1.4
				c-0.1,0.5-0.1,0.6-0.1,1.4v2.1H368.3z M371.2,159.2c0.7,0.9,1.1,1.5,1.6,2.4l-0.9,0.5c-0.4-0.9-0.9-1.7-1.6-2.5L371.2,159.2z
				 M372.9,158.3c0.7,0.8,1.1,1.5,1.6,2.4l-0.9,0.5c-0.4-0.9-0.9-1.7-1.6-2.5L372.9,158.3z"/>
			<path class="st1" d="M375,165.7c0.5,0.1,1,0.1,2.2,0.1h10.3c1.3,0,1.6,0,2.2-0.1v1.4c-0.6-0.1-1-0.1-2.2-0.1h-10.3
				c-1.3,0-1.7,0-2.2,0.1V165.7z"/>
			<path class="st1" d="M391.5,163.5c0.6,0,2.5-0.2,3.9-0.5c0.3-1.3,0.5-3,0.5-3.8c0,0,0-0.1,0-0.2l1.4,0.2
				c-0.1,0.4-0.2,0.7-0.3,1.7c-0.1,0.5-0.2,1.2-0.4,2c0.4,0,0.6-0.1,1.1-0.1c1.3,0,2,0.2,2.6,0.7c0.6,0.6,0.9,1.4,0.9,2.9
				c0,2.7-0.5,5.1-1.2,6.1c-0.4,0.6-0.9,0.8-1.7,0.8c-0.8,0-1.5-0.2-2.7-0.7c0-0.3,0-0.4,0-0.6c0-0.3,0-0.4-0.1-0.7
				c1,0.5,2,0.8,2.7,0.8c0.4,0,0.8-0.3,1-0.9c0.5-1.1,0.7-3,0.7-4.9c0-1.9-0.5-2.5-2.2-2.5c-0.4,0-0.6,0-1.3,0.1
				c-0.7,2.8-1.5,5.1-2.7,7.5c-0.2,0.4-0.6,1.2-1.2,2.2l-1.2-0.7c0.6-0.7,1.2-1.9,1.9-3.2c0.8-1.8,1.4-3.3,2-5.6
				c-1.5,0.2-2.4,0.4-2.5,0.4c-0.4,0.1-0.6,0.1-1,0.2L391.5,163.5z M403.2,161.9c1.8,2,2.9,3.8,3.7,6.3l-1.1,0.6
				c-0.7-2.4-1.9-4.6-3.6-6.4L403.2,161.9z M404.2,159.4c0.8,0.9,1.2,1.4,1.9,2.5l-0.9,0.5c-0.5-0.9-1.1-1.7-1.9-2.5L404.2,159.4z
				 M405.8,158.5c0.8,0.9,1.2,1.4,1.9,2.5l-0.9,0.5c-0.5-0.9-1.1-1.7-1.9-2.5L405.8,158.5z"/>
			<path class="st1" d="M410.9,162.8c-0.7,0-1.3,0-1.8,0.1v-1.2c0.5,0.1,1,0.1,1.8,0.1h5.2v-1.4c0-0.9,0-1.4-0.1-1.9h1.4
				c-0.1,0.6-0.1,1.1-0.1,1.9v1.4h5.3c0.8,0,1.3,0,1.8-0.1v1.2c-0.5-0.1-1-0.1-1.8-0.1h-5.3c0.4,1.4,1,2.9,1.8,4.2
				c1.5-1.3,2.5-2.4,3.1-3.4l1,0.8c-0.1,0.1-0.1,0.1-1.1,1.2c-0.6,0.7-1.5,1.5-2.5,2.3c0.6,0.8,1.2,1.5,1.9,2.1
				c1,0.9,1.7,1.5,3.1,2.2c-0.3,0.3-0.6,0.6-0.8,1.1c-1.3-0.8-2-1.4-3.1-2.5c-0.9-1-1.7-2-2.4-3.3c-0.5-0.9-0.7-1.4-1.1-2.6
				c0,0.5,0.1,2.4,0.1,3v5.3c0,1-0.4,1.3-1.8,1.3c-0.7,0-1.5,0-2.2-0.1c-0.1-0.5-0.1-0.7-0.3-1.2c0.9,0.1,1.7,0.2,2.3,0.2
				c0.7,0,0.8-0.1,0.8-0.5v-10H410.9z M415.6,169c-1.7,1.2-2.4,1.7-4.9,3c-0.4,0.2-0.6,0.3-0.9,0.5l-0.6-1.2
				c0.8-0.2,1.5-0.5,2.7-1.2c1.5-0.8,2.2-1.3,3.4-2.2L415.6,169z M411.7,163.8c1.1,1.1,1.6,1.8,2.5,3.1l-0.9,0.7
				c-0.8-1.4-1.4-2.1-2.4-3.1L411.7,163.8z M419.6,158.6c1.3,0.7,1.7,1.1,2.8,2l-0.8,0.8c-1-1-1.5-1.4-2.7-2.1L419.6,158.6z"/>
			<path class="st1" d="M429.8,159.9c0,0.6,0.2,2.1,0.5,3.1c1.2-0.6,2.5-0.9,3.8-0.9c0.1,0,0.3,0,0.6,0c0.3-1.2,0.5-2.3,0.6-2.9
				l1.3,0.3c-0.1,0.3-0.1,0.3-0.5,1.9c-0.1,0.3-0.1,0.5-0.2,0.8c3,0.6,4.7,2.5,4.7,5.2c0,1.7-0.7,3.3-1.9,4.3
				c-0.9,0.8-2.2,1.4-3.6,1.8c-0.3,0.1-0.4,0.1-1.1,0.3c-0.1-0.5-0.2-0.6-0.7-1.2c1-0.1,1.7-0.3,2.7-0.7c1.2-0.5,2.1-1.2,2.7-1.9
				c0.5-0.7,0.8-1.6,0.8-2.5c0-2.2-1.3-3.6-3.8-4.1c-0.8,2.8-2.1,5.3-3.5,7c-1.1,1.4-2.1,2-3.2,2c-1.5,0-2.6-1.4-2.6-3.5
				c0-1.2,0.4-2.4,1-3.4c0.5-0.7,1-1.2,1.8-1.8c-0.1-0.6-0.3-1.6-0.5-2.5c-0.1-0.6-0.1-0.7-0.2-0.9L429.8,159.9z M428.3,166.3
				c-0.4,0.8-0.7,1.7-0.7,2.5c0,1.4,0.6,2.3,1.4,2.3c0.6,0,1.4-0.5,2.2-1.5c-0.7-1.5-1.3-3.2-1.7-4.8
				C429,165.3,428.6,165.7,428.3,166.3z M432.1,168.6c0.1-0.2,0.1-0.2,0.2-0.4c0.8-1.3,1.6-3.1,2.2-5c-0.2,0-0.4,0-0.4,0
				c-1.3,0-2.4,0.3-3.4,0.9c0.3,1.4,0.7,2.6,1.3,4.1C432,168.4,432,168.5,432.1,168.6L432.1,168.6z"/>
			<path class="st1" d="M445.6,160c0.5,0.1,0.8,0.1,1.7,0.1c1.5,0,3.8-0.1,5.4-0.2c0.5,0,0.6-0.1,0.9-0.2l0.7,1
				c-0.2,0.1-0.3,0.2-0.9,0.7c-2.5,2.4-4.6,4.3-5.9,5.1l0,0.1c1.4-0.7,2.8-1.1,4.4-1.1c3,0,4.9,1.5,4.9,3.7c0,2.8-2.6,4.6-6.5,4.6
				c-2.5,0-4-0.9-4-2.6c0-1.2,1.1-2.1,2.6-2.1c1.2,0,2.2,0.5,2.9,1.5c0.4,0.5,0.6,0.9,0.8,1.7c1.9-0.5,2.8-1.6,2.8-3.1
				c0-1.7-1.4-2.7-3.8-2.7c-2.6,0-5.4,1.1-7.5,3l-0.8-1.1c0.6-0.4,1.3-0.8,2.5-1.8c1.9-1.5,4.7-4,5.9-5.2c0.1-0.1,0.1-0.1,0.2-0.2
				c0,0,0,0,0.1-0.1l0.1-0.1l0,0c-0.1,0-0.1,0-0.2,0c-0.6,0.1-2.7,0.2-5.4,0.3c-0.4,0-0.6,0-1,0.1L445.6,160z M448.9,170.2
				c-0.9,0-1.4,0.4-1.4,1.1c0,0.5,0.2,0.8,0.7,1.1c0.5,0.2,1.2,0.4,2,0.4c0.4,0,0.7,0,1.3-0.1C451.1,171,450.2,170.2,448.9,170.2z"
				/>
			<path class="st1" d="M460.5,160.4c-0.7,0-1.1,0-1.5,0.1v-1.2c0.5,0.1,1,0.1,1.6,0.1h5.6c0.7,0,1.1,0,1.6-0.1v1.2
				c-0.5-0.1-0.8-0.1-1.5-0.1h-0.4v4.4h0.6c0.8,0,1.1,0,1.6-0.1v1.2c-0.4-0.1-0.8-0.1-1.6-0.1h-0.6v6.7c0,0.8,0,1.4,0.1,1.9l-1.3,0
				c0.1-0.6,0.1-1.1,0.1-1.9v-6.7h-2.7c-0.1,1.5-0.1,2.3-0.3,3.3c-0.4,2.2-1.2,3.7-2.7,5.4c-0.3-0.4-0.5-0.5-0.9-0.8
				c1.9-1.9,2.7-4.1,2.8-7.8h-0.7c-0.7,0-1.2,0-1.6,0.1v-1.3c0.4,0.1,0.9,0.1,1.6,0.1h0.7v-4.4H460.5z M462.1,164.8h2.7v-4.4h-2.7
				V164.8z M474.9,168.5c-0.4,0.4-0.4,0.4-1.2,1.3c-0.7,0.9-1.9,1.9-3,2.7c-1,0.7-1.9,1.2-3.2,1.9c-0.2-0.4-0.4-0.6-0.7-1
				c2.2-0.9,4.1-2.2,5.8-4c0.5-0.6,1-1.2,1.3-1.7L474.9,168.5z M473.7,159.4c-0.2,0.2-0.4,0.3-0.9,0.9c-1.8,1.7-3,2.5-4.7,3.4
				c-0.2-0.4-0.4-0.7-0.7-1c1.6-0.7,2.8-1.5,4.1-2.7c0.7-0.7,1-1,1.2-1.3L473.7,159.4z M474.3,163.9c-0.2,0.2-0.4,0.3-0.7,0.7
				c-1.7,1.7-3.4,3-5.5,4.1c-0.2-0.5-0.4-0.7-0.7-1.1c1.7-0.7,3.1-1.6,4.6-3c0.6-0.6,1.1-1.1,1.4-1.6L474.3,163.9z"/>
			<path class="st1" d="M479.7,159.6c-0.3,0.8-0.5,1.6-0.7,2.8c-0.4,1.9-0.5,3.4-0.5,5.6c0,1.4,0,2.4,0.1,3.4
				c0.2-1.2,0.6-2.2,1.2-3.5l0.9,0.4c-0.8,1.8-1.4,3.9-1.4,4.9c0,0.1,0,0.1,0,0.3l-1.3,0.1c0-0.3-0.1-0.4-0.1-0.7
				c-0.3-1.9-0.5-3.2-0.5-5c0-2.5,0.2-4.4,0.8-7c0.2-0.8,0.2-1,0.2-1.4L479.7,159.6z M484.2,166.8c-0.9,1-1.3,1.8-1.3,2.6
				c0,1.3,1.1,2,3.4,2c1.6,0,3.1-0.2,4.1-0.6l0.2,1.4c-0.2,0-0.3,0-0.6,0.1c-1.2,0.2-2.4,0.4-3.6,0.4c-2,0-3.3-0.4-4.1-1.4
				c-0.4-0.4-0.5-1-0.5-1.6c0-1.1,0.4-2,1.5-3.3L484.2,166.8z M482,161.5c0.8,0.2,1.6,0.3,3,0.3c2,0,3.6-0.2,4.8-0.5l0.1,1.3
				c0,0-0.4,0.1-1.2,0.2c-1,0.1-2.5,0.2-3.8,0.2c-1,0-1.7-0.1-2.8-0.2L482,161.5z"/>
			<path class="st1" d="M367.9,188.5c0.8,0,1.3,0,1.9-0.1c-0.1,0.5-0.1,0.5-0.1,2.3c-0.1,2.9-0.3,5.7-0.6,7.6
				c-0.3,1.8-0.7,2.2-1.9,2.2c-0.6,0-1.3-0.1-2.2-0.2c0-0.5-0.1-0.7-0.2-1.2c0.8,0.2,1.6,0.3,2.1,0.3c0.5,0,0.7-0.1,0.8-0.4
				c0.2-0.6,0.6-2.9,0.7-4.8c0.1-1.7,0.1-2.7,0.1-4.6h-2.6c-0.1,2.2-0.3,3.5-0.7,5.1c-0.3,1.4-0.7,2.4-1.3,3.6
				c-0.5,1-0.9,1.6-1.8,2.7c-0.3-0.4-0.5-0.7-0.9-1c1-1.1,1.4-1.8,2-3c0.9-1.9,1.4-4.2,1.6-7.4h-1.1c-0.8,0-1.4,0-1.9,0.1v-1.3
				c0.4,0.1,1.1,0.1,2,0.1h1c0-0.5,0-0.9,0-1.4c0-1.1,0-1.4-0.1-1.9h1.4c-0.1,0.5-0.1,0.5-0.2,3.4H367.9z M372.4,200.7h-1.2
				c0.1-0.5,0.1-1.3,0.1-2v-9.4c0-0.8,0-1.3-0.1-1.9c0.5,0.1,0.9,0.1,1.6,0.1h3c0.7,0,1,0,1.5-0.1c-0.1,0.6-0.1,1-0.1,1.9v9.6
				c0,0.7,0,1.2,0.1,1.7h-1.2v-1.3h-3.7V200.7z M372.4,198.2h3.7v-9.8h-3.7V198.2z"/>
			<path class="st1" d="M382.5,188.2c-0.8,0-1.4,0-2,0.1V187c0.6,0.1,1.1,0.1,2.1,0.1h9.5c0.9,0,1.5,0,2.1-0.1v1.4
				c-0.6-0.1-1.2-0.1-2-0.1h-4.3v10.2h5.4c0.9,0,1.5,0,2.1-0.1v1.4c-0.6-0.1-1.2-0.1-2.1-0.1h-11.7c-0.9,0-1.5,0-2.1,0.1v-1.4
				c0.6,0.1,1.2,0.1,2.1,0.1h5v-10.2H382.5z"/>
			<path class="st1" d="M404.4,202.8c-1-1.6-1.5-2.4-1.9-3.7c-0.5-1.4-0.7-3-0.7-4.6c0-1.7,0.2-3.2,0.7-4.6c0.4-1.3,0.9-2.1,1.9-3.7
				l1.1,0.7c-1,1.5-1.4,2.3-1.8,3.6c-0.4,1.3-0.6,2.6-0.6,4c0,1.4,0.2,2.8,0.6,4c0.4,1.3,0.8,2.1,1.8,3.6L404.4,202.8z"/>
			<path class="st1" d="M412,191.4c-0.5,0.1-0.9,0.2-1.4,0.4l-0.1-1.2c0.1,0,0.1,0,0.1,0c0.3,0,0.7-0.1,1.3-0.2l1-0.2v-3
				c0-0.8,0-1.2-0.1-1.6h1.3c-0.1,0.4-0.1,0.7-0.1,1.6v2.8l2.9-0.6c0.6-0.1,1-0.3,1.3-0.4l0.1,1.2c-0.4,0-0.9,0.1-1.4,0.2l-3,0.6
				v4.9c0,0.4,0.1,0.5,0.6,0.5c0.3,0,0.9-0.1,1.2-0.1c0.6-0.1,0.8-0.4,0.9-1.2c0.1-0.6,0.1-1,0.2-2c0.4,0.2,0.7,0.4,1.1,0.5
				c-0.2,2-0.4,2.8-0.9,3.3c-0.4,0.4-1.2,0.6-2.6,0.6c-1.3,0-1.6-0.3-1.6-1.3v-5L412,191.4z M418.7,187.7c-0.8,0-1.3,0-1.7,0.1v-1.2
				c0.4,0.1,1,0.1,1.9,0.1h6c0.6,0,1.2,0,1.7-0.1c-0.1,0.8-0.1,0.8-0.1,2.2c-0.2,5.1-0.5,8.5-1.1,10.5c-0.4,1.2-0.8,1.6-2,1.6
				c-0.6,0-1.5-0.1-2.2-0.1c0-0.5-0.1-0.8-0.2-1.3c0.9,0.2,1.7,0.3,2.3,0.3c0.5,0,0.7-0.1,0.9-0.4c0.4-0.7,0.7-2.5,0.9-5
				c0.2-1.9,0.3-3.6,0.3-6.6h-3.7c-0.1,2.8-0.1,3.1-0.4,4.7c-0.4,2.4-1.2,4.4-2.5,6c-0.9,1.1-1.7,1.9-3.2,2.9
				c-0.3-0.4-0.5-0.6-0.9-0.9c2.3-1.3,3.7-2.8,4.7-5c0.6-1.5,1-3.1,1.2-5.3c0-0.2,0.1-1,0.1-2.3H418.7z"/>
			<path class="st1" d="M430.3,185.7c-0.1,0.5-0.1,0.9-0.1,1.5v11.1h4.4c0.8,0,1.3,0,1.7-0.1v1.2c-0.5-0.1-0.9-0.1-1.7-0.1h-4.4v1.5
				H429c0.1-0.5,0.1-1,0.1-1.7v-11.8c0-0.7,0-1.1-0.1-1.7H430.3z M435.9,190.6c0.5,0,0.9,0,1.2-0.1v1.2c-0.3-0.1-0.7-0.1-1.2-0.1
				h-1.2c0.8,1.6,1.2,2.2,2.5,3.4c-0.3,0.3-0.5,0.6-0.6,0.9c-1.1-1.3-1.6-2-2.1-3.4c0.1,0.7,0.1,1.4,0.1,1.9v1.8
				c0,0.8,0,1.1,0.1,1.5h-1.2c0.1-0.4,0.1-0.7,0.1-1.5v-1.8c0-0.5,0-1.3,0.1-1.9c-0.6,1.8-1.2,2.7-2.5,4.2c-0.2-0.3-0.4-0.6-0.7-0.8
				c1.1-1,1.6-1.7,2.2-2.8c0.2-0.4,0.3-0.6,0.6-1.4h-1.4c-0.4,0-0.8,0-1.1,0.1v-1.2c0.4,0.1,0.7,0.1,1.2,0.1h1.6v-3.7
				c0-0.8,0-1.2-0.1-1.6h1.2c-0.1,0.4-0.1,0.8-0.1,1.7v3.7H435.9z M431.6,186.1c0.6,1.6,0.8,2.2,1.1,3.6l-0.9,0.4
				c-0.3-1.4-0.5-2.3-1.1-3.6L431.6,186.1z M437,186.4c-0.6,2-0.7,2.5-1.3,3.6l-0.8-0.4c0.6-1.2,0.8-2,1.1-3.5L437,186.4z
				 M443.2,190.5c0.6,0,1.1,0,1.6-0.1v1.2c-0.5-0.1-0.8-0.1-1.5-0.1h-0.5v7.8c0,0.9,0,1.4,0.1,1.8h-1.3c0.1-0.5,0.1-1,0.1-1.8v-7.8
				h-2.6c-0.1,2-0.2,3.4-0.4,4.7c-0.4,2.1-0.9,3.3-2.1,5c-0.3-0.3-0.5-0.5-1-0.8c1.9-2.2,2.4-4.7,2.4-11.6c0-0.9,0-1.5-0.1-2
				c1.7-0.1,4.5-1,5.6-1.9l0.9,1c-0.1,0-0.1,0-0.3,0.1c0,0-0.2,0.1-0.4,0.2c-1.4,0.6-2.7,1.1-4.7,1.5v2c0,0.1,0,0.2,0,0.7H443.2z"/>
			<path class="st1" d="M451,186.1c1,1.6,1.5,2.4,1.9,3.7c0.5,1.4,0.7,3,0.7,4.6c0,1.7-0.2,3.2-0.7,4.6c-0.4,1.3-0.9,2.1-1.9,3.7
				l-1.1-0.7c1-1.5,1.4-2.3,1.8-3.6c0.4-1.3,0.6-2.6,0.6-4c0-1.4-0.2-2.7-0.6-4c-0.4-1.3-0.8-2.1-1.8-3.6L451,186.1z"/>
		</g>
	</g>
	<g>
		<circle class="st0" cx="691.7" cy="120" r="118.6"/>
		<g>
			<path class="st1" d="M666,194.9c1.4,0,1.9,0,2.8-0.2v1.9c-0.8-0.1-1.5-0.1-2.8-0.1h-14.3c-1.3,0-1.9,0-2.8,0.1v-1.9
				c0.8,0.1,1.4,0.2,2.8,0.2h8.9c0.6-2.7,1.3-7,1.7-10.4h-8c-1.2,0-1.8,0-2.6,0.1v-1.8c0.8,0.1,1.3,0.2,2.6,0.2h7.7
				c0.9,0,1.1,0,1.6-0.2l0.9,0.8c-0.2,0.4-0.3,0.8-0.4,1.8c-0.5,3.6-0.9,6.3-1.6,9.6H666z"/>
			<path class="st1" d="M670.6,188.6c0.7,0.1,1.3,0.1,2.9,0.1h13.8c1.8,0,2.1,0,2.9-0.1v1.9c-0.8-0.1-1.3-0.1-2.9-0.1h-13.8
				c-1.7,0-2.2,0-2.9,0.1V188.6z"/>
			<path class="st1" d="M706,184.9v-2.3c0-1.7,0-1.9-0.1-2.4h1.9c-0.1,0.6-0.1,0.6-0.1,2.3c0,0.5,0,0.5,0,2.5h2c1.4,0,1.9,0,2.8-0.1
				v1.8c-0.8-0.1-1.5-0.1-2.8-0.1h-2.1c0,4.8-0.3,6.3-1.2,8c-0.8,1.6-2.2,2.9-3.9,3.9c-0.8,0.4-1.4,0.7-2.8,1.2
				c-0.3-0.7-0.5-0.9-1.1-1.5c2.1-0.6,3.3-1.2,4.5-2.3c1.7-1.5,2.3-3.1,2.5-5.9c0-0.8,0.1-1.5,0.1-3.4h-7.2v4c0,1,0,1.3,0.1,1.9
				h-1.9c0.1-0.5,0.1-1,0.1-2v-3.9h-2c-1.3,0-1.9,0-2.8,0.1v-1.8c0.9,0.1,1.4,0.1,2.8,0.1h2v-2.8c0-1,0-1.5-0.1-2h1.9
				c-0.1,0.6-0.1,0.8-0.1,1.9v2.8H706z M709.8,179.9c0.9,1.1,1.5,2,2.1,3.2l-1.1,0.7c-0.6-1.2-1.3-2.3-2.1-3.3L709.8,179.9z
				 M712.1,178.8c0.9,1.1,1.5,2,2.1,3.2l-1.1,0.7c-0.6-1.2-1.3-2.3-2.1-3.3L712.1,178.8z"/>
			<path class="st1" d="M714.8,188.6c0.7,0.1,1.3,0.1,2.9,0.1h13.8c1.8,0,2.1,0,2.9-0.1v1.9c-0.8-0.1-1.3-0.1-2.9-0.1h-13.8
				c-1.7,0-2.2,0-2.9,0.1V188.6z"/>
		</g>
	</g>
	<g>
		<circle class="st0" cx="975.1" cy="120" r="118.6"/>
		<g>
			<path class="st1" d="M932,189.3c-0.9,0-1.4,0-2.1,0.1v-1.5c0.6,0.1,1.1,0.1,2.2,0.1h17c1.1,0,1.6,0,2.2-0.1v1.5
				c-0.7-0.1-1.3-0.1-2.2-0.1H940v9c0,1.1,0,1.6,0.1,2.2h-1.6c0.1-0.6,0.1-1.2,0.1-2.2v-0.6c-3,0.5-3,0.5-6.7,1
				c-0.6,0.1-1.1,0.2-1.8,0.3l-0.4-1.6c0.4,0,0.4,0,0.4,0c0.4,0,1.2,0,2.2-0.1v-8.1H932z M948.4,184.9c0,0.9,0,1.3,0.1,1.9
				c-0.8-0.1-1.5-0.1-2.4-0.1h-10.9c-1,0-1.7,0-2.6,0.1c0.1-0.5,0.1-1.1,0.1-1.9v-3.2c0-0.8,0-1.4-0.1-1.9c0.8,0.1,1.5,0.1,2.6,0.1
				H946c1.1,0,1.8,0,2.6-0.1c-0.1,0.6-0.1,1-0.1,1.9V184.9z M933.8,191h4.8v-1.7h-4.8V191z M933.8,193.9h4.8v-1.8h-4.8V193.9z
				 M933.8,197.2c2-0.2,2.7-0.3,4.8-0.7V195h-4.8V197.2z M934.1,182.7H947v-1.7h-12.9V182.7z M934.1,185.5H947v-1.7h-12.9V185.5z
				 M949.9,191.8c-0.2,0.2-0.2,0.4-0.4,0.7c-1.1,2-1.9,3-2.9,4.1c1.3,1,2.7,1.8,4.6,2.4c-0.3,0.3-0.6,0.8-0.9,1.3
				c-2-0.9-3.4-1.7-4.7-2.8c-1.4,1.2-2.2,1.7-4.1,2.6c-0.3-0.6-0.5-0.8-0.9-1.2c1.9-0.8,2.9-1.3,4.1-2.3c-1.2-1.3-1.8-2.3-2.6-4.3
				c-0.4,0-0.7,0-1.2,0.1v-1.4c0.5,0.1,1.1,0.1,2,0.1h4.4c0.9,0,1.4,0,1.8-0.1L949.9,191.8z M943.3,192.2c0.7,1.6,1.2,2.4,2.2,3.5
				c1-1,1.6-1.8,2.5-3.5H943.3z"/>
			<path class="st1" d="M953.6,189.3c0.4,0,0.6,0,1,0c0.2,0,0.3,0,0.9,0c1-1.3,1-1.3,1.7-2.3c-1.1-1.4-2.3-2.8-3.4-3.8l0.9-1.1
				c0.5,0.5,0.6,0.6,1,1c1.2-2,1.9-3.4,2.1-4.4l1.5,0.6c-0.2,0.2-0.2,0.4-0.5,0.8c-0.8,1.5-1.4,2.7-2.3,3.9c0.6,0.7,0.9,1,1.4,1.7
				c1.4-2.2,2.2-3.6,2.5-4.3l1.4,0.8c-0.3,0.4-0.3,0.4-1.6,2.5c-0.7,1-2.2,3.1-3.2,4.4c2.1-0.1,2.4-0.2,3.8-0.4
				c-0.4-0.9-0.5-1.3-1-2.1l1.1-0.6c0.9,1.6,1.3,2.7,1.9,4.4c2-1,3.3-1.8,4.9-3.2c-1-1.2-1.8-2.2-2.4-3.5c-0.8,1-1.5,1.7-2.6,2.7
				c-0.3-0.5-0.6-0.7-1-1c2.4-1.8,4.3-4.5,4.9-6.8l1.5,0.5c-0.8,1.5-0.9,1.8-1,1.9h3.5c1.2,0,1.8,0,2.2-0.1l0.9,0.9
				c-0.2,0.3-0.2,0.4-0.5,0.9c-1.1,2-2,3.1-3.4,4.6c1.7,1.5,3,2.3,5.9,3.5c-0.4,0.5-0.6,0.9-0.9,1.5c-2.8-1.4-4.4-2.4-6-4
				c-1.8,1.6-3,2.4-5.5,3.6c-0.2-0.5-0.4-0.7-0.7-1l-0.9,0.5c-0.2-0.7-0.3-0.9-0.5-1.4c-1,0.1-1,0.1-2.1,0.3v7.8c0,1,0,1.7,0.1,2.4
				h-1.7c0.1-0.7,0.1-1.4,0.1-2.4v-7.7c-1,0.1-1,0.1-2.9,0.2c-0.5,0-0.7,0-1,0.1L953.6,189.3z M956.3,192.4
				c-0.4,3.6-0.6,4.7-1.4,6.8l-1.3-0.7c0.8-2,1.1-3.2,1.4-6.4L956.3,192.4z M961.2,191.8c0.6,1.6,1,3.3,1.4,5.4l-1.3,0.4
				c-0.3-2.1-0.7-3.8-1.3-5.4L961.2,191.8z M972.8,200.6c-3.2-1.8-5-2.6-8.9-3.7l0.6-1.4c3.4,1,5.4,1.8,8.9,3.6L972.8,200.6z
				 M966.1,182.8c0.7,1.4,1.4,2.5,2.6,3.7c1.5-1.5,2.1-2.3,3-4.1h-5.4L966.1,182.8z M971.3,195.5c-1.5-1.3-2.7-2-5.1-3.2l0.8-1.2
				c2.4,1.3,3.3,1.8,5.1,3.1L971.3,195.5z"/>
			<path class="st1" d="M987.6,193.3c-0.7,0.6-1.7,1.4-2.7,2v3.1c2.3-0.4,3.1-0.6,5.2-1.2v1.3c-3.1,0.8-4.4,1.1-8.5,1.8
				c-0.5,0.1-0.7,0.1-1.3,0.2l-0.4-1.5c0.8,0,1.5-0.1,3.4-0.4v-2.6c-1.5,0.8-3.1,1.3-5.6,1.9c-0.2-0.5-0.4-0.8-0.8-1.3
				c3.7-0.7,6.5-1.8,8.7-3.4h-5.9c-1.3,0-1.9,0-2.6,0.1V192c0.8,0.1,1.5,0.1,2.6,0.1h7.5v-0.4c0-0.4,0-0.8-0.1-1.1h1.6
				c0,0.3-0.1,0.7-0.1,1.1v0.4h7.1c1.1,0,1.9,0,2.6-0.1v1.5c-0.6-0.1-1.2-0.1-2.5-0.1h-6.8c0.6,1.1,1.2,1.8,2.5,2.7
				c1.4-0.8,2.4-1.5,3.1-2.4l1.3,0.8c-1.4,1.1-2,1.5-3.3,2.2c1.8,1,3.7,1.7,6,2.3c-0.4,0.5-0.5,0.7-0.9,1.4c-3.3-1-5.5-2.1-7.2-3.5
				c-1.4-1.1-2.1-2-2.9-3.5H987.6z M979.8,181.9c-0.4,0.6-0.5,0.8-1.1,1.4c-0.4-0.4-0.6-0.5-1.1-0.7c1.1-1.1,1.7-1.9,2.2-3.4
				l1.3,0.4c-0.3,0.6-0.4,0.9-0.6,1.3h2.4c0-0.9,0-1.3-0.1-1.8h1.6c-0.1,0.5-0.1,0.9-0.1,1.8h2.7c1,0,1.4,0,2-0.1v1.3
				c-0.6-0.1-1.1-0.1-2-0.1h-2.7v1.6h3c1.1,0,1.5,0,2.1-0.1v1.3c-0.6-0.1-1.2-0.1-2.1-0.1h-3v1.5h2.3c1.1,0,1.6,0,2-0.1
				c0,0.4-0.1,0.7-0.1,1.2v1.9c0,1-0.4,1.3-1.7,1.3c-0.3,0-0.9,0-1.4-0.1c0-0.4-0.1-0.7-0.2-1.1c0.6,0.1,1.2,0.2,1.6,0.2
				c0.4,0,0.5-0.1,0.5-0.5v-1.8h-3v2.1c0,0.7,0,1.3,0.1,1.8h-1.5c0.1-0.6,0.1-1.1,0.1-1.8v-2.2h-2.8v2c0,0.7,0,1.1,0.1,1.5h-1.5
				c0.1-0.5,0.1-0.9,0.1-1.5v-1.6c0-0.5,0-1-0.1-1.5c0.5,0,1.1,0.1,1.8,0.1h2.3v-1.5h-3.1c-0.8,0-1.3,0-2,0.1v-1.4
				c0.5,0.1,1.1,0.1,1.8,0.1h3.2v-1.6H979.8z M990.5,187.8c0.1-0.5,0.1-1,0.1-1.6V182c0-0.7,0-1.2-0.1-1.7h1.7
				c-0.1,0.4-0.1,0.9-0.1,1.7v4.2c0,0.7,0,1,0.1,1.6H990.5z M996.9,188.8c0,1.4-0.5,1.8-2.3,1.8c-0.5,0-1.6-0.1-2.4-0.1
				c-0.1-0.6-0.2-1.1-0.4-1.4c1,0.2,2,0.3,2.6,0.3c0.9,0,1,0,1-0.7v-7.3c0-0.9,0-1.4-0.1-2.1h1.7c-0.1,0.6-0.1,1.2-0.1,2.1V188.8z"
				/>
			<path class="st1" d="M1001.4,192.3c0-0.9,0-1.6-0.1-2.3c0.7,0.1,1.3,0.1,2.2,0.1h4.5c0.8,0,1.3,0,1.9-0.1c0,0.5-0.1,0.9-0.1,2.2
				v5.5c0,1.2,0,1.8,0.1,2.3h-1.5v-1h-5.5v1.5h-1.6c0.1-0.6,0.1-1.3,0.1-2.5V192.3z M1002.9,197.7h5.5v-6.3h-5.5V197.7z
				 M1004.9,181.7c0-0.8,0-1.4-0.1-2c0.7,0.1,1.4,0.1,2.7,0.1h7.8c1.4,0,2,0,2.7-0.1c-0.1,0.6-0.1,1.1-0.1,2v4c0,0.9,0,1.5,0.1,2.1
				c-0.7-0.1-1.3-0.1-2.5-0.1h-8.1c-1.1,0-1.9,0-2.5,0.1c0.1-0.6,0.1-1.3,0.1-2.1V181.7z M1006.4,186.3h9.9v-5.1h-9.9V186.3z
				 M1012.2,192.1c0-1.1,0-1.5-0.1-2c0.6,0,1.1,0.1,1.9,0.1h5.2c0.9,0,1.5,0,2-0.1c-0.1,0.6-0.1,1.3-0.1,2.3v5.7
				c0,1.3,0,1.9,0.1,2.5h-1.6V199h-6.1v1.5h-1.5c0.1-0.6,0.1-1.2,0.1-2.3V192.1z M1013.7,197.7h6.1v-6.3h-6.1V197.7z"/>
		</g>
	</g>
	<g>
		<rect x="247.9" y="108.8" class="st0" width="20.6" height="22.4"/>
		<polygon class="st0" points="265.4,139.8 265.4,100.2 285.2,120 		"/>
	</g>
	<g>
		<rect x="531.4" y="108.8" class="st0" width="20.6" height="22.4"/>
		<polygon class="st0" points="548.9,139.8 548.9,100.2 568.6,120 		"/>
	</g>
	<g>
		<rect x="814.8" y="108.8" class="st0" width="20.6" height="22.4"/>
		<polygon class="st0" points="832.3,139.8 832.3,100.2 852.1,120 		"/>
	</g>
	<g>
		<path class="st1" d="M409.4,33.2c1.8-2.6,5.1-5.3,8.7-6.3c12.8-3.5,30,12.6,39.1,38.2c9.2,25.6,6.5,49.9-6,54.4
			c-12.5,4.5-30-12.6-39.1-38.2l-2.8-7.4c0,0,5.1-14.7,7.8-22.1c1.9,4.4,4.4,10.2,7.5,18.1c7.8,19.4,12.5,28.9,18.9,27.5
			c3.8-0.8,4.9-14.8-2.5-33.2c-7.4-18.4-16.3-23.2-19.6-21.7c-2.8,1.2-4.1,3.3-4.5,4.3c-4.5,10.5-12.5,34.5-12.5,34.5
			c-9.2,25.6-26.7,42.7-39.1,38.2c-12.5-4.5-15.1-28.8-6-54.4c9.2-25.6,26.4-41.7,39.1-38.2c3.6,1,6.3,3.2,8.3,6.5
			c0,0-4.5,6.7-7.2,13.4c-0.4-1.1-1.7-3.1-4.5-4.3c-3.3-1.5-12.2,3.4-19.6,21.7c-7.4,18.3-6.2,32.3-2.5,33.2
			c6.4,1.4,11.1-8.1,18.9-27.5c7.8-19.4,11.3-26.6,12.9-29.5C407.8,35.1,409.4,33.2,409.4,33.2z"/>
		<polygon class="st1" points="462.2,129 455.3,129 451.8,133.1 448.3,129 441.4,129 448.4,137 441.4,145.1 448.3,145.1 451.8,141 
			455.3,145.1 462.2,145.1 455.2,137 		"/>
		<path class="st1" d="M411.5,128.3v-1.6h-5.8v14c0,0-0.1,2.1,1.2,3.2c1.3,1.2,2.7,1.1,2.7,1.1h0.6v0h10.1v-4h-8.2
			c0,0-0.3,0.1-0.5-0.1c-0.2-0.2-0.2-0.5-0.2-0.5v-6.5c0,0,0-0.3,0.2-0.5c0.2-0.2,0.4-0.1,0.4-0.1h8.2v-4.3h-8.2c0,0-0.4,0-0.5-0.1
			C411.5,128.7,411.5,128.3,411.5,128.3z"/>
		<path class="st1" d="M400,129h-0.8v0h-14.7v4.3h13.3c0,0,0.4,0.1,0.5,0.2c0.1,0.2,0.2,0.4,0.2,0.4v0.5c0,0,0,0.2-0.2,0.4
			c-0.2,0.2-0.4,0.3-0.4,0.3l-6.5,0l-2.1,0c-0.3,0-0.7,0-1.7,0c-2.1,0-3.7,2.4-3.7,5.1c0,2.7,1.5,4.8,3.7,4.8c1.7,0,2.9,0,3.5,0h7.5
			l-0.1,0h5.8v-12.1c0,0,0-1.5-1.4-2.8C401.7,128.9,400,129,400,129z M397.4,141.5h-6.2v0c-2,0-1.9-2.8,0-2.8c0,0,0,0,0.1,0h6.1
			c0,0,0.4,0.1,0.7,0.3c0.3,0.2,0.4,0.6,0.4,0.6v1c0,0-0.1,0.4-0.3,0.6C397.9,141.4,397.4,141.5,397.4,141.5z"/>
		<path class="st1" d="M379,129h-0.1h-24.8v16.1h5.8v-11.3c0,0,0-0.2,0.2-0.4c0.2-0.2,0.4-0.1,0.4-0.1h4.4c0,0,0.4,0,0.5,0.1
			c0.2,0.2,0.1,0.5,0.1,0.5v11.2h5.8v-11.3c0,0,0-0.2,0.1-0.3c0.1-0.1,0.4-0.1,0.4-0.1h4.5c0,0,0.3,0,0.5,0.1
			c0.2,0.2,0.1,0.4,0.1,0.4v11.3h5.8v-12c0,0,0.1-1.2-1-2.7C380.6,128.8,379,129,379,129z"/>
		<path class="st1" d="M427.4,139.2h7.6v0c0.6,0,0.6,0,2.6,0c1.8,0,3.6-1.9,3.6-5.2c0-3.2-1.8-5.1-3.6-5.1c-1,0-1.6,0-1.9,0v0h-8.9
			h-0.3H426c0,0-2.5-0.2-3.8,1.1c-1.4,1.4-1.3,3.3-1.3,3.3v7.4c0,0-0.1,2.1,1.2,3.2c1.3,1.2,2.7,1.1,2.7,1.1h1.2v0h14.7v-4.3h-13.3
			c0,0-0.3,0-0.4-0.2c-0.2-0.1-0.2-0.4-0.2-0.4v-0.5c0,0,0.1-0.3,0.2-0.4C427.1,139.2,427.4,139.2,427.4,139.2z M427.7,132.7h6.4
			c1.6,0.2,1.5,2.7-0.2,2.7l0,0h-6.2c0,0-0.4,0-0.7-0.2c-0.3-0.2-0.3-0.5-0.3-0.5v-1.1c0,0,0-0.5,0.3-0.7
			C427.4,132.7,427.7,132.7,427.7,132.7z"/>
	</g>
	<g>
		<path class="st1" d="M639,116.6c2.1-0.9,4.2-1.7,6.3-2.4c5.9-1.7,11.6-3.7,17.3-6c2.5-1,4.8-2.2,6.5-4.4c0.8-1,1.9-1.7,3.1-2.6
			c0,0,0,0,0,0c-0.5-0.4-1-0.8-1.4-1.3c-0.5-0.6-1.1-1.2-1.7-1.6c-1.2-0.6-1.5-1.6-1.4-2.8c0.1-0.8,0.2-1.6,0.5-2.3
			c0.9-1.8,1.5-3.6,1.9-5.5c0.1,0,0.1,0,0.2,0c-0.1-0.5-0.2-0.9-0.4-1.4c-0.8-0.5-1.7-0.8-2.2-1.4c-0.6-0.7-1-1.7-1.3-2.6
			c-0.7-2.2-1.2-4.3-2.3-6.4c-0.6-1.3-0.5-2.7-0.4-4.1c0.1-1.3,1.3-1.6,2.1-2.3c-0.8-3.3-1.6-6.5-1.7-9.9c0-0.6,0-1.1,0-1.7
			c-0.9-0.3-1.9-0.5-2.8-0.8c-2.1-0.5-4.3-0.4-6.4-1.1c-0.5-0.1-1,0-1.6,0.1c-1,0.1-2,0.4-3.1,0.4c-1.1,0-2.2,0.4-2.9,1.4
			c-0.3,0.5-0.8,0.6-1.3,0.8c-1.1,0.5-1.9,1.3-2.3,2.5c-0.3,0.7-0.8,1.4-1,2.1c-0.2,0.7-0.1,1.6-0.2,2.3c-0.3,1.6-0.4,3.1-0.3,4.7
			c0,2.2,0.6,4.4,1.1,6.6c-0.6,0.4-1.3,0.7-1.4,1.5c-0.1,0.9-0.2,1.9,0.3,2.7c0.7,1.4,1.1,2.8,1.5,4.2c0.2,0.6,0.4,1.3,0.8,1.7
			c0.3,0.4,0.9,0.6,1.5,0.9c0.4,1.6,0.8,3.1,1.7,4.5c0.5,0.8,0.6,1.6,0.4,2.5c-0.2,1-0.4,2-0.6,2.9c-0.8,0.7-1.5,1.1-2.1,1.8
			c-1.2,1.4-2.7,2.3-4.4,2.9c-3.8,1.5-7.6,2.9-11.5,4c-1.4,0.4-2.9,1-4.2,1.6c-2.2,1-3.9,2.6-4.8,5c-0.9,2.5-1.8,5-2.7,7.6
			c-0.5,1.6-0.9,3.3-0.9,5c0,0.8,0,1.7,0.2,2.5c0.2,1,0.9,1.6,1.9,1.6c0.5,0,1,0,1.6,0c2.9,0,5.8,0,8.8,0c0.7-2.1,1.5-4.1,2.2-6.2
			C633.2,120.5,635.7,118.1,639,116.6z"/>
		<path class="st1" d="M749.2,128.8c-0.5-2.1-1.3-4.1-2.4-6c-1.6-2.6-3.7-4.6-6.7-5.4c-1.7-0.5-3.4-1.1-5-1.8
			c-6.2-2.4-12.3-5.1-18.7-7.1c-1.9-0.6-3.5-1.7-4.8-3.3c-0.7-0.9-1.6-1.8-2.6-2.3c-1.8-0.9-2.2-2.4-2.1-4.2
			c0.1-1.2,0.2-2.4,0.7-3.4c1.3-2.6,2.3-5.4,2.9-8.3c1.1,0.2,2-0.1,2.4-0.9c0.6-1.1,1.1-2.3,1.4-3.5c0.8-2.7,1.4-5.5,2.1-8.3
			c0-0.2,0.1-0.4,0.1-0.6c0.2-1-0.2-1.7-1.1-2.2c-0.3-0.2-0.7-0.2-1.1-0.4c0.1-0.6,0.3-1.1,0.4-1.6c1.4-6.2,0.6-12.1-2.2-17.8
			c-2.3-4.6-5.9-7.8-10.8-9.4c-1.4-0.4-2.8-0.8-4.3-1.2c-3.2-0.7-6.5-0.6-9.6-1.6c-0.7-0.2-1.5,0-2.3,0.1c-1.5,0.1-3,0.6-4.6,0.7
			c-1.6,0-3.3,0.5-4.4,2.1c-0.5,0.7-1.2,0.9-1.9,1.2c-1.7,0.8-2.8,2-3.5,3.8c-0.4,1.1-1.2,2-1.5,3.1c-0.3,1.1-0.1,2.3-0.3,3.5
			c-0.5,2.3-0.5,4.7-0.5,7c0.1,3.4,0.8,6.6,1.7,9.9c-0.8,0.7-2,1-2.1,2.3c-0.1,1.4-0.3,2.8,0.4,4.1c1,2,1.6,4.2,2.3,6.4
			c0.3,0.9,0.7,1.9,1.3,2.6c0.5,0.6,1.4,0.9,2.2,1.4c0.5,2.4,1.3,4.7,2.6,6.8c0.7,1.1,0.9,2.4,0.6,3.7c-0.3,1.5-0.7,3.1-0.9,4.3
			c-1.2,1-2.3,1.7-3.1,2.6c-1.8,2.1-4,3.4-6.5,4.4c-5.7,2.2-11.4,4.3-17.3,6c-2.2,0.6-4.3,1.4-6.3,2.4c-3.4,1.5-5.9,3.9-7.1,7.5
			c-1.4,3.8-2.8,7.6-4,11.4c-0.8,2.4-1.3,5-1.4,7.5c0,1.3,0,2.6,0.3,3.8c0.3,1.5,1.3,2.4,2.9,2.5c0.8,0,1.6,0.1,2.4,0.1
			c36.9,0.1,73.8,0.2,110.7,0.2c0.6,0,1.2,0,1.8,0c2.1-0.1,2.9-0.9,3.3-3c0.3-2.1,0.1-4.1-0.3-6.2
			C751,137.4,750.1,133.1,749.2,128.8z"/>
		<path class="st1" d="M766,121.2c-0.6-2.8-0.7-3.6-1.3-6.4c-0.3-1.4-1.2-3.2-1.9-4.4c-1-1.7-2-2.4-4-3c-1.1-0.3-2.4-0.6-3.5-0.9
			c-4-1.1-1.5-0.3-5.6-1.5c-0.9-0.3-4.4-1.7-6.6-2.8c0.1-1.3-0.4-4.4-1.5-4.7c-0.6-0.2-1.7,0.2-2.7,0.6c-0.3-0.4-0.6-0.7-0.8-0.8
			c-1.2-0.6-1-2.9-0.9-4.1c0.1-0.8,1.5-1.7,1.8-2.4c0.1-0.2,0.7-1.5,0.8-1.7c3.7,5.1,8,5.6,8,5.6s-3.2-7.1-1.9-11.2c0,0,0,0,0,0
			c1.3-5.2,1.8-11.7-0.3-19.9c-2.5-9.7-10.5-8.2-12.3-7.9c0,0-8.1-3-14.5-0.1c1,3.9,1.1,7.9,0.1,12c-0.1,0.5-0.2,0.9-0.4,1.6
			c0.4,0.1,0.8,0.2,1.1,0.4c0.9,0.4,1.2,1.2,1.1,2.2c0,0.2-0.1,0.4-0.1,0.6c-0.7,2.8-1.3,5.5-2.1,8.3c-0.3,1.2-0.9,2.4-1.4,3.5
			c-0.4,0.9-1.3,1.1-2.4,0.9c-0.6,2.6-1.4,5.1-2.6,7.6c2.1-0.2,4.9-1.3,6.6-3.8c0.2,0.6,0.5,1.1,0.8,1.6c0.5,0.7,1.8,1.6,1.6,2.4
			c-0.2,1-0.4,2-0.6,2.8c-0.4,0.3-0.7,0.9-1.1,1.4c-1-0.4-2.2-0.8-2.9-0.7c-1.2,0.3-1.7,4.3-1.3,5c-0.2,0.2-0.5,0.3-0.7,0.5
			c0.4,0.4,0.9,0.9,1.2,1.3c1.3,1.6,2.8,2.7,4.8,3.3c6.4,1.9,12.5,4.6,18.7,7.1c1.6,0.6,3.3,1.3,5,1.8c3,0.9,5.1,2.8,6.7,5.4
			c1.1,1.9,1.9,3.9,2.4,6c0,0.2,0.1,0.3,0.1,0.5c3.1,0,6.3,0,9.5,0c0.4,0,0.8,0,1.2,0c1.4-0.1,1.9-0.6,2.1-2
			C766.4,123.9,766.2,122.6,766,121.2z"/>
	</g>
	<g>
		<path class="st1" d="M970.1,118.7c-1.1-1.6-2.3-3.2-3.4-4.8c-0.4-0.6-0.7-1.2-1-1.6c1.2-2.8,2.3-5.5,3.5-8.4
			c1.1-0.2,2.2-0.4,3.3-0.6c1.3-0.2,2.6-0.4,3.9-0.6c2.1-0.4,3.1-1.6,3.2-3.7c0.1-1.5,0.1-3,0-4.5c-0.1-1.8-1.1-2.9-2.8-3.4
			c-0.3-0.1-0.5-0.1-0.8-0.1c-2.3-0.4-4.5-0.8-6.9-1.2c-0.9-2.2-1.7-4.4-2.6-6.7c0.4-0.5,0.7-1,1.1-1.5c1-1.3,2-2.5,3-3.7
			c2.1-2.3,2-4.3-0.1-6.3c-0.6-0.6-1.1-1.2-1.6-1.8c-2.3-2.5-3.4-2.7-6.2-0.9c-1.9,1.2-3.8,2.4-5.8,3.6c-3-2.1-6.4-3.5-9.9-4.6
			c-0.2-1-0.4-1.8-0.5-2.7c-0.3-1.7-0.6-3.3-0.8-5c-0.3-1.8-1.5-2.9-3.2-3c-1.7-0.2-3.4-0.2-5.1,0c-1.7,0.2-2.9,1.2-3.2,3
			c-0.2,1-0.3,1.9-0.5,2.9c-0.4,1.6-0.3,3.4-0.9,4.7c-2.9,1.2-5.6,2.4-8.4,3.5c-0.5-0.3-1.1-0.7-1.7-1.1c-1.5-1-2.9-2.1-4.4-3.1
			c-1.8-1.2-3.3-1.1-4.8,0.4c-1,1-2.1,2-3,3c-1.5,1.6-1.6,3-0.4,4.8c0.9,1.4,2,2.7,2.9,4.1c0.5,0.7,1.2,1.3,1.3,2
			c-1.2,2.9-2.3,5.6-3.5,8.4c-0.4,0.1-0.9,0.2-1.3,0.3c-2.1,0.4-4.2,0.7-6.3,1.1c-1.8,0.4-2.9,1.5-3,3.3c-0.1,1.7-0.1,3.4,0,5.1
			c0.1,1.6,1,2.6,2.5,3.1c0.6,0.2,1.2,0.2,1.8,0.3c2.1,0.5,4.4,0.5,6.4,1.3c0.9,2.4,1.7,4.6,2.6,6.9c-0.7,0.9-1.5,1.8-2.2,2.7
			c-0.9,1.1-1.8,2.2-2.7,3.3c-1,1.5-1.1,3.1,0,4.4c1,1.3,2.1,2.5,3.2,3.6c1.4,1.3,2.7,1.5,4.4,0.6c0.7-0.4,1.4-0.8,2-1.2
			c1.6-1,3.2-2,4.7-2.9c1.7,0.9,3.2,1.8,4.9,2.5c1.6,0.7,3.3,1.3,4.9,1.9c0.1,0.7,0.3,1.3,0.4,1.9c0.3,1.9,0.6,3.9,1,5.8
			c0.4,1.9,1.4,2.8,3.3,2.8c1.7,0.1,3.4,0.1,5.1,0c1.5-0.1,2.5-0.9,2.9-2.3c0.2-0.8,0.3-1.6,0.5-2.3c0.5-2,0.4-4.1,1.1-5.8
			c2.9-1.2,5.6-2.3,8.4-3.4c0.8,0.5,1.6,1.1,2.4,1.6c1.3,0.9,2.6,1.9,3.9,2.8c1.9,1.2,3.2,1.1,4.8-0.3c1.1-1,2.1-2,3-3
			C971.2,122.1,971.3,120.5,970.1,118.7z M940,119.8c-12.7,0-23-10.3-23-23c0-12.7,10.3-23,23-23c12.7,0,23,10.3,23,23
			C963.1,109.5,952.8,119.8,940,119.8z"/>
		<path class="st1" d="M940,82c-8.1,0-14.8,6.6-14.8,14.8c0,8.1,6.6,14.7,14.8,14.7c8.1,0,14.7-6.6,14.7-14.7
			C954.8,88.6,948.2,82,940,82z M940,105.8c-5,0-9-4.1-9-9c0-5,4.1-9,9-9c5,0,9,4.1,9,9C949.1,101.8,945,105.8,940,105.8z"/>
		<path class="st1" d="M1037.2,71.6c-0.3-1.5-1.2-2.2-2.7-2.4c-0.2,0-0.4,0-0.6,0c-1.9,0-3.7-0.1-5.7-0.1c-1-1.7-1.9-3.4-2.9-5.1
			c0.2-0.5,0.5-0.9,0.7-1.4c0.6-1.1,1.3-2.3,2-3.4c1.4-2.1,1.1-3.7-0.9-5c-0.5-0.4-1-0.8-1.5-1.2c-2.1-1.7-3-1.7-5.1,0.1
			c-1.4,1.2-2.7,2.4-4.2,3.6c-2.7-1.3-5.6-2-8.5-2.4c-0.3-0.7-0.5-1.4-0.8-2.1c-0.4-1.3-0.9-2.6-1.3-3.9c-0.5-1.4-1.5-2.1-3-2
			c-1.4,0.1-2.7,0.3-4.1,0.6c-1.4,0.4-2.2,1.3-2.2,2.8c0,0.8,0,1.6,0,2.4c-0.1,1.3,0.2,2.7-0.2,3.9c-2.2,1.4-4.2,2.6-6.3,3.9
			c-0.5-0.2-1-0.4-1.5-0.7c-1.3-0.6-2.6-1.3-3.9-1.9c-1.6-0.7-2.8-0.5-3.8,0.9c-0.7,0.9-1.4,1.8-2,2.8c-1,1.5-0.9,2.6,0.3,3.9
			c0.9,1,1.9,2,2.9,3c0.5,0.5,1.1,0.9,1.3,1.4c-0.6,2.5-1.2,4.8-1.7,7.2c-0.3,0.1-0.7,0.3-1,0.4c-1.6,0.6-3.3,1.1-4.9,1.7
			c-1.4,0.5-2.1,1.6-2,3c0.1,1.4,0.4,2.7,0.6,4.1c0.3,1.3,1.1,2,2.4,2.2c0.5,0.1,1,0,1.5,0c1.8,0.1,3.6-0.2,5.3,0.2
			c1,1.8,2,3.5,3,5.2c-0.5,0.8-0.9,1.6-1.4,2.5c-0.6,1-1.2,2-1.7,3c-0.7,1.3-0.5,2.6,0.6,3.6c1,0.9,2,1.7,3,2.5
			c1.3,0.9,2.3,0.9,3.6-0.1c0.5-0.4,1-0.8,1.5-1.3c1.1-1,2.3-2,3.4-2.9c1.5,0.5,2.8,1,4.2,1.4c1.4,0.4,2.8,0.6,4.2,0.9
			c0.2,0.6,0.4,1,0.6,1.5c0.5,1.5,1,3,1.5,4.5c0.6,1.5,1.5,2,3,1.9c1.4-0.2,2.7-0.4,4.1-0.7c1.2-0.2,1.9-1,2.1-2.2
			c0.1-0.6,0.1-1.3,0.1-1.9c0.1-1.6-0.2-3.3,0.1-4.8c2.2-1.3,4.2-2.5,6.3-3.8c0.7,0.3,1.4,0.6,2.1,1c1.2,0.6,2.3,1.2,3.5,1.7
			c1.7,0.8,2.7,0.5,3.8-0.9c0.7-0.9,1.4-1.8,2-2.8c0.9-1.4,0.8-2.7-0.3-3.9c-1.1-1.2-2.2-2.3-3.3-3.4c-0.4-0.4-0.7-0.9-1-1.2
			c0.6-2.4,1.1-4.7,1.8-7.2c0.8-0.3,1.7-0.6,2.6-0.9c1-0.3,2.1-0.6,3.1-1c1.6-0.6,2.3-1.7,2.1-3.3
			C1037.6,74,1037.4,72.8,1037.2,71.6z M1008.5,96.9c-10.2,1.6-19.8-5.4-21.4-15.6c-1.6-10.2,5.4-19.8,15.6-21.4
			c10.2-1.6,19.8,5.4,21.4,15.6C1025.7,85.7,1018.7,95.3,1008.5,96.9z"/>
		<path class="st1" d="M1003.8,66.6c-6.5,1-11,7.2-10,13.7c1,6.5,7.2,11,13.7,10c6.5-1,11-7.2,10-13.7
			C1016.4,70,1010.3,65.6,1003.8,66.6z M1006.7,85.7c-4,0.6-7.8-2.1-8.4-6.1c-0.6-4,2.1-7.8,6.1-8.4c4-0.6,7.8,2.1,8.4,6.1
			C1013.5,81.3,1010.8,85.1,1006.7,85.7z"/>
		<path class="st1" d="M1016.7,130.5c-0.2,0-0.3-0.1-0.5-0.1c-1.4-0.3-2.8-0.7-4.2-1c-0.4-1.4-0.9-2.8-1.3-4.3
			c0.3-0.3,0.5-0.6,0.8-0.9c0.7-0.7,1.3-1.5,2-2.2c1.4-1.3,1.4-2.6,0.2-3.9c-0.3-0.4-0.6-0.8-0.9-1.2c-1.3-1.6-2-1.8-3.8-0.8
			c-1.2,0.6-2.4,1.3-3.7,2c-1.8-1.4-3.8-2.4-6-3.2c-0.1-0.6-0.1-1.1-0.2-1.7c-0.1-1-0.2-2.1-0.3-3.1c-0.1-1.1-0.8-1.8-1.9-2
			c-1-0.2-2.1-0.2-3.1-0.2c-1.1,0-1.9,0.6-2.1,1.7c-0.1,0.6-0.2,1.2-0.4,1.8c-0.3,1-0.3,2.1-0.8,2.9c-1.9,0.6-3.6,1.2-5.4,1.8
			c-0.3-0.2-0.7-0.5-1-0.8c-0.9-0.7-1.7-1.4-2.6-2.1c-1.1-0.8-2-0.8-3,0c-0.7,0.6-1.4,1.1-2,1.7c-1,0.9-1.1,1.8-0.4,3
			c0.5,0.9,1.1,1.8,1.6,2.7c0.3,0.5,0.7,0.9,0.7,1.3c-0.9,1.8-1.7,3.4-2.5,5.1c-0.3,0-0.5,0.1-0.8,0.1c-1.3,0.1-2.6,0.2-4,0.4
			c-1.1,0.1-1.8,0.8-2,1.9c-0.1,1-0.2,2.1-0.2,3.1c0,1,0.5,1.7,1.4,2c0.4,0.1,0.8,0.2,1.1,0.3c1.3,0.4,2.7,0.5,3.9,1.1
			c0.5,1.5,0.9,2.9,1.3,4.4c-0.5,0.5-1,1.1-1.5,1.6c-0.6,0.7-1.2,1.3-1.8,2c-0.7,0.9-0.8,1.9-0.2,2.8c0.6,0.8,1.2,1.6,1.8,2.4
			c0.8,0.9,1.6,1,2.7,0.6c0.5-0.2,0.9-0.5,1.3-0.7c1-0.5,2-1.1,3-1.6c1,0.6,1.9,1.2,2.9,1.7c1,0.5,2,0.9,3,1.4
			c0.1,0.5,0.1,0.8,0.2,1.2c0.1,1.2,0.2,2.4,0.4,3.6c0.2,1.2,0.8,1.8,1.9,1.9c1,0.1,2.1,0.2,3.1,0.2c0.9,0,1.6-0.5,1.9-1.3
			c0.2-0.5,0.3-1,0.4-1.4c0.4-1.2,0.4-2.5,0.9-3.6c1.8-0.6,3.6-1.2,5.3-1.8c0.4,0.3,0.9,0.7,1.4,1.1c0.8,0.6,1.5,1.3,2.3,1.9
			c1.1,0.8,1.9,0.8,3,0c0.7-0.5,1.4-1.1,2-1.7c0.9-0.9,1.1-1.8,0.4-3c-0.6-1.1-1.3-2.1-1.9-3.1c-0.2-0.4-0.4-0.8-0.5-1
			c0.9-1.7,1.6-3.3,2.5-5.1c0.7-0.1,1.4-0.2,2.1-0.2c0.8-0.1,1.7-0.1,2.5-0.2c1.3-0.2,2-0.8,2.1-2.1c0.1-0.9,0.2-1.9,0.2-2.8
			C1018.4,131.6,1017.8,130.9,1016.7,130.5z M1007.9,133.5c-0.5,7.9-7.3,13.8-15.2,13.3c-7.9-0.5-13.8-7.3-13.3-15.2
			c0.5-7.9,7.3-13.8,15.2-13.3C1002.5,118.8,1008.4,125.6,1007.9,133.5z"/>
		<path class="st1" d="M994.2,123.4c-5-0.3-9.4,3.5-9.8,8.5c-0.3,5,3.5,9.4,8.5,9.8c5,0.3,9.4-3.5,9.8-8.5
			C1003.1,128.1,999.3,123.7,994.2,123.4z M993.2,138.1c-3.1-0.2-5.4-2.9-5.2-6c0.2-3.1,2.9-5.4,6-5.2c3.1,0.2,5.4,2.9,5.2,6
			C999,136,996.3,138.3,993.2,138.1z"/>
	</g>
	<g>
		<path class="st1" d="M203.1,40.3c0-0.2,0-0.4-0.2-0.7c0,0,0,0,0,0c0,0-0.1-0.1-0.1-0.1c-0.1-0.2-0.2-0.3-0.4-0.4
			c0,0,0-0.1-0.1-0.1c0,0-0.1,0-0.1,0c-0.2-0.1-0.3-0.1-0.5-0.2c-0.1,0-0.1,0-0.2,0c-0.2,0-0.5,0-0.7,0.1L111,83.8h-2.6l84.2-42
			c0.8-0.4,1.1-1.3,0.7-2.1c-0.4-0.8-1.3-1.1-2.1-0.7l-90.2,45c-0.1,0-0.1,0.1-0.2,0.1c-0.1,0.1-0.2,0.1-0.3,0.2
			c-0.1,0.1-0.1,0.2-0.2,0.2c-0.1,0.1-0.1,0.2-0.2,0.3c0,0.1-0.1,0.2-0.1,0.3c0,0.1,0,0.1,0,0.2v51c0,0.9,0.7,1.6,1.6,1.6h9.7
			c0.3,0,0.5-0.1,0.8-0.2l90.1-44.9c0.5-0.3,0.9-0.8,0.9-1.4L203.1,40.3C203.1,40.3,203.1,40.3,203.1,40.3z M103.2,86.9h1.2h5.3
			v47.9h-6.5V86.9z M200,90.4l-87,43.4V86.3l87-43.4V90.4z"/>
		<path class="st1" d="M97.3,128.7l-10.1,5.1V86.3l78.2-39l8.8-4.4v1.4c0,0.9,0.7,1.6,1.6,1.6c0.9,0,1.6-0.7,1.6-1.6v-3.9
			c0,0,0,0,0,0c0-0.2,0-0.4-0.2-0.7c0,0,0,0,0,0c0,0-0.1-0.1-0.1-0.1c-0.1-0.2-0.2-0.3-0.4-0.4c0,0,0-0.1-0.1-0.1c0,0-0.1,0-0.1,0
			c-0.2-0.1-0.3-0.1-0.5-0.2c-0.1,0-0.1,0-0.2,0c-0.2,0-0.5,0-0.7,0.1L85.3,83.8h-2.7l84.2-42c0.8-0.4,1.1-1.3,0.7-2.1
			c-0.4-0.8-1.3-1.1-2.1-0.7l-90.2,45c-0.1,0-0.1,0.1-0.2,0.1c-0.1,0.1-0.2,0.1-0.3,0.2c-0.1,0.1-0.1,0.2-0.2,0.2
			c-0.1,0.1-0.1,0.2-0.2,0.3c0,0.1-0.1,0.2-0.1,0.3c0,0.1,0,0.1,0,0.2v51c0,0.9,0.7,1.6,1.6,1.6h9.7c0.2,0,0.5-0.1,0.7-0.2
			c0,0,0,0,0,0l12.4-6.2c0.8-0.4,1.1-1.3,0.7-2.1C99.1,128.7,98.1,128.4,97.3,128.7z M77.5,86.9h1.2H84v47.9h-6.6V86.9z"/>
		<path class="st1" d="M69.6,128.7l-10.1,5.1V86.3l77-38.4l10-5v1.4c0,0.9,0.7,1.6,1.6,1.6s1.6-0.7,1.6-1.6v-3.9c0,0,0,0,0,0
			c0-0.2,0-0.4-0.2-0.7c0,0,0,0,0,0c0,0-0.1-0.1-0.1-0.1c-0.1-0.2-0.2-0.3-0.4-0.4c0,0,0-0.1-0.1-0.1c0,0-0.1,0-0.1,0
			c-0.2-0.1-0.3-0.1-0.5-0.2c-0.1,0-0.1,0-0.2,0c-0.2,0-0.5,0-0.7,0.1L57.5,83.8h-2.7l84.2-42c0.8-0.4,1.1-1.3,0.7-2.1
			c-0.4-0.8-1.3-1.1-2.1-0.7l-90.2,45c-0.1,0-0.1,0.1-0.2,0.1c-0.1,0.1-0.2,0.1-0.3,0.2c-0.1,0.1-0.1,0.2-0.2,0.2
			c-0.1,0.1-0.1,0.2-0.2,0.3c0,0.1-0.1,0.2-0.1,0.3c0,0.1,0,0.1,0,0.2v51c0,0.9,0.7,1.6,1.6,1.6h9.7c0.2,0,0.5-0.1,0.7-0.2
			c0,0,0,0,0,0l12.4-6.2c0.8-0.4,1.1-1.3,0.7-2.1C71.4,128.7,70.4,128.4,69.6,128.7z M49.8,86.9H51h5.4v47.9h-6.6V86.9z"/>
	</g>
</g>
</svg>
